<?xml version="1.0" encoding="utf-8"?>
<!-- Generator: Adobe Illustrator 16.0.0, SVG Export Plug-In . SVG Version: 6.00 Build 0)  -->
<!DOCTYPE svg PUBLIC "-//W3C//DTD SVG 1.1//EN" "http://www.w3.org/Graphics/SVG/1.1/DTD/svg11.dtd">
<svg version="1.1" id="Layer_1" xmlns="http://www.w3.org/2000/svg" xmlns:xlink="http://www.w3.org/1999/xlink" x="0px" y="0px"
	 width="30px" height="30px" viewBox="0 0 30 30" enable-background="new 0 0 30 30" xml:space="preserve">
<path display="none" fill="none" stroke="#ffffff" stroke-width="1.5359" stroke-linecap="round" stroke-linejoin="round" stroke-miterlimit="22.926" d="
	M17.434,11.817l2.948-3.848c0.168-0.221,0.125-0.541-0.094-0.707l-1.337-1.024c-0.22-0.167-0.538-0.126-0.708,0.094l-2.947,3.848
	c-0.168,0.22-0.129,0.539,0.094,0.706l1.335,1.023C16.947,12.079,17.265,12.035,17.434,11.817z M9.512,22.152l2.948-3.846
	c0.167-0.221,0.128-0.539-0.095-0.705l-1.336-1.023c-0.218-0.17-0.538-0.128-0.707,0.09l-2.947,3.848
	c-0.168,0.223-0.127,0.541,0.095,0.709l1.336,1.021C9.024,22.416,9.343,22.375,9.512,22.152z M9.837,22.725
	c0.04,0.068,0.258,0.254,1.047,0.836c1.544,1.141,5.206-1.012,8.395-5.172s4.271-8.248,2.811-9.45
	c-0.785-0.648-1.003-0.793-1.074-0.802 M17.954,12.132c0.939,0.914,0.658,2.969-0.684,4.718c-1.339,1.75-3.253,2.559-4.379,1.889"/>
<path display="none" fill="none" stroke="#ffffff" stroke-width="1.5359" stroke-linecap="round" stroke-linejoin="round" stroke-miterlimit="22.926" d="
	M5.842,12.989l6.806,5.155 M24.157,12.989l-6.807,5.155 M5.646,24.141L15,16.482l9.354,7.658 M24.354,24.141H5.646V12.713L15,5.859
	l9.354,6.854V24.141z"/>
<g display="none">
	<defs>
		<rect id="SVGID_1_" x="4.376" y="6.946" width="21.249" height="16.107"/>
	</defs>
	<clipPath id="SVGID_2_" display="inline">
		<use xlink:href="#SVGID_1_"  overflow="visible"/>
	</clipPath>
	<path display="inline" clip-path="url(#SVGID_2_)" fill="#FFFFFF" d="M25.625,13.705c-0.748,0.129-1.833-0.006-2.408-0.243
		c1.195-0.099,2.006-0.642,2.314-1.38c-0.429,0.268-1.768,0.556-2.504,0.279c-0.035-0.174-0.076-0.339-0.117-0.489
		c-0.559-2.066-2.486-3.731-4.503-3.527c0.161-0.066,0.327-0.129,0.493-0.187c0.219-0.078,1.525-0.291,1.318-0.75
		c-0.174-0.404-1.763,0.307-2.064,0.396c0.396-0.147,1.051-0.402,1.122-0.858c-0.608,0.081-1.204,0.372-1.661,0.786
		c0.164-0.177,0.291-0.396,0.316-0.63c-1.618,1.035-2.562,3.117-3.326,5.142c-0.6-0.585-1.132-1.044-1.609-1.296
		c-1.338-0.72-2.94-1.47-5.452-2.402c-0.077,0.83,0.412,1.938,1.819,2.676C9.057,11.18,8.5,11.27,8.055,11.374
		c0.182,0.957,0.773,1.74,2.379,2.121c-0.732,0.048-1.113,0.216-1.454,0.576c0.333,0.66,1.15,1.446,2.615,1.284
		c-1.633,0.702-0.666,2.005,0.664,1.812c-2.265,2.34-5.836,2.166-7.883,0.213c5.348,7.297,16.979,4.314,18.712-2.718
		C24.389,14.674,25.149,14.212,25.625,13.705"/>
</g>
<g display="none">
	<defs>
		<rect id="SVGID_3_" x="7.229" y="7.181" width="15.54" height="15.639"/>
	</defs>
	<clipPath id="SVGID_4_" display="inline">
		<use xlink:href="#SVGID_3_"  overflow="visible"/>
	</clipPath>
	<path display="inline" clip-path="url(#SVGID_4_)" fill="#FFFFFF" d="M10.781,9.809c0.803,0,1.297,0.528,1.315,1.218
		c0,0.679-0.512,1.225-1.331,1.225H10.75c-0.787,0-1.296-0.546-1.296-1.225C9.454,10.337,9.981,9.809,10.781,9.809 M13.238,13.214
		h2.347v0.999c0.312-0.48,0.87-1.164,2.116-1.164c1.545,0,2.701,1.008,2.701,3.177v4.049h-2.348v-3.775c0-0.951-0.34-1.6-1.188-1.6
		c-0.646,0-1.034,0.438-1.204,0.857c-0.062,0.152-0.078,0.363-0.078,0.574v3.943h-2.347C13.238,20.274,13.271,13.874,13.238,13.214
		 M11.942,20.274h-2.35v-7.061h2.35V20.274z M8.379,22.821h13.242c0.635,0,1.148-0.5,1.148-1.121V8.303
		c0-0.618-0.514-1.119-1.148-1.119H8.379c-0.635,0-1.149,0.501-1.149,1.119V21.7C7.23,22.321,7.745,22.821,8.379,22.821"/>
</g>
<g display="none">
	<defs>
		<rect id="SVGID_5_" x="6.974" y="6.946" width="16.053" height="16.107"/>
	</defs>
	<clipPath id="SVGID_6_" display="inline">
		<use xlink:href="#SVGID_5_"  overflow="visible"/>
	</clipPath>
	<path display="inline" clip-path="url(#SVGID_6_)" fill="#FFFFFF" d="M20.139,13.892h-1.906v7.082h-2.882v-7.082h-1.63v-1.623h1.59
		v-0.562c0-0.941,0.198-1.587,0.603-1.943c0.419-0.525,1.433-0.789,3.042-0.789c0.184,0,0.353,0.003,0.5,0.012
		c0.148,0.009,0.354,0.021,0.61,0.036v1.869c-0.162-0.016-0.434-0.024-0.819-0.036c-0.384-0.006-0.647,0.06-0.795,0.201
		c-0.144,0.144-0.219,0.3-0.219,0.471v0.741h1.906V13.892z M20.547,6.946H9.442c-1.364,0-2.467,1.107-2.467,2.469v11.172
		c0,1.363,1.103,2.467,2.467,2.467h11.104c1.363,0,2.469-1.104,2.469-2.467V9.415C23.016,8.054,21.91,6.946,20.547,6.946"/>
</g>
<path display="none" fill="#FFFFFF" d="M12.826,22.527c0.63-1.02,0.972-2.324,1.251-3.695c0.507,0.328,0.955,0.777,1.703,0.852
	c0.906,0.098,1.637-0.203,2.16-0.51c1.318-0.77,2.358-2.807,2.333-4.83c-0.036-2.544-2.021-4.289-4.436-4.49
	c-3.185-0.265-6.112,1.728-6.14,4.887c-0.009,1.4,0.602,2.64,1.821,3.015c0.204-0.23,0.423-0.664,0.398-0.969
	c-0.039-0.424-0.558-0.84-0.627-1.249c-0.376-2.238,1.228-4.101,3.184-4.32c2.052-0.228,3.798,0.738,3.865,2.898
	c0.045,1.481-0.462,3.075-1.251,3.75c-0.643,0.549-2.028,0.617-2.387-0.229c-0.49-1.148,0.884-2.349,0.624-3.864
	c-0.292-1.713-2.362-0.663-2.558,0.627c-0.098,0.639,0.216,1.173,0.229,1.76c0.013,0.666-0.389,1.504-0.569,2.273
	c-0.291,1.242-0.573,2.209-0.569,3.693c-2.704-1.268-4.635-3.605-4.66-6.99c-0.031-4.325,3.216-7.616,7.334-7.901
	c4.487-0.309,7.933,3.081,8.24,7.05C23.21,19.961,18.438,23.834,12.826,22.527"/>
<path display="none" fill="#FFFFFF" d="M15.001,6.978c-4.431,0-8.021,3.591-8.021,8.021c0,4.43,3.591,8.023,8.021,8.023
	c4.43,0,8.018-3.594,8.018-8.023C23.02,10.568,19.432,6.978,15.001,6.978 M19.32,14.226v3.566c0,0.932-0.756,1.689-1.684,1.689
	h-5.352c-0.928,0-1.683-0.758-1.683-1.689v-3.566v-1.779c0-0.927,0.755-1.686,1.683-1.686h5.352c0.928,0,1.684,0.759,1.684,1.686
	V14.226z"/>
<path fill="#ffffff" d="M23.531,1.381H6.469c-0.873,0-1.58,0.707-1.58,1.579s0.707,1.578,1.58,1.578v4.615
	c0,4.176,3.003,7.646,6.966,8.381c-0.004,0.05-0.013,0.098-0.013,0.149v2.008c-0.833,0.044-1.496,0.727-1.496,1.569
	s0.664,1.526,1.496,1.571v2.629h-2.799c-0.873,0-1.579,0.707-1.579,1.58c0,0.872,0.707,1.578,1.579,1.578h8.753
	c0.872,0,1.578-0.706,1.578-1.578c0-0.873-0.706-1.58-1.578-1.58H16.58v-2.629c0.833-0.045,1.494-0.729,1.494-1.571
	s-0.661-1.525-1.494-1.571v-2.006c0-0.052-0.011-0.1-0.016-0.149c3.965-0.735,6.967-4.205,6.967-8.381V4.538
	c0.873,0,1.579-0.706,1.579-1.578S24.404,1.381,23.531,1.381"/>
</svg>
