<?xml version="1.0" encoding="utf-8"?>
<!-- Generator: Adobe Illustrator 16.0.0, SVG Export Plug-In . SVG Version: 6.00 Build 0)  -->
<!DOCTYPE svg PUBLIC "-//W3C//DTD SVG 1.1//EN" "http://www.w3.org/Graphics/SVG/1.1/DTD/svg11.dtd">
<svg version="1.1" id="Layer_1" xmlns="http://www.w3.org/2000/svg" xmlns:xlink="http://www.w3.org/1999/xlink" x="0px" y="0px"
	 width="24px" height="24px" viewBox="0 0 24 24" enable-background="new 0 0 24 24" xml:space="preserve">
<path display="none" fill="none" stroke="#6097ac" stroke-width="1.5359" stroke-linecap="round" stroke-linejoin="round" stroke-miterlimit="22.926" d="
	M14.434,8.817l2.948-3.848c0.168-0.221,0.125-0.541-0.094-0.707l-1.337-1.024c-0.22-0.167-0.538-0.126-0.708,0.094L12.296,7.18
	c-0.168,0.22-0.129,0.539,0.094,0.706l1.335,1.023C13.947,9.079,14.265,9.035,14.434,8.817z M6.512,19.152l2.948-3.846
	c0.167-0.221,0.128-0.539-0.095-0.705l-1.336-1.023c-0.218-0.17-0.538-0.128-0.707,0.09l-2.947,3.848
	c-0.168,0.223-0.127,0.541,0.095,0.709l1.336,1.021C6.024,19.416,6.343,19.375,6.512,19.152z M6.837,19.725
	c0.04,0.068,0.258,0.254,1.047,0.836c1.544,1.141,5.206-1.012,8.395-5.172s4.271-8.248,2.811-9.45
	c-0.785-0.648-1.003-0.793-1.074-0.802 M14.954,9.132c0.939,0.914,0.658,2.969-0.684,4.718c-1.339,1.75-3.253,2.559-4.379,1.889"/>
<path fill="none" stroke="#6097ac" stroke-width="1.5359" stroke-linecap="round" stroke-linejoin="round" stroke-miterlimit="22.926" d="
	M2.842,9.989l6.806,5.155 M21.157,9.989l-6.807,5.155 M2.646,21.141L12,13.482l9.354,7.658 M21.354,21.141H2.646V9.713L12,2.859
	l9.354,6.854V21.141z"/>
</svg>
