<?xml version="1.0" encoding="utf-8"?>
<!-- Generator: Adobe Illustrator 16.0.0, SVG Export Plug-In . SVG Version: 6.00 Build 0)  -->
<!DOCTYPE svg PUBLIC "-//W3C//DTD SVG 1.1//EN" "http://www.w3.org/Graphics/SVG/1.1/DTD/svg11.dtd">
<svg version="1.1" id="Layer_1" xmlns="http://www.w3.org/2000/svg" xmlns:xlink="http://www.w3.org/1999/xlink" x="0px" y="0px"
	 width="24px" height="24px" viewBox="0 0 24 24" enable-background="new 0 0 24 24" xml:space="preserve">
<g>
	<defs>
		<rect id="SVGID_1_" x="3.741" y="3.945" width="16.518" height="16.109"/>
	</defs>
	<clipPath id="SVGID_2_">
		<use xlink:href="#SVGID_1_"  overflow="visible"/>
	</clipPath>
	<path clip-path="url(#SVGID_2_)" fill-rule="evenodd" clip-rule="evenodd" fill="#7c8d97" d="M12,3.947
		c-4.562,0-8.259,3.697-8.259,8.259c0,3.647,2.367,6.743,5.649,7.835c0.412,0.075,0.563-0.18,0.563-0.397
		c0-0.196-0.008-0.715-0.012-1.405c-2.297,0.5-2.782-1.105-2.782-1.105c-0.375-0.955-0.917-1.209-0.917-1.209
		C5.493,15.411,6.3,15.422,6.3,15.422c0.83,0.059,1.265,0.851,1.265,0.851c0.736,1.263,1.934,0.898,2.404,0.687
		c0.075-0.534,0.287-0.898,0.523-1.104c-1.834-0.21-3.762-0.918-3.762-4.082c0-0.901,0.321-1.64,0.851-2.217
		C7.496,9.349,7.212,8.509,7.662,7.371c0,0,0.693-0.222,2.271,0.848c0.658-0.185,1.366-0.276,2.068-0.279
		c0.7,0.003,1.406,0.095,2.066,0.279c1.576-1.069,2.268-0.848,2.268-0.848c0.45,1.138,0.168,1.978,0.083,2.186
		c0.529,0.577,0.849,1.315,0.849,2.217c0,3.171-1.93,3.87-3.771,4.075c0.297,0.256,0.561,0.758,0.561,1.529
		c0,1.105-0.009,1.996-0.009,2.266c0,0.22,0.147,0.478,0.567,0.396c3.278-1.094,5.643-4.187,5.643-7.834
		C20.259,7.645,16.562,3.947,12,3.947"/>
</g>
</svg>
