<?xml version="1.0" encoding="utf-8"?>
<!-- Generator: Adobe Illustrator 16.0.3, SVG Export Plug-In . SVG Version: 6.00 Build 0)  -->
<!DOCTYPE svg PUBLIC "-//W3C//DTD SVG 1.1//EN" "http://www.w3.org/Graphics/SVG/1.1/DTD/svg11.dtd">
<svg version="1.1" id="Layer_1" xmlns="http://www.w3.org/2000/svg" xmlns:xlink="http://www.w3.org/1999/xlink" x="0px" y="0px"
	 width="22.5px" height="33.313px" viewBox="0 0 22.5 33.313" enable-background="new 0 0 22.5 33.313" xml:space="preserve">
<path fill="#FFFFFF" d="M0.541,30.156c0.385-1.094,0.774-2.186,1.156-3.281c0.658-1.896,1.313-3.791,1.961-5.689
	c0.073-0.227,0.178-0.335,0.416-0.377c0.715-0.129,1.426-0.295,2.175-0.451c0.224,0.695,0.448,1.372,0.658,2.057
	c0.021,0.075-0.032,0.184-0.059,0.271c-0.75,2.176-1.503,4.351-2.252,6.529c-0.063,0.185-0.147,0.283-0.354,0.318
	c-1.236,0.217-2.468,0.455-3.701,0.686V30.156z"/>
<path fill="#FFFFFF" d="M22.059,30.219c-1.236-0.23-2.469-0.469-3.705-0.688c-0.178-0.032-0.259-0.106-0.314-0.277
	c-0.76-2.208-1.527-4.412-2.287-6.62c-0.031-0.094-0.06-0.215-0.031-0.303c0.195-0.648,0.406-1.288,0.624-1.969
	c0.485,0.099,0.959,0.188,1.432,0.294c0.353,0.077,0.787,0.071,1.029,0.292c0.235,0.212,0.276,0.664,0.396,1.014
	c0.91,2.637,1.821,5.273,2.734,7.908c0.032,0.098,0.081,0.191,0.123,0.287V30.219z"/>
<path fill="#FFFFFF" d="M11.291,17.538c3.327,0.009,6.055-2.835,6.075-6.338c0.022-3.514-2.689-6.397-6.029-6.412
	C7.968,4.775,5.233,7.623,5.23,11.153C5.226,14.67,7.94,17.527,11.291,17.538 M21.509,9.267c-0.536,0.644-1.047,1.257-1.579,1.894
	c0.522,0.624,1.036,1.245,1.575,1.893c-0.707,0.41-1.383,0.802-2.094,1.211c0.288,0.78,0.571,1.547,0.862,2.345
	c-0.795,0.131-1.563,0.257-2.332,0.383v2.511c-0.771-0.158-1.527-0.314-2.325-0.479c-0.253,0.786-0.509,1.563-0.771,2.378
	c-0.697-0.439-1.365-0.865-2.049-1.299c-0.501,0.654-0.988,1.292-1.495,1.959C10.79,21.398,10.3,20.758,9.8,20.104
	c-0.683,0.434-1.349,0.857-2.045,1.301c-0.221-0.678-0.452-1.322-0.634-1.979c-0.088-0.319-0.196-0.42-0.522-0.334
	c-0.557,0.153-1.128,0.248-1.695,0.365c-0.077,0.016-0.154,0.021-0.248,0.033v-2.495c-0.757-0.124-1.524-0.252-2.332-0.385
	c0.287-0.783,0.567-1.541,0.861-2.341c-0.69-0.399-1.376-0.799-2.094-1.216c0.532-0.638,1.05-1.261,1.576-1.892
	c-0.526-0.628-1.037-1.243-1.576-1.89c0.494-0.286,0.966-0.563,1.443-0.837c0.654-0.377,0.654-0.377,0.385-1.107
	C2.723,6.804,2.534,6.28,2.324,5.713c0.717-0.117,1.4-0.243,2.086-0.335c0.232-0.031,0.281-0.12,0.274-0.345
	C4.656,4.407,4.652,3.778,4.638,3.15V2.813c0.791,0.164,1.551,0.322,2.343,0.485c0.255-0.786,0.507-1.558,0.774-2.379
	c0.686,0.439,1.358,0.864,2.045,1.3c0.5-0.653,0.987-1.287,1.498-1.955c0.508,0.661,0.995,1.295,1.499,1.957
	c0.676-0.429,1.338-0.851,2.045-1.302c0.26,0.801,0.516,1.577,0.774,2.377c0.78-0.159,1.54-0.317,2.325-0.48
	c0,0.314,0.002,0.604,0,0.897c-0.008,0.448-0.004,0.894-0.024,1.341c-0.011,0.214,0.045,0.294,0.258,0.322
	c0.687,0.096,1.373,0.219,2.103,0.336c-0.242,0.655-0.473,1.276-0.704,1.898c-0.165,0.446-0.165,0.448,0.241,0.681
	C20.367,8.612,20.924,8.931,21.509,9.267"/>
<path fill="#FFFFFF" d="M14.877,32.963c-0.371-1.073-0.721-2.078-1.068-3.083c-0.703-2.036-1.404-4.074-2.111-6.106
	c-0.067-0.193-0.056-0.322,0.073-0.483c0.427-0.538,0.836-1.091,1.278-1.673c0.497,0.318,0.988,0.627,1.471,0.951
	c0.066,0.043,0.096,0.157,0.123,0.244c0.791,2.285,1.582,4.57,2.363,6.857c0.039,0.105,0.059,0.273,0.003,0.348
	C16.322,30.988,15.619,31.945,14.877,32.963"/>
<path fill="#FFFFFF" d="M7.695,32.93c-0.715-0.98-1.411-1.932-2.098-2.891c-0.045-0.064-0.042-0.201-0.014-0.285
	c0.802-2.34,1.611-4.676,2.42-7.008c0.028-0.088,0.081-0.185,0.147-0.229c0.452-0.301,0.91-0.588,1.394-0.898
	c0.472,0.616,0.935,1.219,1.386,1.828c0.036,0.049,0.022,0.162-0.003,0.234c-1.05,3.055-2.108,6.109-3.166,9.164
	C7.755,32.863,7.737,32.877,7.695,32.93"/>
<path fill="#FFFFFF" d="M13.676,14.773c-0.672-0.371-1.323-0.707-1.95-1.089c-0.308-0.189-0.547-0.185-0.855,0.002
	c-0.626,0.382-1.278,0.716-1.975,1.099C9.021,14,9.114,13.273,9.264,12.561c0.091-0.417,0.017-0.693-0.287-0.993
	c-0.515-0.504-0.97-1.075-1.443-1.605c0.627-0.098,1.32-0.231,2.017-0.302c0.396-0.04,0.627-0.188,0.788-0.584
	c0.277-0.679,0.613-1.331,0.949-2.042c0.07,0.127,0.123,0.21,0.165,0.3c0.311,0.656,0.623,1.311,0.924,1.973
	c0.08,0.179,0.172,0.273,0.375,0.301c0.791,0.107,1.578,0.238,2.367,0.361c0.037,0.045,0.076,0.089,0.111,0.133
	c-0.091,0.04-0.207,0.056-0.273,0.124c-0.521,0.52-1.029,1.054-1.547,1.576c-0.123,0.122-0.162,0.233-0.127,0.417
	c0.137,0.749,0.252,1.506,0.375,2.258C13.673,14.561,13.668,14.646,13.676,14.773"/>
</svg>
