<?xml version="1.0" encoding="utf-8"?>
<!-- Generator: Adobe Illustrator 16.0.0, SVG Export Plug-In . SVG Version: 6.00 Build 0)  -->
<!DOCTYPE svg PUBLIC "-//W3C//DTD SVG 1.1//EN" "http://www.w3.org/Graphics/SVG/1.1/DTD/svg11.dtd">
<svg version="1.1" id="Layer_1" xmlns="http://www.w3.org/2000/svg" xmlns:xlink="http://www.w3.org/1999/xlink" x="0px" y="0px"
	 width="44px" height="44px" viewBox="0 0 44 44" enable-background="new 0 0 44 44" xml:space="preserve">
<g>
	<path fill="#FFFFFF" d="M25.688,9.053c-3.217,1.254-4.781,4.758-3.548,7.938c1.217,3.136,4.869,4.68,8.104,3.421
		c3.097-1.203,4.686-4.803,3.474-7.875C32.47,9.375,28.867,7.813,25.688,9.053 M43.061,14.389c-0.207,1.503-0.388,3.009-0.634,4.506
		c-0.148,0.91-0.989,1.476-1.928,1.363c-0.705-0.084-1.407-0.192-2.107-0.306c-0.241-0.041-0.372,0.013-0.493,0.235
		c-0.612,1.114-1.404,2.095-2.366,2.936c-0.188,0.162-0.23,0.305-0.138,0.528c0.248,0.594,0.486,1.193,0.713,1.797
		c0.424,1.137,0.045,1.968-1.104,2.419c-1.129,0.444-2.26,0.886-3.395,1.318c-0.933,0.357-1.836,0.01-2.248-0.896
		c-0.291-0.639-0.537-1.301-0.786-1.956c-0.09-0.24-0.214-0.336-0.487-0.328c-1.282,0.034-2.536-0.156-3.75-0.563
		c-0.249-0.083-0.378-0.014-0.523,0.171c-0.406,0.521-0.823,1.033-1.245,1.543c-0.691,0.837-1.704,0.97-2.551,0.315
		c-1.004-0.772-1.995-1.557-2.98-2.351c-0.763-0.612-0.875-1.606-0.276-2.384c0.422-0.549,0.861-1.082,1.305-1.612
		c0.148-0.178,0.204-0.316,0.066-0.539c-0.68-1.09-1.149-2.267-1.401-3.526c-0.048-0.239-0.165-0.337-0.407-0.367
		c-0.676-0.084-1.349-0.189-2.02-0.296c-1.024-0.165-1.635-0.958-1.489-1.975c0.174-1.247,0.366-2.489,0.571-3.728
		c0.168-1.015,0.972-1.595,2.017-1.463c0.675,0.084,1.347,0.185,2.019,0.3c0.258,0.044,0.401-0.017,0.531-0.25
		c0.605-1.103,1.383-2.076,2.34-2.901c0.217-0.188,0.243-0.355,0.14-0.605c-0.259-0.609-0.5-1.22-0.732-1.838
		c-0.37-0.982,0.009-1.861,0.991-2.256c1.179-0.476,2.365-0.935,3.558-1.381c0.977-0.365,1.849,0.006,2.255,0.95
		c0.269,0.618,0.512,1.247,0.749,1.875c0.094,0.257,0.228,0.362,0.516,0.353c1.254-0.034,2.48,0.143,3.669,0.539
		c0.289,0.098,0.453,0.04,0.631-0.198c0.388-0.518,0.803-1.016,1.219-1.509c0.701-0.842,1.688-0.954,2.55-0.287
		c0.963,0.747,1.921,1.503,2.875,2.267c0.204,0.161,0.377,0.363,0.563,0.548c0.066,0.165,0.131,0.327,0.195,0.49
		c0.059,0.784-0.297,1.399-0.813,1.956c-0.249,0.271-0.437,0.597-0.703,0.849c-0.363,0.346-0.333,0.63-0.09,1.054
		c0.372,0.642,0.652,1.339,0.924,2.03c0.19,0.484,0.156,1.166,0.49,1.46c0.336,0.292,1.005,0.238,1.53,0.294
		c0.799,0.082,1.548,0.244,2.061,0.93C42.932,14.063,42.996,14.227,43.061,14.389"/>
	<path fill="#FFFFFF" d="M11.021,30.479c-2.091,0.809-3.12,3.099-2.314,5.149c0.79,2.016,3.159,3.042,5.192,2.253
		c2.112-0.822,3.142-3.115,2.324-5.184C15.428,30.683,13.08,29.681,11.021,30.479 M2.846,36.312
		c0.039-0.757,0.456-1.209,1.187-1.378c0.759-0.176,1.181-0.525,1.094-1.401c-0.048-0.484,0.149-1.005,0.285-1.495
		c0.068-0.252,0.048-0.407-0.17-0.56c-0.311-0.219-0.61-0.462-0.904-0.705c-0.585-0.486-0.654-1.059-0.189-1.651
		c0.483-0.612,0.974-1.22,1.472-1.816c0.477-0.57,1.089-0.635,1.683-0.189c0.377,0.281,0.719,0.753,1.124,0.808
		c0.395,0.054,0.843-0.327,1.279-0.491c0.387-0.144,0.797-0.229,1.178-0.385c0.141-0.058,0.294-0.227,0.33-0.371
		c0.097-0.395,0.126-0.809,0.2-1.209c0.122-0.65,0.615-1.027,1.278-0.946c0.837,0.105,1.671,0.227,2.5,0.372
		c0.646,0.111,0.981,0.588,0.908,1.24c-0.048,0.422-0.143,0.839-0.171,1.26c-0.01,0.136,0.087,0.321,0.196,0.413
		c0.599,0.493,1.209,0.972,1.831,1.437c0.114,0.084,0.318,0.136,0.447,0.097c0.396-0.119,0.772-0.298,1.162-0.437
		c0.669-0.239,1.245,0.017,1.509,0.669c0.299,0.734,0.589,1.468,0.876,2.206c0.242,0.626-0.004,1.209-0.631,1.48
		c-0.459,0.198-1.08,0.263-1.352,0.603c-0.252,0.315-0.129,0.918-0.19,1.391c-0.035,0.26-0.059,0.537-0.17,0.77
		c-0.235,0.498-0.076,0.809,0.371,1.072c0.25,0.147,0.469,0.352,0.692,0.543c0.478,0.414,0.565,0.992,0.189,1.49
		c-0.515,0.678-1.055,1.339-1.606,1.99c-0.413,0.485-1.037,0.541-1.553,0.165c-0.331-0.241-0.657-0.498-0.971-0.764
		c-0.182-0.151-0.326-0.16-0.555-0.063c-0.688,0.298-1.389,0.566-2.097,0.818c-0.222,0.077-0.347,0.165-0.372,0.41
		c-0.042,0.407-0.112,0.811-0.189,1.212c-0.123,0.641-0.633,1.016-1.29,0.932c-0.807-0.104-1.61-0.225-2.414-0.356
		c-0.702-0.114-1.057-0.584-0.977-1.273c0.056-0.492,0.309-1.054,0.146-1.452c-0.152-0.374-0.744-0.565-1.131-0.854
		c-0.212-0.157-0.438-0.318-0.59-0.526c-0.303-0.413-0.639-0.498-1.082-0.229c-0.124,0.073-0.28,0.096-0.409,0.165
		C5.107,39.65,4.5,39.605,3.946,39.087C3.581,38.161,3.213,37.237,2.846,36.312"/>
	<path fill="#FFFFFF" d="M7.941,22.861c1.326-0.506,1.984-1.932,1.489-3.225c-0.49-1.286-1.956-1.93-3.28-1.438
		c-1.293,0.477-1.971,1.978-1.463,3.244C5.196,22.709,6.663,23.35,7.941,22.861 M9.244,26.096c-0.233,0.09-0.465,0.188-0.704,0.27
		c-0.419,0.145-0.771,0.027-0.881-0.393c-0.177-0.674-0.555-0.873-1.254-0.974c-0.713-0.106-1.17-0.06-1.564,0.57
		c-0.232,0.369-0.615,0.375-0.972,0.112c-0.404-0.296-0.795-0.606-1.18-0.926c-0.362-0.303-0.432-0.695-0.087-1.028
		c0.483-0.476,0.444-0.869,0.21-1.485c-0.262-0.687-0.535-1.071-1.315-1.084c-0.406-0.007-0.6-0.35-0.55-0.755
		c0.059-0.495,0.133-0.987,0.222-1.473c0.082-0.458,0.378-0.73,0.806-0.609c0.711,0.201,1.067-0.07,1.51-0.612
		c0.447-0.549,0.621-0.961,0.268-1.594c-0.204-0.358-0.02-0.708,0.392-0.889c0.457-0.202,0.927-0.387,1.403-0.546
		c0.461-0.152,0.805-0.01,0.932,0.465c0.17,0.629,0.5,0.947,1.172,0.858c0.015-0.002,0.033-0.002,0.045,0.005
		c0.697,0.284,1.207,0.115,1.602-0.546c0.198-0.337,0.587-0.344,0.903-0.12c0.434,0.304,0.851,0.634,1.251,0.977
		c0.336,0.291,0.386,0.676,0.065,1.005c-0.451,0.465-0.479,0.838-0.219,1.474c0.286,0.685,0.546,1.093,1.34,1.103
		c0.396,0.007,0.568,0.363,0.532,0.732c-0.05,0.523-0.137,1.044-0.238,1.56c-0.08,0.414-0.387,0.656-0.814,0.534
		c-0.697-0.201-1.04,0.075-1.472,0.604c-0.437,0.539-0.66,0.938-0.296,1.587c0.226,0.402,0.035,0.717-0.401,0.904
		C9.719,25.922,9.48,26.006,9.244,26.096L9.244,26.096z"/>
</g>
</svg>
