<?xml version="1.0" encoding="utf-8"?>
<!-- Generator: Adobe Illustrator 16.0.0, SVG Export Plug-In . SVG Version: 6.00 Build 0)  -->
<!DOCTYPE svg PUBLIC "-//W3C//DTD SVG 1.1//EN" "http://www.w3.org/Graphics/SVG/1.1/DTD/svg11.dtd">
<svg version="1.1" id="Layer_1" xmlns="http://www.w3.org/2000/svg" xmlns:xlink="http://www.w3.org/1999/xlink" x="0px" y="0px"
	 width="72px" height="52px" viewBox="0 0 72 52" enable-background="new 0 0 72 52" xml:space="preserve">
<g>
	<path fill="#FFFFFF" d="M7.075,45.42c0.039-0.008,0.076-0.015,0.115-0.022V33.122c-0.104-0.017-0.211-0.03-0.314-0.047
		c-0.237,0.95-0.685,1.903-0.673,2.851c0.032,2.082,0.276,4.16,0.467,6.239C6.767,43.253,6.938,44.336,7.075,45.42 M0.98,35.053
		c0.437-1.289,0.805-2.605,1.321-3.864c1.163-2.819,2.359-5.628,3.632-8.399c0.264-0.579,0.82-1.17,1.392-1.441
		c1.516-0.721,3.112-1.268,4.774-1.923c0.803,2.874,1.23,5.802,2.429,8.483c0.076-0.005,0.151-0.012,0.227-0.017
		c0.07-0.405,0.159-0.809,0.21-1.217c0.153-1.218,0.319-2.434,0.42-3.658c0.042-0.53,0.306-0.862,0.764-0.871
		c0.487-0.012,0.715,0.395,0.771,0.88c0.178,1.513,0.365,3.025,0.549,4.535c0.016,0.104,0.055,0.207,0.178,0.331
		c0.772-1.263,1.08-2.697,1.453-4.098c0.372-1.404,0.696-2.821,1.075-4.374c0.897,0.358,1.755,0.683,2.591,1.061
		c0.068,0.031,0.04,0.444-0.042,0.638c-0.791,1.839-1.653,3.653-2.395,5.514c-0.733,1.837-1.453,3.692-1.981,5.597
		c-0.304,1.09-0.398,2.308-0.274,3.433c0.35,3.161,0.824,6.309,1.334,9.448c0.225,1.388,0.661,2.739,0.999,4.11
		c0.037,0.146,0.063,0.3,0.115,0.544h-0.786c-3.784,0.002-7.568,0-11.354,0.002c-1.005,0.001-1.005,0.004-1.044-0.971
		c-0.003-0.089-0.021-0.18-0.048-0.397c-0.888,0-1.789,0.005-2.689-0.003c-1.746-0.014-1.515,0.263-1.827-1.444
		c-0.552-3.017-0.986-6.053-1.461-9.084c-0.124-0.796-0.222-1.602-0.33-2.402V35.053z"/>
	<path fill="#FFFFFF" d="M65.01,33.103c-0.072,0.009-0.145,0.017-0.219,0.024V45.54c0.074-0.219,0.123-0.312,0.137-0.412
		c0.184-1.51,0.395-3.017,0.539-4.53c0.145-1.494,0.205-2.994,0.336-4.489C65.896,34.992,65.354,34.08,65.01,33.103 M71.02,35.327
		c-0.107,0.803-0.201,1.607-0.326,2.407c-0.473,3.03-0.902,6.068-1.445,9.084c-0.344,1.907-0.104,1.54-1.924,1.577
		c-0.82,0.016-1.641,0.016-2.459,0.026c-0.039,0.001-0.08,0.037-0.117,0.058c-0.258,1.28-0.258,1.283-1.633,1.284
		c-3.531,0.002-7.064-0.012-10.598,0.013c-0.646,0.004-0.727-0.15-0.611-0.785c0.59-3.262,1.137-6.533,1.652-9.811
		c0.23-1.457,0.422-2.929,0.5-4.398c0.043-0.823-0.068-1.691-0.307-2.48c-1.143-3.823-2.656-7.508-4.375-11.108
		c-0.096-0.201-0.176-0.411-0.299-0.695c0.914-0.361,1.791-0.704,2.732-1.075c0.805,2.877,1.207,5.802,2.432,8.471
		c0.084-0.011,0.166-0.022,0.248-0.032c0.148-1.183,0.299-2.362,0.443-3.547c0.059-0.473,0.027-0.979,0.186-1.413
		c0.113-0.306,0.461-0.699,0.738-0.729c0.4-0.049,0.701,0.272,0.752,0.782c0.156,1.538,0.357,3.07,0.547,4.604
		c0.01,0.105,0.068,0.199,0.199,0.315c1.34-2.642,1.729-5.571,2.537-8.438c0.727,0.279,1.404,0.535,2.076,0.795
		c0.68,0.264,1.361,0.525,2.037,0.795c1.004,0.403,1.752,1.085,2.234,2.065c1.857,3.789,3.492,7.663,4.631,11.735
		c0.025,0.083,0.098,0.151,0.148,0.226V35.327z"/>
	<path fill="#FFFFFF" d="M45.678,44.824c0.063-0.214,0.15-0.403,0.166-0.597c0.287-3.148,0.637-6.292,0.799-9.446
		c0.049-0.948-0.443-1.923-0.688-2.886c-0.094,0.018-0.186,0.037-0.277,0.054V44.824z M26.37,45.479
		c0.017-0.012,0.035-0.022,0.053-0.033V31.821c-0.098-0.012-0.192-0.025-0.289-0.037c-0.251,0.997-0.686,1.992-0.711,2.995
		c-0.041,1.629,0.157,3.269,0.311,4.9C25.914,41.614,26.156,43.545,26.37,45.479 M31.726,16.939
		c0.849,3.119,1.343,6.247,2.591,9.146c0.059-0.006,0.12-0.012,0.18-0.017c0.189-1.544,0.375-3.086,0.571-4.629
		c0.048-0.38,0.038-0.814,0.224-1.117c0.147-0.237,0.655-0.506,0.829-0.416c0.335,0.167,0.721,0.551,0.776,0.896
		c0.257,1.615,0.41,3.251,0.603,4.878c0.016,0.126,0.057,0.251,0.162,0.386c1.318-2.885,1.814-6.001,2.631-9.104
		c0.783,0.302,1.518,0.585,2.25,0.87c0.678,0.266,1.346,0.563,2.033,0.801c1.363,0.47,2.271,1.388,2.887,2.681
		c1.699,3.555,3.207,7.187,4.447,10.932c0.387,1.172,0.42,2.319,0.326,3.499c-0.318,4.074-1.053,8.077-1.902,12.067
		c-0.1,0.477-0.311,0.655-0.826,0.641c-1.293-0.045-2.584-0.017-3.918-0.017c-0.021,0.479-0.041,0.881-0.066,1.326H26.652
		c-0.025-0.407-0.053-0.827-0.084-1.323c-1.344,0-2.661-0.025-3.975,0.014c-0.528,0.014-0.752-0.15-0.866-0.678
		c-0.934-4.276-1.711-8.577-1.943-12.951c-0.047-0.882,0.153-1.814,0.422-2.665c1.249-3.955,2.85-7.772,4.696-11.488
		c0.398-0.809,1.017-1.401,1.839-1.743C28.357,18.259,29.989,17.629,31.726,16.939"/>
	<path fill="#FFFFFF" d="M41.17,7.646c-0.217,2.144-0.857,4.447-2.383,6.414c-1.672,2.15-3.901,2.2-5.53,0.031
		c-1.716-2.281-2.713-4.877-2.298-7.771c0.366-2.552,2.893-4.323,5.493-4.072C39.18,2.511,41.199,4.69,41.17,7.646"/>
	<path fill="#FFFFFF" d="M60.559,10.641c-0.258,2.109-0.852,4.317-2.391,6.144c-1.4,1.667-3.225,1.731-4.609,0.063
		c-1.775-2.142-2.74-4.657-2.322-7.459c0.346-2.347,2.6-3.831,4.838-3.646C58.785,5.964,60.568,7.928,60.559,10.641"/>
	<path fill="#FFFFFF" d="M20.864,10.94c-0.161,1.749-0.788,3.892-2.232,5.714c-1.495,1.882-3.53,1.84-4.984-0.077
		c-1.345-1.77-2.023-3.82-2.189-6.01c-0.182-2.361,1.549-4.349,3.996-4.752C18.598,5.297,20.999,7.884,20.864,10.94"/>
</g>
</svg>
