<?xml version="1.0" encoding="utf-8"?>
<!-- Generator: Adobe Illustrator 16.0.3, SVG Export Plug-In . SVG Version: 6.00 Build 0)  -->
<!DOCTYPE svg PUBLIC "-//W3C//DTD SVG 1.1//EN" "http://www.w3.org/Graphics/SVG/1.1/DTD/svg11.dtd">
<svg version="1.1" id="Layer_1" xmlns="http://www.w3.org/2000/svg" xmlns:xlink="http://www.w3.org/1999/xlink" x="0px" y="0px"
	 width="12.214px" height="9.202px" viewBox="0 0 12.214 9.202" enable-background="new 0 0 12.214 9.202" xml:space="preserve">
<g>
	<polygon fill="#FFFFFF" points="9.104,4.121 12.006,6.682 12.006,2.961 	"/>
	<path fill="#FFFFFF" d="M6.175,4.212l5.832-2.328V1.776c0-0.78-0.638-1.418-1.417-1.418H1.761c-0.779,0-1.417,0.638-1.417,1.418
		v0.108L6.175,4.212z"/>
	<polygon fill="#FFFFFF" points="0.344,2.962 0.344,6.683 3.247,4.121 	"/>
	<path fill="#FFFFFF" d="M8.063,4.536L6.36,5.216C6.3,5.239,6.237,5.251,6.174,5.251c-0.062,0-0.126-0.012-0.185-0.035l-1.7-0.679
		l-3.877,3.42C0.589,8.536,1.125,8.963,1.76,8.963h8.829c0.636,0,1.172-0.428,1.349-1.008L8.063,4.536z"/>
</g>
</svg>
