<?xml version="1.0" encoding="utf-8"?>
<!-- Generator: Adobe Illustrator 16.0.3, SVG Export Plug-In . SVG Version: 6.00 Build 0)  -->
<!DOCTYPE svg PUBLIC "-//W3C//DTD SVG 1.1//EN" "http://www.w3.org/Graphics/SVG/1.1/DTD/svg11.dtd">
<svg version="1.1" id="Layer_1" xmlns="http://www.w3.org/2000/svg" xmlns:xlink="http://www.w3.org/1999/xlink" x="0px" y="0px"
	 width="9.75px" height="9.917px" viewBox="0 0 9.75 9.917" enable-background="new 0 0 9.75 9.917" xml:space="preserve">
<path fill="#FFFFFF" d="M2.629,7.167c0.689,0.688,2.16,1.939,3.707,2.193c1.547,0.251,2.635-0.458,2.84-1.482
	C9.38,6.852,8.608,6.852,8.608,6.852L6.794,6.411c0,0-0.301-0.016-0.505,0.378c-0.205,0.395-0.618,1.06-2.48-0.8
	C1.948,4.126,2.613,3.713,3.008,3.508c0.393-0.204,0.377-0.504,0.377-0.504L2.944,1.188c0,0-0.001-0.772-1.025-0.567
	c-1.026,0.203-1.734,1.292-1.482,2.84C0.689,5.007,1.94,6.478,2.629,7.167"/>
</svg>
