<?xml version="1.0" encoding="utf-8"?>
<!-- Generator: Adobe Illustrator 16.0.0, SVG Export Plug-In . SVG Version: 6.00 Build 0)  -->
<!DOCTYPE svg PUBLIC "-//W3C//DTD SVG 1.1//EN" "http://www.w3.org/Graphics/SVG/1.1/DTD/svg11.dtd">
<svg version="1.1" id="Layer_1" xmlns="http://www.w3.org/2000/svg" xmlns:xlink="http://www.w3.org/1999/xlink" x="0px" y="0px"
	 width="24px" height="24px" viewBox="0 0 24 24" enable-background="new 0 0 24 24" xml:space="preserve">
<g>
	<polygon fill="#FFFFFF" points="13.917,22.758 17.028,19.65 19.28,24 20.919,23.15 18.75,18.963 22.945,18.963 13.917,10.683 	"/>
	<path fill="#FFFFFF" d="M23.155,13.277c0.022-0.115,0.04-0.229,0.054-0.346c0.01-0.063,0.019-0.127,0.027-0.188
		c0.014-0.11,0.026-0.224,0.039-0.332c0.005-0.088,0.014-0.175,0.02-0.262c0.009-0.089,0.013-0.178,0.018-0.27
		c0.009-0.183,0.014-0.366,0.014-0.55c0-0.181-0.005-0.359-0.014-0.537c-0.005-0.111-0.014-0.222-0.021-0.334
		c-0.004-0.057-0.004-0.117-0.015-0.177c-0.008-0.142-0.03-0.284-0.049-0.426c0-0.022-0.005-0.045-0.009-0.066
		c-0.018-0.151-0.04-0.297-0.066-0.447c-0.005-0.009-0.005-0.018-0.005-0.029c0,0,0,0-0.005,0
		c-0.891-4.968-5.014-8.811-10.118-9.269c-0.009,0-0.019,0-0.022,0c-0.155-0.013-0.313-0.027-0.469-0.033
		C12.352,0.004,12.178,0,12,0s-0.354,0.004-0.527,0.015c-0.161,0.006-0.317,0.02-0.474,0.033c-0.005,0-0.014,0-0.022,0
		C5.873,0.506,1.746,4.349,0.855,9.316c0,0.011-0.003,0.02-0.005,0.029c-0.026,0.15-0.051,0.296-0.069,0.447
		C0.776,9.813,0.774,9.836,0.772,9.858C0.754,10,0.734,10.142,0.723,10.284c-0.007,0.06-0.01,0.12-0.014,0.177
		c-0.009,0.112-0.018,0.223-0.022,0.334c-0.009,0.178-0.014,0.356-0.014,0.537c0,0.179,0.005,0.358,0.014,0.536
		c0.005,0.117,0.014,0.233,0.022,0.351c0.004,0.053,0.007,0.105,0.014,0.158c0.011,0.146,0.031,0.293,0.049,0.439
		c0.002,0.019,0.004,0.035,0.007,0.05c0.021,0.159,0.045,0.317,0.076,0.471c0,0.002,0,0.005,0,0.007
		c0.831,4.643,4.49,8.299,9.129,9.131v0.004c0.036,0.006,0.071,0.011,0.107,0.015c0.107,0.021,0.209,0.034,0.317,0.052
		c0.071,0.012,0.143,0.02,0.219,0.025c0.099,0.015,0.197,0.025,0.299,0.035c0.095,0.011,0.193,0.016,0.291,0.023
		c0.081,0.004,0.161,0.01,0.236,0.014c0.184,0.01,0.362,0.017,0.546,0.017h0.031v-0.104v-2.537c-0.009,0-0.018,0.004-0.031,0.004
		c-0.505,0-1.001-0.047-1.484-0.129c-0.375-1.14-0.715-2.64-0.929-4.494c0.781,0.05,1.586,0.076,2.413,0.076h0.031v-1.508H12
		c-0.902,0-1.757-0.031-2.553-0.083c-0.053-0.797-0.08-1.646-0.08-2.55c0-0.903,0.027-1.755,0.08-2.551
		c0.796-0.056,1.65-0.084,2.553-0.084s1.751,0.029,2.548,0.082c0,0.049,0.004,0.089,0.008,0.137
		c0.232,0.081,0.451,0.211,0.636,0.382l0.931,0.852c-0.015-0.417-0.037-0.826-0.06-1.23c1.854,0.212,3.356,0.555,4.496,0.928
		c0.085,0.483,0.13,0.977,0.13,1.485c0,0.506-0.049,1-0.13,1.483c-0.354,0.115-0.746,0.227-1.166,0.334l0.885,0.813c0,0,0,0,0,0.002
		l2.097,1.921c0.354-0.804,0.611-1.654,0.769-2.539c0-0.004,0-0.004,0.005-0.004C23.146,13.32,23.155,13.3,23.155,13.277
		 M8.794,3.257C8.473,4.469,8.223,5.868,8.062,7.391C6.539,7.552,5.139,7.803,3.928,8.126C4.809,5.908,6.579,4.14,8.794,3.257
		 M8.794,19.405c-2.216-0.886-3.985-2.654-4.87-4.872c1.215,0.324,2.609,0.574,4.138,0.734C8.223,16.795,8.473,18.191,8.794,19.405
		 M7.932,13.742c-1.854-0.211-3.352-0.555-4.492-0.926c-0.083-0.482-0.129-0.979-0.129-1.484c0-0.508,0.046-1.002,0.132-1.485
		c1.138-0.373,2.635-0.716,4.489-0.928c-0.049,0.782-0.075,1.588-0.075,2.413C7.857,12.158,7.883,12.961,7.932,13.742 M12,7.188
		c-0.827,0-1.632,0.028-2.413,0.076C9.8,5.41,10.14,3.911,10.515,2.771c0.483-0.083,0.979-0.13,1.484-0.13
		c0.504,0,0.997,0.046,1.479,0.128c0.37,1.14,0.715,2.639,0.93,4.495C13.626,7.216,12.822,7.188,12,7.188 M15.937,7.391
		c-0.161-1.523-0.411-2.922-0.732-4.134c2.217,0.883,3.986,2.651,4.866,4.87C18.86,7.803,17.46,7.552,15.937,7.391"/>
</g>
</svg>
