<?xml version="1.0" encoding="utf-8"?>
<!-- Generator: Adobe Illustrator 16.0.3, SVG Export Plug-In . SVG Version: 6.00 Build 0)  -->
<!DOCTYPE svg PUBLIC "-//W3C//DTD SVG 1.1//EN" "http://www.w3.org/Graphics/SVG/1.1/DTD/svg11.dtd">
<svg version="1.1" id="Layer_1" xmlns="http://www.w3.org/2000/svg" xmlns:xlink="http://www.w3.org/1999/xlink" x="0px" y="0px"
	 width="10.521px" height="10.584px" viewBox="0 0 10.521 10.584" enable-background="new 0 0 10.521 10.584" xml:space="preserve">
<path fill="#FFFFFF" d="M5.236,8.899c2.002,0.003,3.649-1.638,3.647-3.632C8.881,3.281,7.256,1.656,5.258,1.641
	c-1.992-0.016-3.65,1.622-3.663,3.619C1.583,7.244,3.237,8.898,5.236,8.899 M2.294,0.931C2.925,0.664,3.539,0.403,4.162,0.14
	c0.17,0.275,0.322,0.539,0.494,0.789c0.045,0.066,0.151,0.108,0.236,0.126c0.604,0.129,0.993-0.118,1.194-0.691
	c0.028-0.078,0.086-0.144,0.146-0.24c0.619,0.249,1.235,0.497,1.873,0.754C8.036,1.181,7.972,1.474,7.903,1.767
	C7.896,1.799,7.875,1.831,7.872,1.863C7.857,2.028,8.533,2.603,8.696,2.561C8.983,2.486,9.27,2.409,9.582,2.327
	c0.263,0.614,0.524,1.226,0.797,1.863C10.117,4.352,9.854,4.5,9.607,4.675C9.529,4.731,9.474,4.851,9.452,4.949
	c-0.125,0.579,0.111,0.957,0.672,1.145c0.251,0.085,0.264,0.232,0.155,0.466C10.07,7.013,9.894,7.479,9.717,7.945
	C9.66,8.094,9.598,8.144,9.438,8.094C9.236,8.031,9.022,8.006,8.82,7.941c-0.175-0.057-0.306-0.042-0.414,0.12
	C8.361,8.131,8.303,8.203,8.233,8.246C7.908,8.439,7.915,8.707,8.027,9.018c0.065,0.181,0.102,0.373,0.16,0.59
	c-0.619,0.264-1.23,0.523-1.866,0.795c-0.153-0.249-0.313-0.486-0.449-0.734c-0.085-0.16-0.19-0.224-0.365-0.185
	C5.475,9.491,5.438,9.494,5.405,9.487c-0.481-0.11-0.757,0.113-0.925,0.541c-0.052,0.132-0.145,0.246-0.23,0.39
	c-0.623-0.252-1.24-0.5-1.875-0.756C2.443,9.365,2.507,9.088,2.571,8.81C2.581,8.769,2.6,8.729,2.604,8.688
	c0.017-0.193-0.647-0.749-0.836-0.7C1.627,8.023,1.489,8.063,1.35,8.1C1.21,8.135,1.071,8.168,0.896,8.209
	c-0.263-0.613-0.525-1.23-0.794-1.861C0.367,6.186,0.62,6.033,0.869,5.875c0.06-0.039,0.15-0.098,0.152-0.151
	C1.035,5.445,1.032,5.166,1.02,4.887C1.017,4.84,0.937,4.79,0.883,4.756C0.624,4.598,0.361,4.444,0.087,4.281
	c0.24-0.595,0.47-1.175,0.712-1.749C0.821,2.48,0.945,2.436,1.013,2.446c0.24,0.044,0.475,0.129,0.716,0.165
	c0.095,0.014,0.211-0.047,0.303-0.097c0.063-0.034,0.098-0.122,0.16-0.161c0.364-0.228,0.392-0.535,0.242-0.902
	C2.37,1.297,2.345,1.127,2.294,0.931"/>
<path fill="#FFFFFF" d="M5.204,5.906v0.423c0,0.55,0.002,1.101-0.001,1.651C5.202,8.296,5.048,8.475,4.785,8.479
	c-0.28,0.004-0.438-0.17-0.438-0.502c-0.002-0.687,0-1.373,0-2.083C3.996,5.809,3.978,5.54,3.985,5.242
	C3.999,4.785,3.994,4.327,3.986,3.87c-0.003-0.212,0.04-0.394,0.261-0.472c0.267-0.095,0.536-0.005,0.675,0.207
	C4.939,3.632,4.961,3.658,4.991,3.7c0.042-0.051,0.082-0.092,0.112-0.138C5.137,3.514,5.162,3.46,5.189,3.409
	C4.671,3.163,4.511,2.927,4.602,2.54c0.07-0.301,0.352-0.495,0.691-0.478c0.322,0.015,0.559,0.243,0.604,0.58
	c0.047,0.343-0.143,0.585-0.615,0.757c0.06,0.099,0.116,0.194,0.205,0.344C5.6,3.376,5.849,3.348,6.133,3.381
	C6.354,3.407,6.48,3.523,6.482,3.74c0.009,0.584,0.013,1.169-0.006,1.753c-0.003,0.113-0.096,0.275-0.191,0.32
	C6.129,5.885,6.127,5.981,6.127,6.112c0.004,0.626,0.003,1.253,0.002,1.88C6.127,8.314,5.984,8.479,5.71,8.479
	c-0.268,0-0.419-0.166-0.422-0.49C5.283,7.388,5.287,6.786,5.287,6.186V5.913C5.259,5.911,5.23,5.908,5.204,5.906"/>
</svg>
