<?xml version="1.0" encoding="utf-8"?>
<!-- Generator: Adobe Illustrator 16.0.3, SVG Export Plug-In . SVG Version: 6.00 Build 0)  -->
<!DOCTYPE svg PUBLIC "-//W3C//DTD SVG 1.1//EN" "http://www.w3.org/Graphics/SVG/1.1/DTD/svg11.dtd">
<svg version="1.1" id="Layer_1" xmlns="http://www.w3.org/2000/svg" xmlns:xlink="http://www.w3.org/1999/xlink" x="0px" y="0px"
	 width="17.25px" height="23.563px" viewBox="0 0 17.25 23.563" enable-background="new 0 0 17.25 23.563" xml:space="preserve">
<path fill="#FFFFFF" d="M9.142,14.714H8.156v0.272c0,2.414,0.001,4.826,0,7.242c-0.001,0.584-0.329,0.977-0.871,1.049
	c-0.501,0.066-1.004-0.319-1.065-0.819c-0.013-0.091-0.013-0.183-0.013-0.274c0-5.002-0.001-10.004,0.006-15.007
	c0-0.23-0.066-0.365-0.261-0.495C4.217,5.515,2.49,4.338,0.763,3.163c-0.4-0.273-0.519-0.635-0.332-0.995
	c0.224-0.433,0.678-0.545,1.105-0.261c0.749,0.498,1.493,1.004,2.241,1.507c0.999,0.673,2.001,1.342,2.997,2.022
	c0.21,0.144,0.417,0.246,0.675,0.205c0.168-0.026,0.241,0.073,0.346,0.19c0.427,0.475,0.281,1.026,0.244,1.562
	c-0.078,1.17-0.166,2.339-0.26,3.507c-0.015,0.186,0.038,0.313,0.173,0.438c0.2,0.184,0.382,0.391,0.587,0.606
	c0.266-0.266,0.51-0.505,0.744-0.754c0.038-0.041,0.045-0.126,0.041-0.19C9.23,9.672,9.163,8.34,9.021,7.016
	C8.962,6.48,9.132,6.09,9.472,5.732c0.057-0.06,0.176-0.096,0.26-0.086c0.34,0.038,0.609-0.081,0.888-0.271
	c1.708-1.164,3.426-2.313,5.141-3.469c0.258-0.173,0.522-0.214,0.795-0.057c0.264,0.153,0.414,0.383,0.392,0.697
	c-0.018,0.283-0.188,0.468-0.414,0.621c-1.452,0.983-2.903,1.97-4.354,2.955c-0.297,0.202-0.589,0.411-0.892,0.602
	c-0.145,0.091-0.2,0.191-0.199,0.366c0.007,3.282,0.004,6.564,0.004,9.845c0,1.789,0.003,3.578-0.003,5.367
	c-0.001,0.49-0.322,0.871-0.785,0.959c-0.453,0.088-0.912-0.143-1.081-0.572c-0.062-0.157-0.077-0.342-0.077-0.514
	c-0.004-2.391-0.003-4.781-0.003-7.172V14.714z"/>
<path fill="#FFFFFF" d="M8.646,4.566c-1.158-0.001-2.1-0.936-2.104-2.091C6.54,1.328,7.485,0.38,8.638,0.373
	c1.163-0.006,2.12,0.946,2.116,2.106C10.751,3.631,9.805,4.567,8.646,4.566"/>
</svg>
