<svg xmlns="http://www.w3.org/2000/svg" xmlns:xlink="http://www.w3.org/1999/xlink" width="65" height="57" viewBox="0 0 65 57">
  <defs>
    <style>
      .cls-1 {
        fill: none;
        stroke: #0d83dd;
        stroke-width: 1px;
        fill-rule: evenodd;
      }
    </style>
    <clipPath id="clip-path">
      <rect x="-0.141" width="65" height="57"/>
    </clipPath>
  </defs>
  <g clip-path="url(#clip-path)">
    <path id="personality.svg" class="cls-1" d="M25.907,12.4a4.656,4.656,0,1,1-4.675,4.656A4.667,4.667,0,0,1,25.907,12.4ZM36.069,31.412a2.986,2.986,0,1,1-3,2.986A2.989,2.989,0,0,1,36.069,31.412Zm16.436-6.829C56.273,6.217,41.292-2.188,24.663.458S8.658,13.118,7.679,17.9C5.731,29.88,18.116,43.27,18.116,43.27L17.41,57.193H37.577l1.543-6.4S40,52.252,45.2,52.694s4.577-5.9,4.577-5.9,3.47-1.525,3.47-2.667-2.053-2.62-2.053-2.62,2.209,0.4,3.006-.53-0.975-4.269-.975-4.269a6.726,6.726,0,0,0,4.325-1.827C59.158,33.131,52.506,27.932,52.506,24.584ZM23.7,27.094s-0.114-1.241-.169-1.861a9.67,9.67,0,0,1-1.448-.515L20.44,26.107s-0.188.1-.28,0.155-1.84-.155-1.84-0.155l-3-3.533v-2.11S16.47,19.49,17.047,19a7.681,7.681,0,0,1-.235-1.452l-2.269-1.032-0.607-1.758,0.07-.287,1.939-4.209L18,9.726l1.956,0.89a9.322,9.322,0,0,1,1.281-.868C21.167,8.964,21.04,7.4,21.04,7.4l1.5-1.492,4.631-.373,1.5,1.495s0.1,1.191.145,1.785a9.958,9.958,0,0,1,1.725.641c0.5-.429,1.506-1.286,1.506-1.286h2.121L37.2,11.682v2.111s-1.228,1.046-1.842,1.571a8.1,8.1,0,0,1,.161,1.309l2.324,1.338,0.538,2.043L36.054,24.06,34,24.6l-1.807-1.038a9.126,9.126,0,0,1-1.082.713c0.072,0.8.218,2.4,0.218,2.4l-1.5,1.494-4.625.42Zm18.87,11.795-1.316.344s-0.771-.445-1.16-0.666a5.624,5.624,0,0,1-.7.457l0.14,1.541-0.96.956-2.967.271-0.962-.958s-0.074-.8-0.109-1.194a6.225,6.225,0,0,1-.927-0.332l-1.057.892s-0.121.066-.179,0.1a11.756,11.756,0,0,1-1.181-.1l-1.927-2.27V36.577l1.11-.939a5.01,5.01,0,0,1-.149-0.932c-0.487-.219-1.456-0.662-1.456-0.662l-0.39-1.126,0.044-.186,1.243-2.7L31,29.69s0.835,0.38,1.253.571a5.946,5.946,0,0,1,.822-0.558c-0.04-.5-0.121-1.51-0.121-1.51l0.96-.957L36.881,27l0.962,0.958s0.06,0.762.092,1.144a6.534,6.534,0,0,1,1.107.413l0.966-.827h1.362l1.943,2.258V32.3l-1.181,1.01a4.986,4.986,0,0,1,.1.84l1.492,0.857,0.344,1.312Z" transform="translate(-0.141)"/>
  </g>
</svg>
