<svg xmlns="http://www.w3.org/2000/svg" xmlns:xlink="http://www.w3.org/1999/xlink" width="65" height="57" viewBox="0 0 65 57">
  <defs>
    <style>
      .cls-1 {
        fill: none;
        stroke: #0d83dd;
        stroke-width: 1px;
        fill-rule: evenodd;
      }
    </style>
    <clipPath id="clip-path">
      <rect x="-0.5" y="-0.266" width="65" height="57"/>
    </clipPath>
  </defs>
  <g clip-path="url(#clip-path)">
    <path id="team.svg" class="cls-1" d="M50.266,14.7a5.073,5.073,0,1,0,5.073-5.06A5.072,5.072,0,0,0,50.266,14.7Zm10.265,6.739-1.29-.395a1.521,1.521,0,0,0-1.353.235l-2.549,1.9-2.549-1.9a1.518,1.518,0,0,0-1.353-.235l-1.29.395a5.01,5.01,0,0,0-3.439,4.758v7.649a1.506,1.506,0,0,0,.249.83l2.572,3.9V48.827a1.514,1.514,0,0,0,1.516,1.512h8.586a1.514,1.514,0,0,0,1.516-1.512V38.575l2.572-3.9a1.5,1.5,0,0,0,.249-0.83V26.192A5.01,5.01,0,0,0,60.531,21.434ZM10.658,19.755A5.06,5.06,0,1,0,5.584,14.7,5.072,5.072,0,0,0,10.658,19.755Zm5.192,1.679-1.29-.395a1.521,1.521,0,0,0-1.353.235l-2.549,1.9-2.549-1.9a1.519,1.519,0,0,0-1.353-.235l-1.29.395a5.01,5.01,0,0,0-3.438,4.758v7.649a1.506,1.506,0,0,0,.249.83l2.572,3.9V48.827a1.514,1.514,0,0,0,1.516,1.512h8.587a1.514,1.514,0,0,0,1.516-1.512V38.575l2.572-3.9a1.509,1.509,0,0,0,.249-0.83V26.192A5.01,5.01,0,0,0,15.85,21.434ZM39.543,7.565A6.544,6.544,0,1,0,33,14.091,6.542,6.542,0,0,0,39.543,7.565Zm0.644,9.689-0.011,0-1.867-.571a0.58,0.58,0,0,0-.715.355L33.665,27.78a0.71,0.71,0,0,1-1.333,0L28.405,17.034a0.579,0.579,0,0,0-.544-0.381c-0.056,0-2.036.6-2.036,0.6a5.783,5.783,0,0,0-3.98,5.493V34.11a0.577,0.577,0,0,0,.1.317l4.1,6.219V56.382a0.579,0.579,0,0,0,.58.579H39.38a0.579,0.579,0,0,0,.58-0.579V40.646l4.1-6.219a0.577,0.577,0,0,0,.1-0.317v-11.4A5.745,5.745,0,0,0,40.186,17.254Zm-5.653-.226a0.866,0.866,0,0,0-.64-0.265H32.1a0.866,0.866,0,0,0-.64.265,0.826,0.826,0,0,0-.109.975l0.957,1.438-0.448,3.768,0.882,2.34a0.27,0.27,0,0,0,.506,0l0.882-2.34-0.448-3.768L34.643,18A0.826,0.826,0,0,0,34.533,17.027Z" transform="translate(-0.5 -0.266)"/>
  </g>
</svg>
