<svg xmlns="http://www.w3.org/2000/svg" xmlns:xlink="http://www.w3.org/1999/xlink" width="65" height="57" viewBox="0 0 65 57">
  <defs>
    <style>
      .cls-1 {
        fill: none;
        stroke: #0d83dd;
        stroke-width: 1px;
        fill-rule: evenodd;
      }
    </style>
    <clipPath id="clip-path">
      <rect x="-0.25" y="-0.5" width="65" height="57"/>
    </clipPath>
  </defs>
  <g clip-path="url(#clip-path)">
    <path id="values.svg" class="cls-1" d="M64.983,11.71V30.973s-4.144.813-5,.919-3.526.966-5.464-.888c-2.989-2.85-13.61-13.357-13.61-13.357S39.08,15.86,36.14,17.4c-2.7,1.415-6.7,3.489-8.372,4.3a3.847,3.847,0,0,1-5.777-3,3.912,3.912,0,0,1,2.39-3.415c3.811-2.3,11.842-6.783,15.188-8.551,2.033-1.076,3.5-1.168,6.29,1.172,3.438,2.876,6.5,5.5,6.5,5.5a3.193,3.193,0,0,0,2.59.495C58.854,13.076,64.983,11.71,64.983,11.71ZM22.711,44.35a3.511,3.511,0,0,0-.644-3.793,3.581,3.581,0,0,0-3.413-.859,3.459,3.459,0,0,0-.737-3.427,3.582,3.582,0,0,0-3.413-.859,3.454,3.454,0,0,0-.739-3.422,3.869,3.869,0,0,0-5.4.141c-1.578,1.506-2.588,4.235-1.18,5.841s3.021,0.625,4.252.346c-0.343,1.216-1.369,2.346-.105,3.937s3.021,0.626,4.253.35c-0.344,1.211-1.325,2.455-.11,3.929s3.235,0.691,4.562.281c-0.512,1.309-1.607,2.721-.2,4.3s4.655,0.856,6.241-.65a3.751,3.751,0,0,0,.343-5.322A3.618,3.618,0,0,0,22.711,44.35ZM51.666,34.328c-11.472-11.412-6.076-6.042-12.249-12.2a4.036,4.036,0,0,0-4.3-.77c-1.717.748-3.927,1.768-5.59,2.547a9.252,9.252,0,0,1-3.76,1.244A6.339,6.339,0,0,1,22.4,13.408c2.549-1.755,8.417-4.86,8.417-4.86A7.382,7.382,0,0,0,25.11,6.3c-3.915,0-12.093,5.33-12.093,5.33a6.423,6.423,0,0,1-5.628.147L1.014,9.563V31.607S2.835,32.131,4.47,32.8a7.236,7.236,0,0,1,1.792-2.815,7.079,7.079,0,0,1,9.679-.069,6.065,6.065,0,0,1,1.528,2.7,6.187,6.187,0,0,1,2.62,1.588,6.056,6.056,0,0,1,1.53,2.695,6.213,6.213,0,0,1,4.238,4.543,6.283,6.283,0,0,1,2.733,1.63,6.392,6.392,0,0,1,1.691,5.557,0.01,0.01,0,0,1,.01,0c0.024,0.031.919,1.024,1.477,1.584a2.828,2.828,0,0,0,3.977,0,2.8,2.8,0,0,0,0-3.956c-0.039-.039-3.946-4.1-3.632-4.419S37.4,46.676,37.5,46.77a2.829,2.829,0,0,0,3.974,0,2.793,2.793,0,0,0,0-3.954c-0.054-.051-0.278-0.265-0.361-0.35,0,0-4.935-4.373-4.559-4.747s6.51,5.315,6.52,5.315a2.814,2.814,0,0,0,3.859-.076,2.766,2.766,0,0,0,.139-3.742c-0.019-.058-4.672-4.895-4.309-5.259s4.972,4.347,4.981,4.357a2.83,2.83,0,0,0,3.974,0,2.8,2.8,0,0,0,0-3.958Z" transform="translate(-0.25 -0.5)"/>
  </g>
</svg>
