<?xml version="1.0" encoding="utf-8"?>
<!-- Generator: Adobe Illustrator 16.0.0, SVG Export Plug-In . SVG Version: 6.00 Build 0)  -->
<!DOCTYPE svg PUBLIC "-//W3C//DTD SVG 1.1//EN" "http://www.w3.org/Graphics/SVG/1.1/DTD/svg11.dtd">
<svg version="1.1" id="Layer_1" xmlns="http://www.w3.org/2000/svg" xmlns:xlink="http://www.w3.org/1999/xlink" x="0px" y="0px"
	 width="70px" height="65px" viewBox="0 0 70 65" enable-background="new 0 0 70 65" xml:space="preserve">
<path display="none" fill="none" stroke="#FFFFFF" stroke-width="0.844" stroke-linecap="round" stroke-linejoin="round" d="
	M40.814,37.014v-26.36H35.26L23.867,22.037l4.891,4.677l1.472-1.464c1.423-1.417,2.659-2.977,2.706-2.977h0.047
	c0.048,0-0.14,3.211-0.14,5.526v9.214h-5.676v6.704h18.967v-6.704H40.814z M13.725,6.944c-5.446,5.417-8.813,12.902-8.813,21.17
	c0,16.536,13.47,29.94,30.089,29.94 M12.4,8.347c-0.083,0-0.167-0.023-0.245-0.068c-0.778-0.462-1.264-1.081-1.402-1.789
	c-0.138-0.708,0.077-1.464,0.627-2.183c0.147-0.192,0.413-0.243,0.62-0.12c0.781,0.46,1.266,1.08,1.405,1.788
	c0.138,0.711-0.08,1.463-0.627,2.183C12.684,8.281,12.542,8.347,12.4,8.347z M15.11,9.428c-0.139,0.027-0.282,0.042-0.426,0.042
	c-0.588,0-1.183-0.224-1.767-0.665c-0.192-0.144-0.244-0.411-0.121-0.618c0.464-0.776,1.086-1.257,1.798-1.397
	c0.713-0.138,1.467,0.077,2.193,0.624c0.192,0.146,0.246,0.412,0.122,0.619C16.445,8.808,15.823,9.29,15.11,9.428z M8.66,13.865
	c-0.083,0-0.167-0.021-0.243-0.066c-0.78-0.462-1.265-1.08-1.404-1.791C6.875,11.3,7.09,10.546,7.64,9.826
	c0.146-0.192,0.413-0.243,0.62-0.12c0.781,0.462,1.266,1.082,1.404,1.79c0.139,0.709-0.078,1.464-0.626,2.184
	C8.944,13.801,8.802,13.865,8.66,13.865z M9.056,13.707c0.464-0.775,1.084-1.259,1.798-1.396c0.713-0.14,1.467,0.073,2.194,0.623
	c0.192,0.145,0.244,0.412,0.121,0.616c-0.465,0.778-1.087,1.262-1.798,1.398c-0.14,0.026-0.284,0.042-0.427,0.042
	c-0.588,0-1.183-0.225-1.766-0.665C8.983,14.179,8.933,13.914,9.056,13.707z M5.938,20.015c-0.022,0-0.045-0.001-0.067-0.004
	c-0.898-0.129-1.585-0.513-1.988-1.115c-0.401-0.602-0.492-1.382-0.263-2.256c0.062-0.232,0.291-0.381,0.527-0.347
	c0.898,0.129,1.584,0.514,1.987,1.115c0.4,0.603,0.491,1.382,0.263,2.256C6.341,19.874,6.151,20.015,5.938,20.015z M9.042,19.945
	C8.655,20.2,8.197,20.33,7.682,20.33c-0.286,0-0.592-0.042-0.906-0.123c-0.235-0.062-0.385-0.287-0.35-0.523
	c0.127-0.896,0.516-1.579,1.121-1.979c0.604-0.399,1.387-0.49,2.267-0.262c0.232,0.062,0.384,0.287,0.347,0.525
	C10.033,18.862,9.646,19.545,9.042,19.945z M4.811,23.935c0.401,0.601,0.493,1.379,0.261,2.253
	c-0.054,0.212-0.246,0.354-0.458,0.354c-0.021,0-0.044-0.001-0.067-0.005c-0.898-0.129-1.584-0.514-1.986-1.116
	c-0.4-0.6-0.493-1.381-0.263-2.255c0.06-0.231,0.291-0.382,0.525-0.349C3.722,22.946,4.408,23.333,4.811,23.935z M5.101,26.208
	c0.13-0.894,0.518-1.577,1.121-1.979c0.605-0.397,1.39-0.488,2.267-0.261c0.233,0.062,0.384,0.286,0.348,0.525
	c-0.127,0.892-0.516,1.576-1.12,1.975c-0.387,0.257-0.845,0.386-1.359,0.386c-0.286,0-0.593-0.042-0.908-0.123
	C5.217,26.672,5.066,26.445,5.101,26.208z M2.055,30.381c0.888-0.193,1.666-0.071,2.253,0.35c0.588,0.424,0.95,1.123,1.042,2.019
	c0.026,0.24-0.133,0.46-0.37,0.51c-0.274,0.06-0.541,0.091-0.793,0.091c-0.562,0-1.055-0.146-1.462-0.441
	c-0.586-0.422-0.947-1.121-1.042-2.018C1.659,30.653,1.817,30.435,2.055,30.381z M5.847,33.129c-0.221,0-0.415-0.152-0.464-0.37
	c-0.193-0.882-0.072-1.657,0.352-2.242c0.426-0.586,1.128-0.945,2.031-1.039c0.233-0.023,0.46,0.134,0.511,0.369
	c0.195,0.881,0.074,1.658-0.35,2.244c-0.424,0.585-1.127,0.942-2.029,1.036C5.879,33.129,5.864,33.129,5.847,33.129z M3.005,37.949
	c0.784-0.46,1.563-0.586,2.254-0.368c0.69,0.22,1.251,0.772,1.623,1.595c0.098,0.22,0.016,0.477-0.192,0.601
	c-0.534,0.313-1.061,0.47-1.565,0.47c-0.235,0-0.466-0.033-0.688-0.102c-0.69-0.221-1.251-0.772-1.622-1.596
	C2.717,38.33,2.798,38.072,3.005,37.949z M7.518,39.365c-0.063,0.027-0.129,0.039-0.193,0.039c-0.165,0-0.321-0.082-0.41-0.23
	c-0.459-0.776-0.588-1.554-0.368-2.24c0.221-0.688,0.774-1.249,1.603-1.617c0.223-0.1,0.479-0.016,0.603,0.189
	c0.46,0.779,0.588,1.553,0.368,2.242C8.9,38.436,8.346,38.995,7.518,39.365z M6.079,43.863c0.784-0.461,1.562-0.587,2.252-0.369
	c0.691,0.221,1.253,0.771,1.623,1.597c0.1,0.217,0.017,0.476-0.19,0.598c-0.534,0.313-1.062,0.474-1.565,0.474
	c-0.236,0-0.466-0.036-0.688-0.105c-0.691-0.217-1.252-0.771-1.623-1.594C5.79,44.243,5.871,43.985,6.079,43.863z M9.62,42.846
	c0.221-0.688,0.774-1.246,1.604-1.614c0.221-0.103,0.478-0.016,0.602,0.189c0.462,0.778,0.588,1.554,0.368,2.239
	c-0.22,0.689-0.772,1.248-1.602,1.617c-0.063,0.029-0.129,0.041-0.193,0.041c-0.164,0-0.321-0.083-0.41-0.23
	C9.529,44.309,9.398,43.535,9.62,42.846z M12.392,48.963c0.726,0,1.43,0.356,2.033,1.03c0.161,0.181,0.16,0.45,0,0.629
	c-0.605,0.674-1.309,1.028-2.033,1.028c-0.727,0-1.429-0.354-2.034-1.028c-0.16-0.181-0.16-0.448,0-0.629
	C10.963,49.319,11.666,48.963,12.392,48.963z M13.423,47.957c0-0.723,0.357-1.422,1.035-2.025c0.179-0.158,0.452-0.158,0.633,0
	c0.675,0.604,1.033,1.303,1.033,2.025c0,0.722-0.358,1.42-1.033,2.023c-0.092,0.079-0.205,0.119-0.317,0.119
	c-0.114,0-0.227-0.04-0.316-0.119C13.78,49.379,13.423,48.68,13.423,47.957z M17.471,53.569c0.691-0.218,1.468-0.093,2.252,0.366
	c0.207,0.123,0.291,0.381,0.19,0.602c-0.37,0.824-0.933,1.374-1.622,1.594c-0.221,0.07-0.452,0.105-0.687,0.105
	c-0.505,0-1.032-0.159-1.567-0.472c-0.207-0.122-0.289-0.382-0.19-0.6C16.218,54.339,16.78,53.787,17.471,53.569z M19.749,53.916
	c-0.827-0.369-1.382-0.928-1.604-1.615c-0.22-0.688-0.092-1.463,0.369-2.243c0.125-0.207,0.384-0.288,0.604-0.188
	c0.828,0.369,1.382,0.928,1.602,1.615c0.22,0.688,0.094,1.463-0.369,2.24c-0.088,0.146-0.246,0.231-0.409,0.231
	C19.876,53.956,19.812,53.944,19.749,53.916z M23.414,56.627c0.691-0.216,1.47-0.092,2.251,0.367
	c0.209,0.125,0.291,0.381,0.191,0.602c-0.37,0.824-0.931,1.374-1.622,1.594c-0.221,0.069-0.452,0.104-0.688,0.104
	c-0.504,0-1.031-0.158-1.565-0.472c-0.207-0.123-0.289-0.381-0.19-0.602C22.161,57.398,22.722,56.848,23.414,56.627z M25.691,56.973
	c-0.828-0.368-1.382-0.926-1.604-1.615c-0.22-0.687-0.09-1.461,0.371-2.24c0.122-0.207,0.381-0.289,0.602-0.189
	c0.828,0.367,1.384,0.928,1.602,1.613c0.221,0.688,0.094,1.463-0.368,2.242c-0.088,0.146-0.246,0.231-0.409,0.231
	C25.819,57.015,25.754,57,25.691,56.973z M30.071,58.259c0.588-0.423,1.366-0.544,2.253-0.351c0.238,0.053,0.396,0.271,0.372,0.51
	c-0.095,0.898-0.454,1.598-1.044,2.021c-0.405,0.292-0.898,0.44-1.46,0.44c-0.252,0-0.52-0.031-0.792-0.09
	c-0.236-0.053-0.396-0.271-0.371-0.511C29.121,59.38,29.482,58.683,30.071,58.259z M32.392,57.883c-0.016,0-0.033-0.002-0.048-0.004
	c-0.903-0.094-1.605-0.451-2.03-1.038c-0.426-0.583-0.547-1.359-0.352-2.243c0.05-0.232,0.271-0.39,0.511-0.366
	c0.903,0.093,1.605,0.452,2.029,1.036c0.425,0.586,0.547,1.361,0.354,2.244C32.806,57.73,32.612,57.883,32.392,57.883z
	 M56.276,6.944c5.444,5.417,8.812,12.902,8.812,21.17c0,16.536-13.471,29.94-30.087,29.94 M57.602,8.347
	c0.082,0,0.166-0.023,0.243-0.068c0.778-0.462,1.265-1.081,1.403-1.789s-0.078-1.464-0.627-2.183
	C58.475,4.116,58.207,4.064,58,4.188c-0.779,0.46-1.265,1.08-1.402,1.788c-0.14,0.711,0.076,1.463,0.627,2.183
	C57.316,8.281,57.457,8.347,57.602,8.347z M54.89,9.428c0.14,0.027,0.282,0.042,0.427,0.042c0.588,0,1.183-0.224,1.768-0.665
	c0.192-0.144,0.244-0.411,0.12-0.618C56.74,7.411,56.118,6.93,55.407,6.79c-0.715-0.138-1.467,0.077-2.195,0.624
	c-0.192,0.146-0.243,0.412-0.12,0.619C53.557,8.808,54.178,9.29,54.89,9.428z M61.342,13.865c0.083,0,0.166-0.021,0.243-0.066
	c0.778-0.462,1.265-1.08,1.403-1.791c0.141-0.708-0.078-1.462-0.628-2.183c-0.144-0.192-0.413-0.243-0.62-0.12
	c-0.779,0.462-1.266,1.082-1.404,1.79c-0.139,0.709,0.078,1.464,0.628,2.184C61.057,13.801,61.197,13.865,61.342,13.865z
	 M60.945,13.707c-0.465-0.775-1.086-1.259-1.798-1.396c-0.715-0.14-1.467,0.073-2.195,0.623c-0.192,0.145-0.245,0.412-0.12,0.616
	c0.465,0.778,1.088,1.262,1.798,1.398c0.14,0.026,0.284,0.042,0.427,0.042c0.588,0,1.183-0.225,1.768-0.665
	C61.016,14.179,61.068,13.914,60.945,13.707z M64.063,20.015c0.021,0,0.046-0.001,0.066-0.004c0.898-0.129,1.588-0.513,1.988-1.115
	c0.402-0.602,0.492-1.382,0.263-2.256c-0.062-0.232-0.29-0.381-0.525-0.347c-0.899,0.129-1.587,0.514-1.989,1.115
	c-0.4,0.603-0.489,1.382-0.262,2.256C63.658,19.874,63.85,20.015,64.063,20.015z M60.959,19.945
	c0.387,0.255,0.844,0.385,1.358,0.385c0.288,0,0.593-0.042,0.907-0.123c0.233-0.062,0.385-0.287,0.351-0.523
	c-0.129-0.896-0.517-1.579-1.122-1.979c-0.604-0.399-1.386-0.49-2.266-0.262c-0.234,0.062-0.385,0.287-0.35,0.525
	C59.967,18.862,60.354,19.545,60.959,19.945z M65.191,23.935c-0.402,0.601-0.494,1.379-0.264,2.253
	c0.057,0.212,0.246,0.354,0.459,0.354c0.021,0,0.045-0.001,0.067-0.005c0.898-0.129,1.586-0.514,1.985-1.116
	c0.404-0.6,0.493-1.381,0.266-2.255c-0.063-0.231-0.293-0.382-0.526-0.349C66.279,22.946,65.592,23.333,65.191,23.935z
	 M64.898,26.208c-0.129-0.894-0.516-1.577-1.121-1.979c-0.605-0.397-1.388-0.488-2.266-0.261c-0.232,0.062-0.385,0.286-0.35,0.525
	c0.129,0.892,0.517,1.576,1.121,1.975c0.389,0.257,0.846,0.386,1.357,0.386c0.288,0,0.594-0.042,0.91-0.123
	C64.783,26.672,64.936,26.445,64.898,26.208z M67.947,30.381c-0.891-0.193-1.667-0.071-2.256,0.35
	c-0.588,0.424-0.948,1.123-1.042,2.019c-0.023,0.24,0.135,0.46,0.37,0.51c0.274,0.06,0.541,0.091,0.793,0.091
	c0.564,0,1.056-0.146,1.461-0.441c0.587-0.422,0.949-1.121,1.043-2.018C68.342,30.653,68.184,30.435,67.947,30.381z M64.152,33.129
	c0.222,0,0.415-0.152,0.465-0.37c0.193-0.882,0.072-1.657-0.352-2.242c-0.426-0.586-1.129-0.945-2.031-1.039
	c-0.233-0.023-0.461,0.134-0.512,0.369c-0.195,0.881-0.073,1.658,0.352,2.244c0.426,0.585,1.126,0.942,2.031,1.036
	C64.121,33.129,64.138,33.129,64.152,33.129z M66.994,37.949c-0.783-0.46-1.561-0.586-2.251-0.368
	c-0.693,0.22-1.255,0.772-1.624,1.595c-0.098,0.22-0.018,0.477,0.19,0.601c0.534,0.313,1.062,0.47,1.567,0.47
	c0.234,0,0.465-0.033,0.686-0.102c0.689-0.221,1.252-0.772,1.623-1.596C67.285,38.33,67.201,38.072,66.994,37.949z M62.482,39.365
	c0.063,0.027,0.129,0.039,0.194,0.039c0.163,0,0.319-0.082,0.409-0.23c0.46-0.776,0.588-1.554,0.367-2.24
	c-0.219-0.688-0.773-1.249-1.604-1.617c-0.221-0.1-0.479-0.016-0.602,0.189c-0.459,0.779-0.588,1.553-0.368,2.242
	C61.102,38.436,61.654,38.995,62.482,39.365z M63.921,43.863c-0.784-0.461-1.561-0.587-2.252-0.369
	c-0.69,0.221-1.253,0.771-1.623,1.597c-0.099,0.217-0.017,0.476,0.192,0.598c0.532,0.313,1.059,0.474,1.563,0.474
	c0.235,0,0.466-0.036,0.688-0.105c0.691-0.217,1.252-0.771,1.622-1.594C64.213,44.243,64.129,43.985,63.921,43.863z M60.381,42.846
	c-0.222-0.688-0.774-1.246-1.603-1.614c-0.223-0.103-0.479-0.016-0.604,0.189c-0.46,0.778-0.588,1.554-0.368,2.239
	c0.221,0.689,0.775,1.248,1.604,1.617c0.061,0.029,0.127,0.041,0.191,0.041c0.164,0,0.321-0.083,0.41-0.23
	C60.475,44.309,60.602,43.535,60.381,42.846z M57.608,48.963c-0.727,0-1.431,0.356-2.032,1.03c-0.162,0.181-0.162,0.45,0,0.629
	c0.604,0.674,1.307,1.028,2.032,1.028s1.43-0.354,2.033-1.028c0.161-0.181,0.161-0.448,0-0.629
	C59.038,49.319,58.334,48.963,57.608,48.963z M56.578,47.957c0-0.723-0.358-1.422-1.034-2.025c-0.181-0.158-0.452-0.158-0.632,0
	c-0.678,0.604-1.036,1.303-1.036,2.025c0,0.722,0.358,1.42,1.036,2.023c0.09,0.079,0.203,0.119,0.314,0.119
	c0.113,0,0.227-0.04,0.317-0.119C56.22,49.379,56.578,48.68,56.578,47.957z M52.53,53.569c-0.691-0.218-1.47-0.093-2.253,0.366
	c-0.207,0.123-0.289,0.381-0.191,0.602c0.371,0.824,0.934,1.374,1.623,1.594c0.221,0.07,0.451,0.105,0.688,0.105
	c0.505,0,1.031-0.159,1.565-0.472c0.207-0.122,0.29-0.382,0.19-0.6C53.782,54.339,53.22,53.787,52.53,53.569z M50.251,53.916
	c0.828-0.369,1.384-0.928,1.604-1.615c0.22-0.688,0.094-1.463-0.368-2.243c-0.125-0.207-0.385-0.288-0.604-0.188
	c-0.827,0.369-1.381,0.928-1.603,1.615c-0.219,0.688-0.09,1.463,0.369,2.24c0.09,0.146,0.246,0.231,0.41,0.231
	C50.123,53.956,50.189,53.944,50.251,53.916z M46.586,56.627c-0.689-0.216-1.47-0.092-2.252,0.367
	c-0.207,0.125-0.288,0.381-0.189,0.602c0.369,0.824,0.932,1.374,1.623,1.594c0.219,0.069,0.451,0.104,0.687,0.104
	c0.504,0,1.03-0.158,1.565-0.472c0.207-0.123,0.29-0.381,0.191-0.602C47.84,57.398,47.277,56.848,46.586,56.627z M44.309,56.973
	c0.828-0.368,1.383-0.926,1.604-1.615c0.219-0.687,0.092-1.461-0.369-2.24c-0.124-0.207-0.381-0.289-0.604-0.189
	c-0.828,0.367-1.381,0.928-1.602,1.613c-0.221,0.688-0.092,1.463,0.368,2.242c0.088,0.146,0.246,0.231,0.41,0.231
	C44.181,57.015,44.246,57,44.309,56.973z M39.93,58.259c-0.588-0.423-1.362-0.544-2.254-0.351c-0.234,0.053-0.396,0.271-0.37,0.51
	c0.094,0.898,0.454,1.598,1.044,2.021c0.406,0.292,0.898,0.44,1.459,0.44c0.253,0,0.521-0.031,0.793-0.09
	c0.238-0.053,0.396-0.271,0.373-0.511C40.879,59.38,40.52,58.683,39.93,58.259z M37.609,57.883c0.015,0,0.031-0.002,0.05-0.004
	c0.901-0.094,1.604-0.451,2.029-1.038c0.424-0.583,0.546-1.359,0.35-2.243c-0.05-0.232-0.271-0.39-0.511-0.366
	c-0.904,0.093-1.605,0.452-2.029,1.036c-0.426,0.586-0.547,1.361-0.354,2.244C37.194,57.73,37.388,57.883,37.609,57.883z"/>
<path fill="none" stroke="#FFFFFF" stroke-width="0.733" stroke-linecap="round" stroke-linejoin="round" d="M13.792,6.899
	c-5.428,5.427-8.786,12.925-8.786,21.207c0,16.565,13.428,29.994,29.994,29.994 M12.47,8.302c-0.083,0-0.166-0.021-0.241-0.067
	c-0.777-0.461-1.262-1.082-1.401-1.791c-0.136-0.711,0.08-1.467,0.628-2.187c0.145-0.192,0.412-0.245,0.618-0.12
	c0.777,0.46,1.261,1.082,1.399,1.791c0.138,0.712-0.08,1.467-0.627,2.187C12.754,8.236,12.612,8.302,12.47,8.302z M15.173,9.386
	c-0.139,0.028-0.282,0.041-0.424,0.041c-0.587,0-1.181-0.224-1.763-0.666c-0.191-0.145-0.245-0.41-0.12-0.619
	c0.46-0.776,1.08-1.259,1.792-1.399c0.711-0.139,1.464,0.077,2.188,0.625c0.19,0.146,0.244,0.412,0.121,0.619
	C16.503,8.765,15.884,9.248,15.173,9.386z M8.742,13.831c-0.084,0-0.166-0.021-0.242-0.066c-0.776-0.464-1.261-1.082-1.4-1.794
	c-0.138-0.709,0.078-1.464,0.625-2.185c0.145-0.192,0.412-0.245,0.619-0.122c0.779,0.463,1.262,1.084,1.399,1.792
	c0.14,0.711-0.078,1.467-0.625,2.188C9.026,13.767,8.885,13.831,8.742,13.831z M9.137,13.673c0.463-0.777,1.083-1.261,1.794-1.399
	c0.709-0.14,1.462,0.076,2.186,0.625c0.191,0.144,0.244,0.412,0.121,0.617c-0.462,0.779-1.083,1.263-1.794,1.401
	c-0.138,0.026-0.281,0.042-0.424,0.042c-0.588,0-1.18-0.226-1.762-0.667C9.067,14.146,9.014,13.88,9.137,13.673z M6.029,19.994
	c-0.021,0-0.044-0.001-0.067-0.004c-0.895-0.13-1.579-0.515-1.98-1.119c-0.4-0.601-0.491-1.383-0.262-2.259
	c0.06-0.231,0.288-0.382,0.524-0.349c0.896,0.129,1.581,0.516,1.98,1.118c0.4,0.602,0.491,1.384,0.262,2.259
	C6.434,19.851,6.241,19.994,6.029,19.994z M9.123,19.922c-0.386,0.255-0.841,0.386-1.353,0.386c-0.288,0-0.593-0.042-0.907-0.123
	c-0.231-0.062-0.383-0.287-0.349-0.525c0.129-0.897,0.516-1.582,1.119-1.981c0.602-0.4,1.383-0.491,2.259-0.263
	c0.233,0.062,0.382,0.287,0.349,0.526C10.112,18.837,9.725,19.522,9.123,19.922z M4.905,23.919c0.398,0.603,0.491,1.383,0.263,2.258
	C5.11,26.39,4.922,26.531,4.71,26.531c-0.023,0-0.045-0.001-0.067-0.003c-0.897-0.13-1.582-0.517-1.979-1.12
	c-0.401-0.602-0.492-1.384-0.263-2.259c0.059-0.232,0.29-0.383,0.524-0.349C3.82,22.928,4.505,23.315,4.905,23.919z M5.195,26.198
	c0.129-0.896,0.516-1.581,1.118-1.981c0.604-0.4,1.384-0.491,2.259-0.262c0.234,0.06,0.383,0.286,0.349,0.525
	c-0.129,0.894-0.516,1.579-1.118,1.98c-0.387,0.257-0.841,0.386-1.353,0.386c-0.287,0-0.593-0.042-0.906-0.125
	C5.311,26.661,5.161,26.434,5.195,26.198z M2.157,30.378c0.888-0.193,1.662-0.072,2.247,0.35c0.589,0.425,0.947,1.126,1.04,2.025
	c0.024,0.239-0.134,0.459-0.369,0.51c-0.272,0.06-0.539,0.09-0.789,0.09c-0.563,0-1.052-0.147-1.458-0.44
	C2.243,32.488,1.884,31.79,1.79,30.89C1.763,30.652,1.923,30.431,2.157,30.378z M5.938,33.13c-0.218,0-0.412-0.152-0.46-0.369
	c-0.195-0.884-0.074-1.661,0.35-2.248c0.424-0.586,1.124-0.945,2.022-1.039c0.233-0.023,0.459,0.133,0.511,0.368
	c0.194,0.883,0.073,1.66-0.351,2.248c-0.422,0.586-1.121,0.946-2.022,1.04C5.973,33.13,5.956,33.13,5.938,33.13z M3.106,37.96
	c0.781-0.461,1.556-0.587,2.245-0.369c0.689,0.219,1.251,0.773,1.619,1.598c0.099,0.219,0.016,0.477-0.192,0.6
	c-0.531,0.315-1.055,0.474-1.56,0.474c-0.235,0-0.466-0.035-0.685-0.104c-0.688-0.219-1.248-0.771-1.618-1.598
	C2.818,38.341,2.898,38.083,3.106,37.96z M7.604,39.377c-0.062,0.028-0.127,0.042-0.193,0.042c-0.162,0-0.319-0.085-0.406-0.232
	c-0.461-0.779-0.589-1.556-0.369-2.246c0.22-0.688,0.772-1.25,1.598-1.618c0.222-0.1,0.479-0.017,0.601,0.19
	c0.459,0.78,0.588,1.556,0.367,2.246C8.982,38.448,8.43,39.007,7.604,39.377z M6.17,43.884c0.782-0.459,1.557-0.587,2.246-0.369
	c0.688,0.221,1.248,0.773,1.617,1.6c0.099,0.219,0.016,0.478-0.19,0.599c-0.531,0.313-1.058,0.474-1.561,0.474
	c-0.234,0-0.465-0.034-0.684-0.105c-0.689-0.219-1.25-0.771-1.618-1.597C5.882,44.265,5.963,44.007,6.17,43.884z M9.699,42.865
	c0.22-0.688,0.772-1.249,1.599-1.617c0.222-0.101,0.478-0.017,0.6,0.19c0.46,0.778,0.588,1.556,0.368,2.244
	c-0.219,0.688-0.771,1.248-1.598,1.618c-0.063,0.028-0.129,0.04-0.193,0.04c-0.163,0-0.319-0.082-0.406-0.23
	C9.608,44.332,9.48,43.556,9.699,42.865z M12.463,48.993c0.725,0,1.425,0.357,2.027,1.031c0.16,0.182,0.16,0.451,0,0.631
	c-0.603,0.675-1.303,1.031-2.027,1.031s-1.425-0.356-2.026-1.031c-0.162-0.18-0.162-0.449,0-0.631
	C11.04,49.351,11.738,48.993,12.463,48.993z M13.489,47.984c0-0.724,0.357-1.423,1.032-2.026c0.18-0.16,0.45-0.16,0.63,0
	c0.676,0.604,1.032,1.303,1.032,2.026s-0.356,1.425-1.032,2.028c-0.09,0.079-0.201,0.119-0.315,0.119
	c-0.113,0-0.226-0.04-0.314-0.119C13.847,49.41,13.489,48.71,13.489,47.984z M17.525,53.607c0.688-0.218,1.466-0.092,2.244,0.369
	c0.209,0.122,0.291,0.381,0.192,0.601c-0.37,0.826-0.93,1.377-1.619,1.597c-0.218,0.071-0.448,0.106-0.686,0.106
	c-0.501,0-1.027-0.16-1.56-0.475c-0.206-0.121-0.289-0.381-0.19-0.6C16.278,54.378,16.836,53.825,17.525,53.607z M19.796,53.955
	c-0.823-0.369-1.376-0.93-1.596-1.619c-0.222-0.689-0.094-1.466,0.367-2.245c0.121-0.207,0.381-0.291,0.601-0.191
	c0.824,0.371,1.378,0.932,1.598,1.619c0.219,0.689,0.092,1.466-0.369,2.244c-0.086,0.149-0.244,0.232-0.407,0.232
	C19.925,53.995,19.858,53.984,19.796,53.955z M23.449,56.672c0.69-0.217,1.466-0.093,2.247,0.366
	c0.205,0.125,0.288,0.383,0.19,0.604c-0.371,0.826-0.931,1.377-1.619,1.597c-0.22,0.069-0.449,0.104-0.686,0.104
	c-0.504,0-1.027-0.16-1.559-0.473c-0.209-0.123-0.29-0.381-0.192-0.601C22.201,57.442,22.761,56.892,23.449,56.672z M25.722,57.018
	c-0.827-0.368-1.38-0.928-1.6-1.619c-0.219-0.688-0.091-1.464,0.369-2.243c0.122-0.209,0.378-0.291,0.6-0.191
	c0.825,0.371,1.379,0.93,1.599,1.617c0.22,0.689,0.093,1.465-0.367,2.246c-0.09,0.146-0.245,0.232-0.409,0.232
	C25.849,57.06,25.783,57.046,25.722,57.018z M30.086,58.306c0.586-0.422,1.36-0.546,2.246-0.352
	c0.235,0.053,0.395,0.271,0.369,0.512c-0.094,0.9-0.453,1.6-1.04,2.023c-0.404,0.291-0.894,0.441-1.456,0.441
	c-0.25,0-0.517-0.03-0.791-0.09c-0.233-0.055-0.393-0.271-0.367-0.512C29.139,59.429,29.5,58.729,30.086,58.306z M32.399,57.929
	c-0.016,0-0.033-0.002-0.048-0.004c-0.901-0.094-1.601-0.453-2.025-1.04c-0.422-0.585-0.544-1.362-0.351-2.247
	c0.053-0.232,0.272-0.391,0.512-0.366c0.9,0.093,1.599,0.453,2.023,1.038c0.424,0.587,0.544,1.363,0.351,2.249
	C32.813,57.776,32.619,57.929,32.399,57.929z M56.209,6.899c5.427,5.427,8.785,12.925,8.785,21.207
	c0,16.565-13.429,29.994-29.994,29.994 M57.531,8.302c0.082,0,0.166-0.021,0.241-0.067c0.776-0.461,1.262-1.082,1.4-1.791
	c0.137-0.711-0.079-1.467-0.627-2.187c-0.146-0.192-0.411-0.245-0.619-0.12c-0.777,0.46-1.26,1.082-1.397,1.791
	c-0.14,0.712,0.076,1.467,0.625,2.187C57.247,8.236,57.389,8.302,57.531,8.302z M54.826,9.386c0.14,0.028,0.283,0.041,0.426,0.041
	c0.587,0,1.18-0.224,1.762-0.666c0.191-0.145,0.244-0.41,0.121-0.619c-0.464-0.776-1.081-1.259-1.794-1.399
	c-0.71-0.139-1.461,0.077-2.186,0.625c-0.191,0.146-0.244,0.412-0.12,0.619C53.497,8.765,54.117,9.248,54.826,9.386z M61.258,13.831
	c0.084,0,0.167-0.021,0.242-0.066c0.776-0.464,1.261-1.082,1.4-1.794c0.139-0.709-0.079-1.464-0.627-2.185
	c-0.144-0.192-0.409-0.245-0.616-0.122c-0.778,0.463-1.263,1.084-1.401,1.792c-0.136,0.711,0.08,1.467,0.627,2.188
	C60.975,13.767,61.115,13.831,61.258,13.831z M60.862,13.673c-0.461-0.777-1.082-1.261-1.793-1.399
	c-0.711-0.14-1.462,0.076-2.185,0.625c-0.192,0.144-0.246,0.412-0.122,0.617c0.464,0.779,1.083,1.263,1.793,1.401
	c0.139,0.026,0.283,0.042,0.426,0.042c0.586,0,1.179-0.226,1.761-0.667C60.933,14.146,60.986,13.88,60.862,13.673z M63.97,19.994
	c0.022,0,0.045-0.001,0.069-0.004c0.894-0.13,1.579-0.515,1.979-1.119c0.401-0.601,0.492-1.383,0.263-2.259
	c-0.06-0.231-0.289-0.382-0.524-0.349c-0.897,0.129-1.581,0.516-1.981,1.118c-0.399,0.602-0.491,1.384-0.262,2.259
	C63.568,19.851,63.759,19.994,63.97,19.994z M60.877,19.922c0.387,0.255,0.842,0.386,1.354,0.386c0.287,0,0.59-0.042,0.906-0.123
	c0.23-0.062,0.383-0.287,0.347-0.525c-0.128-0.897-0.515-1.582-1.118-1.981c-0.602-0.4-1.383-0.491-2.257-0.263
	c-0.234,0.062-0.384,0.287-0.352,0.526C59.889,18.837,60.275,19.522,60.877,19.922z M65.095,23.919
	c-0.398,0.603-0.49,1.383-0.263,2.258c0.058,0.212,0.246,0.354,0.458,0.354c0.024,0,0.045-0.001,0.069-0.003
	c0.896-0.13,1.58-0.517,1.979-1.12c0.4-0.602,0.49-1.384,0.263-2.259c-0.062-0.232-0.291-0.383-0.526-0.349
	C66.18,22.928,65.495,23.315,65.095,23.919z M64.806,26.198c-0.129-0.896-0.517-1.581-1.119-1.981
	c-0.603-0.4-1.383-0.491-2.259-0.262c-0.232,0.06-0.383,0.286-0.348,0.525c0.129,0.894,0.516,1.579,1.118,1.98
	c0.386,0.257,0.841,0.386,1.352,0.386c0.287,0,0.593-0.042,0.906-0.125C64.69,26.661,64.839,26.434,64.806,26.198z M67.843,30.378
	c-0.887-0.193-1.662-0.072-2.248,0.35c-0.587,0.425-0.946,1.126-1.038,2.025c-0.024,0.239,0.134,0.459,0.367,0.51
	c0.274,0.06,0.54,0.09,0.791,0.09c0.563,0,1.053-0.147,1.456-0.44c0.587-0.424,0.946-1.123,1.039-2.022
	C68.237,30.652,68.077,30.431,67.843,30.378z M64.062,33.13c0.219,0,0.414-0.152,0.461-0.369c0.194-0.884,0.074-1.661-0.35-2.248
	c-0.425-0.586-1.125-0.945-2.023-1.039c-0.234-0.023-0.459,0.133-0.512,0.368c-0.193,0.883-0.072,1.66,0.351,2.248
	c0.425,0.586,1.122,0.946,2.025,1.04C64.028,33.13,64.045,33.13,64.062,33.13z M66.895,37.96c-0.782-0.461-1.558-0.587-2.246-0.369
	c-0.688,0.219-1.248,0.773-1.619,1.598c-0.098,0.219-0.017,0.477,0.192,0.6c0.531,0.315,1.058,0.474,1.562,0.474
	c0.233,0,0.465-0.035,0.683-0.104c0.689-0.219,1.251-0.771,1.62-1.598C67.183,38.341,67.101,38.083,66.895,37.96z M62.396,39.377
	c0.063,0.028,0.129,0.042,0.191,0.042c0.164,0,0.321-0.085,0.409-0.232c0.461-0.779,0.589-1.556,0.368-2.246
	c-0.219-0.688-0.772-1.25-1.598-1.618c-0.221-0.1-0.477-0.017-0.602,0.19c-0.459,0.78-0.586,1.556-0.369,2.246
	C61.019,38.448,61.57,39.007,62.396,39.377z M63.83,43.884c-0.782-0.459-1.558-0.587-2.245-0.369
	c-0.688,0.221-1.248,0.773-1.618,1.6c-0.098,0.219-0.015,0.478,0.19,0.599c0.532,0.313,1.058,0.474,1.562,0.474
	c0.233,0,0.465-0.034,0.683-0.105c0.689-0.219,1.251-0.771,1.62-1.597C64.118,44.265,64.037,44.007,63.83,43.884z M60.303,42.865
	c-0.221-0.688-0.774-1.249-1.599-1.617c-0.223-0.101-0.479-0.017-0.601,0.19c-0.46,0.778-0.588,1.556-0.369,2.244
	c0.22,0.688,0.772,1.248,1.598,1.618c0.063,0.028,0.128,0.04,0.192,0.04c0.165,0,0.319-0.082,0.408-0.23
	C60.393,44.332,60.521,43.556,60.303,42.865z M57.537,48.993c-0.724,0-1.424,0.357-2.026,1.031c-0.161,0.182-0.161,0.451,0,0.631
	c0.603,0.675,1.303,1.031,2.026,1.031c0.726,0,1.426-0.356,2.026-1.031c0.162-0.18,0.162-0.449,0-0.631
	C58.962,49.351,58.263,48.993,57.537,48.993z M56.51,47.984c0-0.724-0.354-1.423-1.031-2.026c-0.18-0.16-0.451-0.16-0.63,0
	c-0.675,0.604-1.032,1.303-1.032,2.026s0.357,1.425,1.032,2.028c0.09,0.079,0.204,0.119,0.315,0.119c0.112,0,0.225-0.04,0.313-0.119
	C56.155,49.41,56.51,48.71,56.51,47.984z M52.475,53.607c-0.688-0.218-1.466-0.092-2.246,0.369c-0.206,0.122-0.287,0.381-0.19,0.601
	c0.369,0.826,0.931,1.377,1.619,1.597c0.219,0.071,0.448,0.106,0.686,0.106c0.502,0,1.027-0.16,1.56-0.475
	c0.207-0.121,0.289-0.381,0.192-0.6C53.723,54.378,53.163,53.825,52.475,53.607z M50.203,53.955c0.825-0.369,1.377-0.93,1.6-1.619
	c0.219-0.689,0.091-1.466-0.369-2.245c-0.123-0.207-0.381-0.291-0.6-0.191c-0.825,0.371-1.379,0.932-1.6,1.619
	c-0.219,0.689-0.092,1.466,0.367,2.244c0.091,0.149,0.246,0.232,0.41,0.232C50.076,53.995,50.141,53.984,50.203,53.955z
	 M46.551,56.672c-0.689-0.217-1.465-0.093-2.245,0.366c-0.208,0.125-0.289,0.383-0.19,0.604c0.369,0.826,0.929,1.377,1.618,1.597
	c0.218,0.069,0.449,0.104,0.685,0.104c0.504,0,1.028-0.16,1.56-0.473c0.209-0.123,0.291-0.381,0.19-0.601
	C47.799,57.442,47.239,56.892,46.551,56.672z M44.278,57.018c0.827-0.368,1.38-0.928,1.6-1.619c0.22-0.688,0.093-1.464-0.369-2.243
	c-0.12-0.209-0.38-0.291-0.601-0.191c-0.824,0.371-1.377,0.93-1.597,1.617c-0.22,0.689-0.09,1.465,0.367,2.246
	c0.089,0.146,0.246,0.232,0.408,0.232C44.151,57.06,44.217,57.046,44.278,57.018z M39.914,58.306
	c-0.585-0.422-1.359-0.546-2.247-0.352c-0.234,0.053-0.392,0.271-0.367,0.512c0.093,0.9,0.452,1.6,1.038,2.023
	c0.406,0.291,0.895,0.441,1.457,0.441c0.251,0,0.517-0.03,0.791-0.09c0.234-0.055,0.393-0.271,0.367-0.512
	C40.86,59.429,40.5,58.729,39.914,58.306z M37.6,57.929c0.018,0,0.033-0.002,0.051-0.004c0.9-0.094,1.601-0.453,2.023-1.04
	c0.423-0.585,0.545-1.362,0.35-2.247c-0.053-0.232-0.273-0.391-0.51-0.366c-0.9,0.093-1.6,0.453-2.023,1.038
	c-0.425,0.587-0.545,1.363-0.35,2.249C37.187,57.776,37.381,57.929,37.6,57.929z M23.838,18.713
	c1.561-5.251,5.963-9.229,12.539-9.229c7.193,0,12.021,4.687,12.021,10.79c0,6.199-4.26,9.085-8.329,11.925
	c-2.697,1.94-5.584,3.786-5.584,3.834l0.048,0.045c0.046,0,3.264-0.234,8.281-0.234h5.631v7.428H24.121V36.79
	c4.543-4.021,9.038-7.997,13.58-12.02c1.706-1.467,2.652-3.077,2.652-4.496c0-1.988-1.609-3.786-4.214-3.786
	c-2.98,0-4.353,2.462-4.968,4.164L23.838,18.713z"/>
</svg>
