<?xml version="1.0" encoding="utf-8"?>
<!-- Generator: Adobe Illustrator 16.0.0, SVG Export Plug-In . SVG Version: 6.00 Build 0)  -->
<!DOCTYPE svg PUBLIC "-//W3C//DTD SVG 1.1//EN" "http://www.w3.org/Graphics/SVG/1.1/DTD/svg11.dtd">
<svg version="1.1" id="Layer_1" xmlns="http://www.w3.org/2000/svg" xmlns:xlink="http://www.w3.org/1999/xlink" x="0px" y="0px"
	 width="100px" height="100px" viewBox="0 0 100 100" enable-background="new 0 0 100 100" xml:space="preserve">
<path fill="#008cac" d="M89.634,67.395c0.719-1.647,1.312-3.318,1.813-4.999l7.306-1.174L100,48.529l-6.93-2.578
	c-0.333-3.55-1.104-7.033-2.277-10.371l5.224-5.259l-6.425-11.002l-7.117,1.999c-2.305-2.634-4.955-5.012-7.918-7.057l1.145-7.327
	L64.057,1.826L59.472,7.64c-3.505-0.792-7.04-1.13-10.535-1.042L45.57,0L33.157,2.733l-0.302,7.419
	c-3.239,1.404-6.31,3.198-9.136,5.364l-6.588-3.354l-8.442,9.535l4.1,6.177c-0.888,1.512-1.706,3.083-2.424,4.731
	c-0.717,1.648-1.312,3.318-1.814,4.998l-7.305,1.174L0,51.471l6.927,2.576c0.334,3.55,1.108,7.033,2.28,10.373l-5.224,5.259
	l6.43,11.003l7.11-2.001c2.31,2.633,4.958,5.01,7.921,7.057l-1.146,7.325l11.643,5.111l4.589-5.817
	c3.505,0.794,7.042,1.133,10.535,1.043L54.431,100l12.414-2.735l0.302-7.421c3.239-1.401,6.31-3.199,9.135-5.362l6.591,3.354
	l8.439-9.533l-4.102-6.182C88.097,70.611,88.915,69.042,89.634,67.395"/>
<g>
</g>
<g>
</g>
<g>
</g>
<g>
</g>
<g>
</g>
<g>
</g>
</svg>
