<?xml version="1.0" encoding="utf-8"?>
<!-- Generator: Adobe Illustrator 16.0.0, SVG Export Plug-In . SVG Version: 6.00 Build 0)  -->
<!DOCTYPE svg PUBLIC "-//W3C//DTD SVG 1.1//EN" "http://www.w3.org/Graphics/SVG/1.1/DTD/svg11.dtd">
<svg version="1.1" id="Layer_1" xmlns="http://www.w3.org/2000/svg" xmlns:xlink="http://www.w3.org/1999/xlink" x="0px" y="0px"
	 width="40px" height="40px" viewBox="0 0 40 40" enable-background="new 0 0 40 40" xml:space="preserve">
<path fill="none" stroke="#ffffff" stroke-width="2" stroke-linecap="round" stroke-linejoin="round" stroke-miterlimit="22.926" d="M25.275,13.104
	l6.383-8.336c0.367-0.479,0.272-1.172-0.202-1.53l-2.896-2.22c-0.475-0.362-1.167-0.273-1.534,0.203l-6.383,8.336
	c-0.366,0.476-0.28,1.168,0.203,1.53l2.893,2.217C24.218,13.673,24.908,13.577,25.275,13.104z M8.11,35.499l6.388-8.332
	c0.362-0.48,0.276-1.17-0.207-1.531l-2.896-2.217c-0.473-0.367-1.165-0.275-1.531,0.199L3.479,31.95
	c-0.364,0.484-0.276,1.174,0.206,1.535l2.894,2.217C7.052,36.071,7.744,35.981,8.11,35.499z M8.813,36.737
	c0.086,0.15,0.559,0.551,2.269,1.811c3.346,2.473,11.279-2.189,18.19-11.205c6.906-9.013,9.252-17.869,6.087-20.475
	c-1.699-1.404-2.174-1.72-2.33-1.737 M26.399,13.786c2.034,1.98,1.427,6.433-1.479,10.222c-2.902,3.789-7.049,5.543-9.489,4.094"/>
</svg>
