<?xml version="1.0" encoding="utf-8"?>
<!-- Generator: Adobe Illustrator 16.0.0, SVG Export Plug-In . SVG Version: 6.00 Build 0)  -->
<!DOCTYPE svg PUBLIC "-//W3C//DTD SVG 1.1//EN" "http://www.w3.org/Graphics/SVG/1.1/DTD/svg11.dtd">
<svg version="1.1" id="Layer_1" xmlns="http://www.w3.org/2000/svg" xmlns:xlink="http://www.w3.org/1999/xlink" x="0px" y="0px"
	 width="225px" height="175px" viewBox="0 0 225 175" enable-background="new 0 0 225 175" xml:space="preserve">
<g>
	<polygon fill="#008cac" points="212.893,103.454 191.934,92.188 145.045,150.808 140.701,163.939 154.615,162.229 220.313,126.063 
			"/>
	<polygon fill="#FFFFFF" points="185.34,136.651 177.498,136.071 195.695,121.104 204.482,123.472 	"/>
	<polygon fill="#FFFFFF" points="196.559,137.461 190.533,137.015 210.037,124.919 216.184,126.581 	"/>
	<polygon fill="#FFFFFF" points="169.043,147.871 162.857,148.111 170.107,142.148 177.219,142.243 	"/>
	<polygon fill="#FFFFFF" points="178.461,147.497 173.309,147.697 182.023,142.294 187.709,142.369 	"/>
	<polygon fill="#FFFFFF" points="160.471,153.773 155.447,154.204 159.33,151.014 164.988,150.664 	"/>
	<polygon fill="#FFFFFF" points="168.371,153.092 164.008,153.467 168.932,150.413 173.738,150.116 	"/>
	<polygon fill="#FFFFFF" points="155.182,157.415 150.975,157.885 153.389,155.9 158.043,155.442 	"/>
	<polygon fill="#FFFFFF" points="161.938,156.659 158.184,157.077 161.344,155.117 165.441,154.717 	"/>
	<polygon fill="#FFFFFF" points="151.592,159.886 147.98,160.348 149.625,158.994 153.566,158.526 	"/>
	<polygon fill="#FFFFFF" points="157.479,159.134 154.193,159.553 156.395,158.188 159.941,157.766 	"/>
	<polygon fill="#FFFFFF" points="147.027,161.131 145.834,162.113 148.996,161.672 150.443,160.679 	"/>
	<polygon fill="#FFFFFF" points="152.91,160.349 151.291,161.353 154.201,160.95 156.031,159.935 	"/>
	<polygon fill="#FFFFFF" points="175.607,125.034 174.807,132.856 192.727,117.56 191.936,108.494 	"/>
	<polygon fill="#FFFFFF" points="176.775,113.848 176.16,119.857 191.48,102.773 190.924,96.432 	"/>
	<polygon fill="#FFFFFF" points="161.707,139.114 160.387,145.162 167.529,139.069 168.68,132.053 	"/>
	<polygon fill="#FFFFFF" points="163.723,129.909 162.625,134.946 169.471,127.313 170.391,121.703 	"/>
	<polygon fill="#FFFFFF" points="154.395,146.524 153.092,151.392 156.914,148.129 158.248,142.619 	"/>
	<polygon fill="#FFFFFF" points="156.449,138.863 155.318,143.095 159.184,138.781 160.32,134.1 	"/>
	<polygon fill="#FFFFFF" points="149.883,151.093 148.686,155.151 151.061,153.124 152.326,148.618 	"/>
	<polygon fill="#FFFFFF" points="151.811,144.572 150.742,148.195 153.225,145.428 154.336,141.465 	"/>
	<polygon fill="#FFFFFF" points="146.824,154.193 145.734,157.669 147.355,156.287 148.508,152.486 	"/>
	<polygon fill="#FFFFFF" points="148.596,148.531 147.605,151.689 149.336,149.763 150.371,146.344 	"/>
	<polygon fill="#FFFFFF" points="144.609,156.436 143.623,159.473 144.797,158.47 145.842,155.188 	"/>
	<polygon fill="#FFFFFF" points="146.232,151.437 145.324,154.233 146.598,152.814 147.551,149.814 	"/>
	<polygon fill="#42929f" points="151.762,74.884 131.252,75.917 122.783,140.139 125.436,151.776 134.949,144.304 167.334,88.269 	
		"/>
	<polygon fill="#FFFFFF" points="146.229,111.699 140.176,114.771 146.938,95.595 154.484,93.421 	"/>
	<polygon fill="#FFFFFF" points="154.875,107.29 150.225,109.649 159.232,92.012 164.514,90.495 	"/>
	<polygon fill="#FFFFFF" points="139.197,127.26 134.736,130.198 137.432,122.558 142.725,119.454 	"/>
	<polygon fill="#FFFFFF" points="145.986,122.781 142.271,125.228 146.295,117.347 150.527,114.866 	"/>
	<polygon fill="#FFFFFF" points="135.498,135.445 131.984,138.004 133.426,133.917 137.449,131.133 	"/>
	<polygon fill="#FFFFFF" points="141.031,131.416 137.975,133.64 140.248,129.188 143.668,126.822 	"/>
	<polygon fill="#FFFFFF" points="133.217,140.496 130.32,142.719 131.219,140.176 134.453,137.763 	"/>
	<polygon fill="#FFFFFF" points="137.871,136.923 135.285,138.907 136.746,136.047 139.592,133.925 	"/>
	<polygon fill="#FFFFFF" points="131.672,143.923 129.209,145.876 129.82,144.142 132.523,142.036 	"/>
	<polygon fill="#FFFFFF" points="135.682,140.74 133.443,142.513 134.457,140.524 136.893,138.631 	"/>
	<polygon fill="#FFFFFF" points="130.551,146.399 128.412,148.138 128.854,146.88 131.174,145.021 	"/>
	<polygon fill="#FFFFFF" points="134.072,143.542 132.104,145.141 132.85,143.676 134.971,141.978 	"/>
	<polygon fill="#FFFFFF" points="133.854,107.462 136.752,113.599 143.164,94.302 138.531,87.958 	"/>
	<polygon fill="#FFFFFF" points="129.723,98.679 131.951,103.393 135.643,83.936 132.4,79.502 	"/>
	<polygon fill="#FFFFFF" points="129.871,124.066 131.596,129.123 134.15,121.436 131.867,115.739 	"/>
	<polygon fill="#FFFFFF" points="127.252,116.367 128.689,120.576 130.34,111.886 128.516,107.329 	"/>
	<polygon fill="#FFFFFF" points="127.777,132.803 128.986,136.979 130.354,132.865 128.879,128.199 	"/>
	<polygon fill="#FFFFFF" points="125.875,126.227 126.926,129.858 127.859,124.945 126.607,120.981 	"/>
	<polygon fill="#FFFFFF" points="126.484,138.19 127.41,141.723 128.26,139.164 127.184,135.274 	"/>
	<polygon fill="#FFFFFF" points="124.998,132.515 125.824,135.667 126.422,132.515 125.475,129.092 	"/>
	<polygon fill="#FFFFFF" points="125.607,141.847 126.355,144.898 126.936,143.153 126.09,139.834 	"/>
	<polygon fill="#FFFFFF" points="124.389,136.875 125.07,139.646 125.486,137.452 124.727,134.465 	"/>
	<polygon fill="#FFFFFF" points="124.973,144.491 125.6,147.174 126.021,145.909 125.326,143.019 	"/>
	<polygon fill="#FFFFFF" points="123.941,140.074 124.52,142.545 124.826,140.928 124.191,138.286 	"/>
	<path fill="#41686c" d="M210.387,87.204l-17.523-23.929l-29.189-5.261l-32.939,87.57l0.225,2.382l-3.74,11.509
		c0.023,0.701-0.313,2.717-0.535,3.36c3.654-0.966,6.482-0.425,8.652,2.021c2.297-2.396,7.299-8.079,7.301-8.082l3.85-1.347
		L210.387,87.204z"/>
	<path fill="#008cac" d="M143.625,112.969l-10.574-6.241l-11.963,2.765l1.768,38.693l0.262,2.573
		c2.277,2.395,4.043,4.988,4.104,8.719L143.625,112.969z"/>
	<polygon fill="#FFFFFF" points="133.666,128.98 130.426,131.424 132.389,119.426 136.604,117.352 	"/>
	<polygon fill="#FFFFFF" points="138.291,125.477 135.803,127.354 139.25,116.024 142.199,114.575 	"/>
	<polygon fill="#FFFFFF" points="131.164,138.879 128.846,141.079 129.629,136.297 132.418,133.914 	"/>
	<polygon fill="#FFFFFF" points="134.689,135.529 132.76,137.36 134.299,132.297 136.531,130.394 	"/>
	<polygon fill="#FFFFFF" points="129.848,144.088 128.045,145.963 128.465,143.405 130.541,141.343 	"/>
	<polygon fill="#FFFFFF" points="132.68,141.135 131.115,142.765 131.986,139.903 133.748,138.152 	"/>
	<polygon fill="#FFFFFF" points="129.035,147.301 127.564,148.915 127.824,147.323 129.475,145.561 	"/>
	<polygon fill="#FFFFFF" points="131.4,144.708 130.086,146.147 130.645,144.311 132.098,142.761 	"/>
	<polygon fill="#FFFFFF" points="128.484,149.48 127.24,150.889 127.418,149.805 128.787,148.28 	"/>
	<polygon fill="#FFFFFF" points="130.512,147.184 129.381,148.464 129.77,147.186 131,145.816 	"/>
	<polygon fill="#FFFFFF" points="127.016,151.714 126.887,152.501 127.961,151.253 128.186,150.376 	"/>
	<polygon fill="#FFFFFF" points="129.027,149.408 128.742,150.349 129.734,149.2 130.1,148.185 	"/>
	<polygon fill="#FFFFFF" points="126.738,153.239 126.637,153.868 127.494,152.875 127.674,152.174 	"/>
	<polygon fill="#FFFFFF" points="128.346,151.403 128.119,152.153 128.906,151.238 129.195,150.43 	"/>
	<polygon fill="#FFFFFF" points="126.59,154.424 126.514,154.888 127.15,154.152 127.281,153.634 	"/>
	<polygon fill="#FFFFFF" points="127.779,153.061 127.611,153.617 128.199,152.939 128.412,152.338 	"/>
	<polygon fill="#FFFFFF" points="125.936,127.788 128.287,131.094 130.031,119.062 126.639,115.815 	"/>
	<polygon fill="#FFFFFF" points="122.58,123.051 124.387,125.592 124.516,113.75 122.139,111.48 	"/>
	<polygon fill="#FFFFFF" points="125.338,137.98 126.885,140.776 127.58,135.982 125.637,132.867 	"/>
	<polygon fill="#FFFFFF" points="122.986,133.724 124.275,136.052 124.332,130.761 122.779,128.271 	"/>
	<polygon fill="#FFFFFF" points="125.023,143.344 126.176,145.675 126.545,143.11 125.188,140.517 	"/>
	<polygon fill="#FFFFFF" points="123.211,139.674 124.213,141.698 124.244,138.711 123.092,136.508 	"/>
	<polygon fill="#FFFFFF" points="124.83,146.651 125.746,148.635 125.977,147.038 124.934,144.86 	"/>
	<polygon fill="#FFFFFF" points="123.357,143.467 124.176,145.235 124.195,143.315 123.279,141.4 	"/>
	<polygon fill="#FFFFFF" points="124.695,148.896 125.459,150.614 125.615,149.527 124.77,147.659 	"/>
	<polygon fill="#FFFFFF" points="123.455,146.097 124.148,147.658 124.164,146.323 123.402,144.643 	"/>
	<polygon fill="#FFFFFF" points="124.602,150.52 125.254,152.032 125.367,151.244 124.654,149.615 	"/>
	<polygon fill="#FFFFFF" points="123.529,148.027 124.131,149.42 124.141,148.437 123.49,146.948 	"/>
	<polygon fill="#FFFFFF" points="173.025,113.254 163.508,115.592 179.297,90.829 190.625,90.243 	"/>
	<polygon fill="#FFFFFF" points="186.633,109.883 179.322,111.679 197.766,89.815 205.691,89.412 	"/>
	<polygon fill="#FFFFFF" points="158.043,132.842 150.805,135.515 157.096,125.649 165.559,123.017 	"/>
	<polygon fill="#FFFFFF" points="169.059,128.765 163.031,130.987 171.27,121.222 178.039,119.117 	"/>
	<polygon fill="#FFFFFF" points="150.16,143.147 144.375,145.596 147.742,140.315 154.314,137.718 	"/>
	<polygon fill="#FFFFFF" points="159.262,139.288 154.232,141.418 158.889,135.896 164.473,133.69 	"/>
	<polygon fill="#FFFFFF" points="145.297,149.504 140.494,151.684 142.588,148.402 147.93,146.063 	"/>
	<polygon fill="#FFFFFF" points="153.012,146 148.725,147.946 151.715,144.401 156.414,142.347 	"/>
	<polygon fill="#FFFFFF" points="141.998,153.818 137.896,155.759 139.322,153.521 143.814,151.443 	"/>
	<polygon fill="#FFFFFF" points="148.682,150.653 144.953,152.419 147.033,149.95 151.074,148.082 	"/>
	<polygon fill="#FFFFFF" points="139.611,156.937 136.033,158.68 137.068,157.057 140.941,155.199 	"/>
	<polygon fill="#FFFFFF" points="145.502,154.07 142.207,155.672 143.738,153.857 147.277,152.162 	"/>
	<polygon fill="#FFFFFF" points="157.006,103.243 159.076,112.823 174.408,87.775 169.973,77.339 	"/>
	<polygon fill="#FFFFFF" points="154.07,89.535 155.66,96.896 167.227,70.733 164.117,63.433 	"/>
	<polygon fill="#FFFFFF" points="145.967,125.297 146.738,132.974 152.848,122.996 151.504,114.234 	"/>
	<polygon fill="#FFFFFF" points="144.803,113.607 145.447,120 150.613,108.312 149.537,101.307 	"/>
	<polygon fill="#FFFFFF" points="140.16,136.898 140.496,143.172 143.766,137.83 143.221,130.785 	"/>
	<polygon fill="#FFFFFF" points="139.639,127.027 139.93,132.479 142.848,125.876 142.387,119.888 	"/>
	<polygon fill="#FFFFFF" points="136.578,144.057 136.727,149.329 138.758,146.008 138.518,140.181 	"/>
	<polygon fill="#FFFFFF" points="136.346,135.586 136.475,140.292 138.352,136.052 138.139,130.928 	"/>
	<polygon fill="#FFFFFF" points="134.146,148.913 134.201,153.452 135.588,151.186 135.484,146.239 	"/>
	<polygon fill="#FFFFFF" points="134.063,141.518 134.111,145.645 135.416,142.691 135.324,138.238 	"/>
	<polygon fill="#FFFFFF" points="132.391,152.425 132.395,156.404 133.396,154.764 133.369,150.469 	"/>
	<polygon fill="#FFFFFF" points="132.385,145.873 132.389,149.537 133.35,147.365 133.322,143.44 	"/>
	<polygon fill="#FFFFFF" points="137.258,159.831 134.063,161.389 134.988,159.938 138.445,158.282 	"/>
	<polygon fill="#FFFFFF" points="142.518,157.272 139.574,158.703 140.943,157.082 144.102,155.568 	"/>
	<polygon fill="#FFFFFF" points="130.811,155.803 130.811,159.357 131.709,157.893 131.684,154.057 	"/>
	<polygon fill="#FFFFFF" points="130.805,149.954 130.811,153.226 131.668,151.288 131.641,147.782 	"/>
	<path fill="#42929f" d="M192.93,124.457l-15.328-8.834c0,0-39.916,46.588-42.266,49.233c1.516,2.172,2.264,3.244,2.264,3.244
		l1.693,2.766c3.848-2.263,6.111-3.136,9.018-4.151l49.635-25.295L192.93,124.457z"/>
	<polygon fill="#FFFFFF" points="171.725,148.518 165.91,147.913 179.762,137.192 186.238,139.146 	"/>
	<polygon fill="#FFFFFF" points="180.043,149.366 175.574,148.901 190.334,140.344 194.865,141.714 	"/>
	<polygon fill="#FFFFFF" points="159.367,156.496 154.766,156.538 160.285,152.268 165.566,152.494 	"/>
	<polygon fill="#FFFFFF" points="166.373,156.425 162.541,156.461 169.135,152.637 173.357,152.819 	"/>
	<polygon fill="#FFFFFF" points="152.867,160.692 149.127,160.901 152.08,158.616 156.293,158.481 	"/>
	<polygon fill="#FFFFFF" points="158.752,160.359 155.5,160.541 159.229,158.381 162.809,158.268 	"/>
	<polygon fill="#FFFFFF" points="148.721,163.197 145.586,163.452 147.422,162.03 150.891,161.795 	"/>
	<polygon fill="#FFFFFF" points="153.758,162.783 150.959,163.013 153.352,161.624 156.402,161.417 	"/>
	<polygon fill="#FFFFFF" points="144.252,164.435 142.998,165.405 145.693,165.14 147.191,164.174 	"/>
	<polygon fill="#FFFFFF" points="149.301,163.985 147.633,164.949 150.082,164.711 151.945,163.748 	"/>
	<polygon fill="#FFFFFF" points="141.967,166.152 141.059,166.855 143.418,166.598 144.516,165.892 	"/>
	<polygon fill="#FFFFFF" points="146.355,165.701 145.131,166.412 147.303,166.177 148.686,165.461 	"/>
	<polygon fill="#FFFFFF" points="139.93,167.585 139.09,168.235 141.275,167.997 142.291,167.342 	"/>
	<polygon fill="#FFFFFF" points="143.994,167.166 142.859,167.825 144.871,167.605 146.15,166.945 	"/>
	<polygon fill="#FFFFFF" points="164.748,139.671 163.98,145.465 177.635,134.494 177.244,127.74 	"/>
	<polygon fill="#FFFFFF" points="165.861,131.384 165.271,135.837 177.033,123.48 176.76,118.756 	"/>
	<polygon fill="#FFFFFF" points="154.109,149.827 152.996,154.292 158.434,149.921 159.445,144.733 	"/>
	<polygon fill="#FFFFFF" points="155.811,143.03 154.883,146.75 160.139,141.229 160.945,137.079 	"/>
	<polygon fill="#FFFFFF" points="148.512,155.171 147.438,158.759 150.348,156.419 151.461,152.354 	"/>
	<polygon fill="#FFFFFF" points="150.207,149.523 149.273,152.644 152.242,149.523 153.189,146.069 	"/>
	<polygon fill="#FFFFFF" points="145.195,158.552 144.215,161.541 146.027,160.087 147.064,156.768 	"/>
	<polygon fill="#FFFFFF" points="146.771,153.749 145.896,156.418 147.805,154.417 148.719,151.496 	"/>
	<polygon fill="#FFFFFF" points="142.684,161.06 141.801,163.619 143.033,162.627 143.973,159.83 	"/>
	<polygon fill="#FFFFFF" points="144.123,156.894 143.32,159.218 144.646,157.824 145.492,155.307 	"/>
	<polygon fill="#FFFFFF" points="140.734,163.088 139.934,165.321 140.83,164.603 141.678,162.185 	"/>
	<polygon fill="#FFFFFF" points="142.051,159.408 141.314,161.467 142.293,160.44 143.066,158.232 	"/>
	<polygon fill="#FFFFFF" points="138.969,165.064 138.242,167.098 139.057,166.441 139.828,164.244 	"/>
	<polygon fill="#FFFFFF" points="140.168,161.719 139.498,163.591 140.387,162.659 141.09,160.647 	"/>
	<polygon fill="#008cac" points="66.669,62.105 47.601,76.34 80.913,143.608 90.98,153.094 95.309,139.761 90.297,64.933 	"/>
	<polygon fill="#FFFFFF" points="85.113,101.105 81.273,107.968 75.4,85.147 81.257,78.187 	"/>
	<polygon fill="#FFFFFF" points="90.588,91.279 87.637,96.552 84.917,73.765 89.02,68.896 	"/>
	<polygon fill="#FFFFFF" points="88.394,120.617 85.999,126.324 83.658,117.234 86.749,110.83 	"/>
	<polygon fill="#FFFFFF" points="92.036,111.925 90.041,116.677 88.824,106.496 91.296,101.376 	"/>
	<polygon fill="#FFFFFF" points="90.121,130.883 88.39,135.615 87.138,130.749 89.211,125.473 	"/>
	<polygon fill="#FFFFFF" points="92.842,123.433 91.337,127.548 90.65,121.794 92.414,117.311 	"/>
	<polygon fill="#FFFFFF" points="91.186,137.215 89.833,141.223 89.054,138.199 90.61,133.786 	"/>
	<polygon fill="#FFFFFF" points="93.356,130.771 92.149,134.351 91.708,130.657 93.075,126.775 	"/>
	<polygon fill="#FFFFFF" points="91.908,141.511 90.801,144.979 90.269,142.918 91.51,139.146 	"/>
	<polygon fill="#FFFFFF" points="92.399,136.441 92.706,139.013 93.714,135.859 93.515,133.047 	"/>
	<polygon fill="#FFFFFF" points="91.108,146.175 91.494,147.67 92.43,144.619 92.14,142.888 	"/>
	<polygon fill="#FFFFFF" points="92.884,140.512 93.112,142.403 93.975,139.594 93.829,137.508 	"/>
	<polygon fill="#FFFFFF" points="70.471,105.018 77.221,109.049 70.932,86.342 62.38,83.229 	"/>
	<polygon fill="#FFFFFF" points="60.826,99.232 66.012,102.329 57.003,81.224 51.02,79.049 	"/>
	<polygon fill="#FFFFFF" points="77.359,123.565 82.282,127.317 79.777,118.271 73.904,114.263 	"/>
	<polygon fill="#FFFFFF" points="69.867,117.848 73.968,120.973 69.944,111.541 65.248,108.335 	"/>
	<polygon fill="#FFFFFF" points="80.982,133.324 84.843,136.563 83.5,131.721 79.073,128.183 	"/>
	<polygon fill="#FFFFFF" points="74.908,128.225 78.264,131.04 75.991,125.711 72.226,122.705 	"/>
	<polygon fill="#FFFFFF" points="83.217,139.344 86.389,142.145 85.556,139.135 82.007,136.084 	"/>
	<polygon fill="#FFFFFF" points="78.123,134.843 80.953,137.343 79.494,133.92 76.373,131.238 	"/>
	<polygon fill="#FFFFFF" points="84.734,143.428 87.424,145.882 86.856,143.828 83.898,141.18 	"/>
	<polygon fill="#FFFFFF" points="80.35,139.43 82.795,141.659 81.781,139.277 79.121,136.895 	"/>
	<polygon fill="#FFFFFF" points="85.831,146.382 88.165,148.56 87.753,147.071 85.219,144.736 	"/>
	<polygon fill="#FFFFFF" points="81.986,142.798 84.137,144.802 83.39,143.05 81.073,140.917 	"/>
	<polygon fill="#155256" points="14.941,105.435 7.211,124.458 61.835,159.275 73.504,161.789 70.753,150.009 33.655,96.978 	"/>
	<polygon fill="#FFFFFF" points="45.969,126.009 46.195,132.792 31.672,118.559 32.892,110.801 	"/>
	<polygon fill="#FFFFFF" points="45.628,116.308 45.8,121.52 33.623,105.902 34.48,100.476 	"/>
	<polygon fill="#FFFFFF" points="57.101,138.955 57.878,144.241 52.092,138.571 51.518,132.462 	"/>
	<polygon fill="#FFFFFF" points="55.911,130.909 56.557,135.312 51.117,128.334 50.657,123.449 	"/>
	<polygon fill="#FFFFFF" points="62.958,145.767 63.79,150.035 60.695,147.001 59.872,142.177 	"/>
	<polygon fill="#FFFFFF" points="61.643,139.051 62.366,142.762 59.292,138.818 58.594,134.72 	"/>
	<polygon fill="#FFFFFF" points="66.57,149.97 67.362,153.535 65.435,151.646 64.615,147.695 	"/>
	<polygon fill="#FFFFFF" points="65.297,144.241 66.002,147.424 64.029,144.892 63.307,141.415 	"/>
	<polygon fill="#FFFFFF" points="69.021,152.819 69.75,155.876 68.438,154.591 67.671,151.25 	"/>
	<polygon fill="#FFFFFF" points="67.832,147.84 68.494,150.619 67.121,148.856 66.43,145.851 	"/>
	<polygon fill="#FFFFFF" points="70.794,154.882 71.463,157.555 70.511,156.622 69.808,153.732 	"/>
	<polygon fill="#FFFFFF" points="69.692,150.482 70.308,152.943 69.295,151.646 68.654,149.007 	"/>
	<polygon fill="#FFFFFF" points="36.9,135.434 43.685,135.397 28.907,121.433 21.201,122.951 	"/>
	<polygon fill="#FFFFFF" points="27.194,135.465 32.407,135.437 16.334,123.869 10.944,124.933 	"/>
	<polygon fill="#FFFFFF" points="50.266,146.059 55.577,146.632 49.69,141.068 43.561,140.729 	"/>
	<polygon fill="#FFFFFF" points="42.18,145.179 46.604,145.657 39.421,140.486 34.521,140.215 	"/>
	<polygon fill="#FFFFFF" points="57.296,151.649 61.593,152.316 58.443,149.341 53.591,148.703 	"/>
	<polygon fill="#FFFFFF" points="50.535,150.595 54.27,151.176 50.212,148.254 46.089,147.712 	"/>
	<polygon fill="#FFFFFF" points="61.634,155.098 65.227,155.75 63.269,153.899 59.287,153.231 	"/>
	<polygon fill="#FFFFFF" points="55.862,154.046 59.07,154.63 56.464,152.755 52.962,152.167 	"/>
	<polygon fill="#FFFFFF" points="64.578,157.438 67.66,158.05 66.324,156.787 62.957,156.15 	"/>
	<polygon fill="#FFFFFF" points="59.555,156.44 62.358,156.997 60.543,155.691 57.514,155.117 	"/>
	<polygon fill="#FFFFFF" points="66.706,159.13 69.402,159.696 68.435,158.78 65.521,158.188 	"/>
	<polygon fill="#FFFFFF" points="62.267,158.198 64.75,158.717 63.415,157.757 60.751,157.217 	"/>
	<path fill="#6baec6" d="M50.884,57.508L21.79,63.278L4.687,87.509l65.445,66.863l2.254,0.801l8.852,8.254
		c0.643,0.277,2.327,1.435,2.816,1.905c0.67-3.719,2.356-6.054,5.488-6.987c-1.198-3.094-4.236-10.028-4.238-10.033l0.404-4.056
		L50.884,57.508z"/>
	<path fill="#008cac" d="M46.02,128.902l-10.126,6.946l-2.552,12.014l35.819,14.75l2.44,0.849c3.133-1.054,6.229-1.557,9.636-0.034
		L46.02,128.902z"/>
	<polygon fill="#FFFFFF" points="56.323,144.697 57.168,148.666 47.124,141.815 47.025,137.121 	"/>
	<polygon fill="#FFFFFF" points="55.101,139.022 55.751,142.072 46.94,134.16 46.874,130.875 	"/>
	<polygon fill="#FFFFFF" points="64.236,151.148 65.25,154.178 61.248,151.447 60.266,147.913 	"/>
	<polygon fill="#FFFFFF" points="62.69,146.537 63.534,149.059 59.597,145.525 58.813,142.697 	"/>
	<polygon fill="#FFFFFF" points="68.401,154.541 69.339,156.967 67.198,155.506 66.206,152.753 	"/>
	<polygon fill="#FFFFFF" points="66.92,150.727 67.738,152.834 65.512,150.838 64.67,148.498 	"/>
	<polygon fill="#FFFFFF" points="70.969,156.635 71.809,158.651 70.477,157.743 69.579,155.503 	"/>
	<polygon fill="#FFFFFF" points="69.618,153.398 70.369,155.196 68.94,153.914 68.149,151.943 	"/>
	<polygon fill="#FFFFFF" points="72.711,158.056 73.463,159.779 72.555,159.159 71.753,157.274 	"/>
	<polygon fill="#FFFFFF" points="71.488,155.249 72.169,156.816 71.175,155.923 70.455,154.227 	"/>
	<polygon fill="#FFFFFF" points="74.115,160.332 74.773,160.781 74.097,159.279 73.397,158.708 	"/>
	<polygon fill="#FFFFFF" points="72.877,157.532 73.609,158.189 72.988,156.806 72.221,156.046 	"/>
	<polygon fill="#FFFFFF" points="75.382,161.227 75.908,161.583 75.37,160.387 74.809,159.931 	"/>
	<polygon fill="#FFFFFF" points="74.397,158.996 74.979,159.518 74.484,158.417 73.875,157.812 	"/>
	<polygon fill="#FFFFFF" points="76.391,161.862 76.782,162.128 76.382,161.241 75.967,160.901 	"/>
	<polygon fill="#FFFFFF" points="75.66,160.208 76.093,160.597 75.724,159.776 75.271,159.329 	"/>
	<polygon fill="#FFFFFF" points="51.975,151.199 55.967,150.465 45.797,143.799 41.421,145.503 	"/>
	<polygon fill="#FFFFFF" points="46.264,152.238 49.331,151.673 38.652,146.554 35.591,147.748 	"/>
	<polygon fill="#FFFFFF" points="60.96,156.049 64.147,155.826 60.095,153.172 56.454,153.615 	"/>
	<polygon fill="#FFFFFF" points="56.108,156.38 58.762,156.195 53.992,153.91 51.078,154.264 	"/>
	<polygon fill="#FFFFFF" points="63.197,157.256 65.688,158.602 68.287,158.542 66.12,157.119 	"/>
	<polygon fill="#FFFFFF" points="58.676,157.462 61.596,158.69 63.856,158.639 61.159,157.346 	"/>
	<polygon fill="#FFFFFF" points="67.025,159.321 68.603,160.174 70.788,160.181 69.437,159.298 	"/>
	<polygon fill="#FFFFFF" points="63.19,159.359 65.094,160.161 67.043,160.169 65.312,159.338 	"/>
	<polygon fill="#FFFFFF" points="70.581,161.241 72.459,161.277 71.542,160.676 69.492,160.653 	"/>
	<polygon fill="#FFFFFF" points="67.521,161.183 69.227,161.216 68.024,160.637 66.18,160.619 	"/>
	<polygon fill="#FFFFFF" points="72.012,162.014 73.661,162.063 72.994,161.627 71.216,161.585 	"/>
	<polygon fill="#FFFFFF" points="69.301,161.932 70.817,161.978 69.931,161.552 68.308,161.513 	"/>
	<polygon fill="#FFFFFF" points="58.703,102.378 56.8,111.994 41.032,87.219 45.287,76.704 	"/>
	<polygon fill="#FFFFFF" points="61.4,88.621 59.937,96.007 47.917,70.051 50.9,62.698 	"/>
	<polygon fill="#FFFFFF" points="70.125,124.236 69.487,131.925 63.205,122.056 64.395,113.273 	"/>
	<polygon fill="#FFFFFF" points="71.083,112.529 70.552,118.933 65.183,107.336 66.135,100.313 	"/>
	<polygon fill="#FFFFFF" points="76.132,135.734 75.908,142.014 72.544,136.729 72.966,129.677 	"/>
	<polygon fill="#FFFFFF" points="76.482,125.856 76.286,131.313 73.251,124.76 73.609,118.766 	"/>
	<polygon fill="#FFFFFF" points="79.838,142.83 79.784,148.104 77.693,144.818 77.833,138.99 	"/>
	<polygon fill="#FFFFFF" points="79.924,134.354 79.875,139.063 77.927,134.855 78.05,129.728 	"/>
	<polygon fill="#FFFFFF" points="80.955,149.94 82.379,152.181 82.356,147.643 80.969,144.992 	"/>
	<polygon fill="#FFFFFF" points="80.978,141.443 82.334,144.371 82.311,140.248 80.992,136.99 	"/>
	<polygon fill="#FFFFFF" points="83.205,153.479 84.239,155.103 84.172,151.121 83.161,149.185 	"/>
	<polygon fill="#FFFFFF" points="83.125,146.081 84.124,148.237 84.063,144.572 83.084,142.157 	"/>
	<polygon fill="#FFFFFF" points="42.861,112.667 52.418,114.839 36.199,90.356 24.862,89.969 	"/>
	<polygon fill="#FFFFFF" points="29.195,109.535 36.539,111.203 17.713,89.665 9.785,89.398 	"/>
	<polygon fill="#FFFFFF" points="58.182,131.991 65.466,134.536 59.004,124.782 50.497,122.298 	"/>
	<polygon fill="#FFFFFF" points="47.097,128.106 53.163,130.226 44.753,120.604 37.949,118.617 	"/>
	<polygon fill="#FFFFFF" points="66.244,142.157 72.071,144.504 68.611,139.285 61.996,136.802 	"/>
	<polygon fill="#FFFFFF" points="57.077,138.459 62.141,140.499 57.389,135.062 51.769,132.951 	"/>
	<polygon fill="#FFFFFF" points="71.217,148.429 76.056,150.522 73.907,147.278 68.525,145.034 	"/>
	<polygon fill="#FFFFFF" points="63.441,145.06 67.762,146.931 64.711,143.438 59.976,141.466 	"/>
	<polygon fill="#FFFFFF" points="74.59,152.685 78.727,154.553 77.26,152.339 72.734,150.342 	"/>
	<polygon fill="#FFFFFF" points="67.853,149.637 71.613,151.336 69.488,148.906 65.416,147.105 	"/>
	<polygon fill="#FFFFFF" points="77.031,155.761 80.639,157.44 79.576,155.836 75.671,154.048 	"/>
	<polygon fill="#FFFFFF" points="71.091,152.996 74.415,154.541 72.852,152.752 69.283,151.12 	"/>
	<polygon fill="#FFFFFF" points="84.939,156.583 85.862,158.033 85.803,154.479 84.899,152.747 	"/>
	<polygon fill="#FFFFFF" points="84.867,149.979 85.759,151.902 85.704,148.632 84.832,146.476 	"/>
	<polygon fill="#FFFFFF" points="79.425,158.621 82.647,160.121 81.699,158.688 78.212,157.091 	"/>
	<polygon fill="#FFFFFF" points="74.123,156.152 77.089,157.532 75.694,155.935 72.506,154.477 	"/>
	<path fill="#42929f" d="M77.268,89.074L62.787,99.232c0,0,25.352,55.865,26.756,59.112c2.607-0.454,3.898-0.681,3.898-0.681
		l3.219-0.364c-0.422-4.444-0.256-6.867,0.051-9.93l-1.947-55.674L77.268,89.074z"/>
	<polygon fill="#FFFFFF" points="90.114,118.46 87.107,123.475 83.247,106.392 87.754,101.346 	"/>
	<polygon fill="#FFFFFF" points="94.399,111.279 92.088,115.133 90.571,98.14 93.726,94.613 	"/>
	<polygon fill="#FFFFFF" points="92.122,133.03 90.215,137.22 88.676,130.411 91.116,125.723 	"/>
	<polygon fill="#FFFFFF" points="95.019,126.651 93.431,130.14 92.751,122.547 94.701,118.799 	"/>
	<polygon fill="#FFFFFF" points="93.178,140.696 91.788,144.175 90.963,140.531 92.623,136.657 	"/>
	<polygon fill="#FFFFFF" points="95.365,135.222 94.156,138.244 93.772,133.954 95.18,130.663 	"/>
	<polygon fill="#FFFFFF" points="93.695,145.513 92.602,148.464 92.09,146.198 93.342,142.954 	"/>
	<polygon fill="#FFFFFF" points="94.228,140.651 94.475,143.405 95.45,140.773 95.33,137.797 	"/>
	<polygon fill="#FFFFFF" points="92.929,150.086 93.278,151.631 94.179,149.078 93.934,147.313 	"/>
	<polygon fill="#FFFFFF" points="94.654,145.321 94.826,147.238 95.643,144.918 95.56,142.823 	"/>
	<polygon fill="#FFFFFF" points="93.52,152.884 93.773,154.003 94.537,151.756 94.361,150.463 	"/>
	<polygon fill="#FFFFFF" points="94.965,148.716 95.092,150.125 95.796,148.057 95.733,146.503 	"/>
	<polygon fill="#FFFFFF" points="93.957,155.335 94.192,156.371 94.901,154.289 94.737,153.092 	"/>
	<polygon fill="#FFFFFF" points="95.296,151.474 95.414,152.782 96.064,150.865 96.007,149.425 	"/>
	<polygon fill="#FFFFFF" points="79.147,121.044 84.075,124.188 79.901,107.178 73.616,104.677 	"/>
	<polygon fill="#FFFFFF" points="72.107,116.534 75.893,118.949 69.665,103.066 65.267,101.32 	"/>
	<polygon fill="#FFFFFF" points="83.856,134.979 87.431,137.874 85.769,131.097 81.494,127.989 	"/>
	<polygon fill="#FFFFFF" points="78.416,130.564 81.394,132.977 78.611,125.88 75.192,123.395 	"/>
	<polygon fill="#FFFFFF" points="86.333,142.311 89.131,144.801 88.241,141.174 85.028,138.446 	"/>
	<polygon fill="#FFFFFF" points="81.933,138.387 84.366,140.553 82.792,136.542 80.061,134.226 	"/>
	<polygon fill="#FFFFFF" points="87.997,146.744 90.292,148.896 89.739,146.641 87.169,144.297 	"/>
	<polygon fill="#FFFFFF" points="84.309,143.287 86.358,145.207 85.349,142.633 83.088,140.57 	"/>
	<polygon fill="#FFFFFF" points="89.208,150.082 91.154,151.966 90.776,150.429 88.636,148.393 	"/>
	<polygon fill="#FFFFFF" points="86.04,147.015 87.807,148.726 87.105,146.934 85.181,145.104 	"/>
	<polygon fill="#FFFFFF" points="90.22,152.705 91.908,154.375 91.634,153.259 89.801,151.471 	"/>
	<polygon fill="#FFFFFF" points="87.444,149.957 88.998,151.493 88.481,150.175 86.806,148.54 	"/>
	<polygon fill="#FFFFFF" points="91.267,155.14 92.802,156.657 92.553,155.643 90.886,154.015 	"/>
	<polygon fill="#FFFFFF" points="88.742,152.64 90.155,154.037 89.686,152.837 88.163,151.351 	"/>
	<polygon fill="#008cac" points="146.799,33.83 116.74,35.796 105.729,130.175 109.876,147.184 123.664,136.016 169.93,53.122 	"/>
	<polygon fill="#FFFFFF" points="139.49,87.948 130.682,92.584 140.178,64.311 151.199,60.958 	"/>
	<polygon fill="#FFFFFF" points="152.076,81.291 145.309,84.854 158.131,58.787 165.844,56.447 	"/>
	<polygon fill="#FFFFFF" points="129.521,110.924 123.043,115.331 126.824,104.068 134.521,99.4 	"/>
	<polygon fill="#FFFFFF" points="139.379,104.206 133.984,107.875 139.713,96.229 145.867,92.497 	"/>
	<polygon fill="#FFFFFF" points="124.277,123.013 119.176,126.842 121.201,120.813 127.041,116.642 	"/>
	<polygon fill="#FFFFFF" points="132.303,116.979 127.867,120.31 131.105,113.729 136.068,110.185 	"/>
	<polygon fill="#FFFFFF" points="121.043,130.469 116.842,133.792 118.102,130.046 122.793,126.433 	"/>
	<polygon fill="#FFFFFF" points="127.789,125.124 124.039,128.093 126.117,123.867 130.246,120.688 	"/>
	<polygon fill="#FFFFFF" points="118.846,135.528 115.279,138.445 116.137,135.891 120.055,132.742 	"/>
	<polygon fill="#FFFFFF" points="124.66,130.773 121.418,133.424 122.863,130.483 126.389,127.65 	"/>
	<polygon fill="#FFFFFF" points="117.26,139.187 114.16,141.779 114.781,139.926 118.145,137.147 	"/>
	<polygon fill="#FFFFFF" points="122.361,134.917 119.508,137.304 120.572,135.141 123.645,132.603 	"/>
	<polygon fill="#FFFFFF" points="121.248,82.007 125.637,90.94 134.613,62.498 127.682,53.299 	"/>
	<polygon fill="#FFFFFF" points="114.996,69.215 118.367,76.079 123.357,47.461 118.502,41.028 	"/>
	<polygon fill="#FFFFFF" points="115.771,106.445 118.412,113.822 121.99,102.491 118.518,94.188 	"/>
	<polygon fill="#FFFFFF" points="111.762,95.211 113.961,101.354 116.191,88.569 113.414,81.927 	"/>
	<polygon fill="#FFFFFF" points="112.891,119.305 114.758,125.403 116.672,119.338 114.408,112.529 	"/>
	<polygon fill="#FFFFFF" points="109.959,109.702 111.581,115.004 112.84,107.778 110.919,101.993 	"/>
	<polygon fill="#FFFFFF" points="111.114,127.234 112.552,132.395 113.74,128.625 112.076,122.941 	"/>
	<polygon fill="#FFFFFF" points="108.809,118.943 110.092,123.549 110.901,118.911 109.436,113.912 	"/>
	<polygon fill="#FFFFFF" points="109.909,132.616 111.073,137.076 111.883,134.505 110.572,129.652 	"/>
	<polygon fill="#FFFFFF" points="108.012,125.35 109.072,129.402 109.633,126.174 108.453,121.81 	"/>
	<polygon fill="#FFFFFF" points="109.038,136.508 110.014,140.43 110.604,138.565 109.523,134.34 	"/>
	<polygon fill="#FFFFFF" points="107.426,130.052 108.328,133.663 108.743,131.289 107.753,127.427 	"/>
	<polygon fill="#42929f" points="62.01,44.166 40.687,59.032 74.674,133.654 85.33,144.368 90.528,129.963 87.707,48.09 	"/>
	<polygon fill="#FFFFFF" points="80.766,87.399 76.33,94.755 70.725,69.634 77.369,62.239 	"/>
	<polygon fill="#FFFFFF" points="87.091,76.865 83.681,82.517 81.52,57.539 86.171,52.371 	"/>
	<polygon fill="#FFFFFF" points="83.658,108.818 80.839,114.965 78.606,104.956 82.208,98.074 	"/>
	<polygon fill="#FFFFFF" points="87.94,99.456 85.593,104.573 84.627,93.417 87.507,87.913 	"/>
	<polygon fill="#FFFFFF" points="85.177,120.086 83.12,125.191 81.925,119.837 84.376,114.149 	"/>
	<polygon fill="#FFFFFF" points="88.414,112.049 86.624,116.487 86.079,110.182 88.162,105.351 	"/>
	<polygon fill="#FFFFFF" points="86.116,127.038 84.5,131.368 83.755,128.037 85.61,123.274 	"/>
	<polygon fill="#FFFFFF" points="88.714,120.08 87.269,123.945 86.919,119.896 88.55,115.707 	"/>
	<polygon fill="#FFFFFF" points="86.753,131.754 85.42,135.502 84.914,133.231 86.403,129.157 	"/>
	<polygon fill="#FFFFFF" points="87.468,126.235 87.71,129.053 88.924,125.647 88.808,122.571 	"/>
	<polygon fill="#FFFFFF" points="85.714,136.817 86.081,138.466 87.214,135.165 86.958,133.265 	"/>
	<polygon fill="#FFFFFF" points="87.854,130.698 88.034,132.772 89.076,129.735 88.992,127.452 	"/>
	<polygon fill="#FFFFFF" points="64.64,91.15 71.868,95.793 65.806,70.778 56.58,67.076 	"/>
	<polygon fill="#FFFFFF" points="54.314,84.493 59.868,88.059 50.78,64.695 44.325,62.109 	"/>
	<polygon fill="#FFFFFF" points="71.502,111.646 76.747,115.916 74.331,105.952 68.061,101.366 	"/>
	<polygon fill="#FFFFFF" points="63.527,105.138 67.893,108.693 63.833,98.256 58.819,94.588 	"/>
	<polygon fill="#FFFFFF" points="75.114,122.429 79.214,126.101 77.921,120.767 73.211,116.747 	"/>
	<polygon fill="#FFFFFF" points="68.663,116.646 72.227,119.838 69.933,113.94 65.929,110.523 	"/>
	<polygon fill="#FFFFFF" points="77.341,129.079 80.705,132.25 79.902,128.934 76.135,125.479 	"/>
	<polygon fill="#FFFFFF" points="71.938,123.984 74.941,126.814 73.467,123.027 70.155,119.99 	"/>
	<polygon fill="#FFFFFF" points="78.852,133.593 81.703,136.366 81.154,134.105 78.019,131.109 	"/>
	<polygon fill="#FFFFFF" points="74.208,129.072 76.799,131.594 75.775,128.958 72.954,126.26 	"/>
	<polygon fill="#FFFFFF" points="79.945,136.856 82.417,139.316 82.02,137.678 79.334,135.037 	"/>
	<polygon fill="#FFFFFF" points="75.875,132.807 78.153,135.07 77.398,133.131 74.945,130.721 	"/>
	<path fill="#155256" d="M133.209,18.066L98.345,4.134L63.482,18.066l23.38,116.101l1.841,2.406l3.708,14.864
		c0.491,0.738,1.481,3.125,1.677,3.963c3.274-3.484,6.676-4.801,10.643-3.633c0.859-4.112,2.416-13.566,2.418-13.571l3.227-4.029
		L133.209,18.066z"/>
	<path fill="#008cac" d="M78.824,90.507l-15.538,0.393l-10.989,10.993l27.855,40.354l2.004,2.584
		c4.055,1.041,7.688,2.644,10.254,6.606L78.824,90.507z"/>
	<polygon fill="#FFFFFF" points="78.872,114.376 77.034,119.173 71.092,104.976 74.226,99.924 	"/>
	<polygon fill="#FFFFFF" points="81.488,107.511 80.075,111.195 76.176,96.721 78.371,93.188 	"/>
	<polygon fill="#FFFFFF" points="82.827,126.682 81.814,130.596 79.447,124.938 80.843,120.509 	"/>
	<polygon fill="#FFFFFF" points="84.363,120.721 83.52,123.979 81.777,117.512 82.895,113.971 	"/>
	<polygon fill="#FFFFFF" points="84.907,133.155 84.233,136.377 82.966,133.35 83.81,129.742 	"/>
	<polygon fill="#FFFFFF" points="85.966,128.084 85.379,130.884 84.395,127.23 85.114,124.166 	"/>
	<polygon fill="#FFFFFF" points="84.906,137.986 85.693,139.867 86.191,137.147 85.495,134.986 	"/>
	<polygon fill="#FFFFFF" points="85.913,132.859 86.544,135.205 86.988,132.778 86.43,130.223 	"/>
	<polygon fill="#FFFFFF" points="86.134,140.92 86.671,142.204 87.062,139.856 86.583,138.366 	"/>
	<polygon fill="#FFFFFF" points="86.901,136.534 87.34,138.166 87.697,136.033 87.305,134.235 	"/>
	<polygon fill="#FFFFFF" points="86.982,143.242 87.372,144.174 87.691,142.112 87.339,141.021 	"/>
	<polygon fill="#FFFFFF" points="87.598,139.414 87.922,140.615 88.215,138.72 87.925,137.385 	"/>
	<polygon fill="#FFFFFF" points="87.711,145.064 88.022,145.806 88.275,144.163 87.996,143.293 	"/>
	<polygon fill="#FFFFFF" points="88.203,142.017 88.458,142.974 88.694,141.462 88.463,140.398 	"/>
	<polygon fill="#FFFFFF" points="88.343,146.436 88.574,146.987 88.762,145.768 88.556,145.123 	"/>
	<polygon fill="#FFFFFF" points="88.708,144.175 88.898,144.886 89.074,143.763 88.902,142.974 	"/>
	<polygon fill="#FFFFFF" points="69.774,118.281 74.517,120.254 68.318,106.166 62.499,104.957 	"/>
	<polygon fill="#FFFFFF" points="62.995,115.448 66.64,116.963 58.833,104.165 54.761,103.322 	"/>
	<polygon fill="#FFFFFF" points="75.969,129.624 79.505,131.588 77.036,125.975 72.863,123.935 	"/>
	<polygon fill="#FFFFFF" points="70.59,126.632 73.535,128.267 70.046,122.547 66.708,120.918 	"/>
	<polygon fill="#FFFFFF" points="79.229,135.593 82.03,137.322 80.707,134.319 77.512,132.447 	"/>
	<polygon fill="#FFFFFF" points="74.824,132.867 77.258,134.37 75.287,131.141 72.572,129.551 	"/>
	<polygon fill="#FFFFFF" points="81.24,139.273 83.553,140.787 82.731,138.919 80.151,137.279 	"/>
	<polygon fill="#FFFFFF" points="77.523,136.842 79.589,138.191 78.323,136.116 76.053,134.678 	"/>
	<polygon fill="#FFFFFF" points="82.603,141.771 84.574,143.104 84.014,141.831 81.852,140.396 	"/>
	<polygon fill="#FFFFFF" points="79.395,139.598 81.186,140.81 80.305,139.366 78.361,138.075 	"/>
	<polygon fill="#FFFFFF" points="83.59,143.576 85.304,144.766 84.899,143.842 83.041,142.571 	"/>
	<polygon fill="#FFFFFF" points="80.769,141.621 82.347,142.714 81.7,141.652 80.002,140.491 	"/>
	<polygon fill="#FFFFFF" points="110.575,71.092 101.926,79.987 102.267,42.814 114.033,34.586 	"/>
	<polygon fill="#FFFFFF" points="122.922,58.345 116.275,65.179 121.412,29.336 129.648,23.587 	"/>
	<polygon fill="#FFFFFF" points="107.63,102.171 101.653,109.893 101.788,95.085 109.108,86.581 	"/>
	<polygon fill="#FFFFFF" points="116.721,90.403 111.743,96.834 114.035,80.821 119.889,74.022 	"/>
	<polygon fill="#FFFFFF" points="106.081,118.52 101.514,125.029 101.586,117.103 106.898,109.904 	"/>
	<polygon fill="#FFFFFF" points="113.264,108.273 109.292,113.932 110.59,104.883 115.102,98.766 	"/>
	<polygon fill="#FFFFFF" points="105.125,128.605 101.431,134.167 101.475,129.238 105.643,123.146 	"/>
	<polygon fill="#FFFFFF" points="111.058,119.669 107.76,124.634 108.592,118.824 112.257,113.464 	"/>
	<polygon fill="#FFFFFF" points="104.478,135.45 101.375,140.284 101.406,136.926 104.835,131.682 	"/>
	<polygon fill="#FFFFFF" points="109.53,127.569 106.709,131.966 107.289,127.92 110.375,123.203 	"/>
	<polygon fill="#FFFFFF" points="104.008,140.398 101.335,144.669 101.357,142.231 104.271,137.643 	"/>
	<polygon fill="#FFFFFF" points="108.408,133.369 105.945,137.299 106.371,134.325 109.035,130.13 	"/>
	<polygon fill="#FFFFFF" points="86.663,71.092 95.311,79.987 94.971,42.814 83.206,34.586 	"/>
	<polygon fill="#FFFFFF" points="74.316,58.345 80.961,65.179 75.827,29.336 67.591,23.587 	"/>
	<polygon fill="#FFFFFF" points="89.607,102.171 95.585,109.893 95.45,95.085 88.129,86.581 	"/>
	<polygon fill="#FFFFFF" points="80.517,90.403 85.495,96.834 83.202,80.821 77.348,74.022 	"/>
	<polygon fill="#FFFFFF" points="91.157,118.52 95.723,125.029 95.65,117.103 90.339,109.904 	"/>
	<polygon fill="#FFFFFF" points="83.974,108.273 87.945,113.932 86.648,104.883 82.136,98.766 	"/>
	<polygon fill="#FFFFFF" points="92.112,128.605 95.806,134.167 95.761,129.238 91.594,123.146 	"/>
	<polygon fill="#FFFFFF" points="86.18,119.669 89.477,124.634 88.645,118.824 84.98,113.464 	"/>
	<polygon fill="#FFFFFF" points="92.76,135.45 95.863,140.284 95.832,136.926 92.402,131.682 	"/>
	<polygon fill="#FFFFFF" points="87.708,127.569 90.527,131.966 89.949,127.92 86.863,123.203 	"/>
	<polygon fill="#FFFFFF" points="93.229,140.398 95.902,144.669 95.88,142.231 92.966,137.643 	"/>
	<polygon fill="#FFFFFF" points="88.83,133.369 91.292,137.299 90.867,134.325 88.204,130.13 	"/>
	<polygon fill="#FFFFFF" points="103.424,145.086 101.038,148.898 101.057,146.722 103.657,142.624 	"/>
	<polygon fill="#FFFFFF" points="107.352,138.81 105.155,142.319 105.534,139.662 107.912,135.916 	"/>
	<polygon fill="#FFFFFF" points="93.799,145.086 96.186,148.898 96.167,146.722 93.566,142.624 	"/>
	<polygon fill="#FFFFFF" points="89.871,138.81 92.069,142.319 91.689,139.662 89.312,135.916 	"/>
	<path fill="#42929f" d="M139.455,69.769l-22.375,0.798c0,0-11.602,76.785-12.349,81.201c3.082,1.314,4.608,1.965,4.608,1.965
		l3.668,1.832c2.615-5.009,4.461-7.466,6.898-10.506l36.313-60.446L139.455,69.769z"/>
	<polygon fill="#FFFFFF" points="132.834,109.818 126.186,113.07 133.863,92.271 142.127,90.022 	"/>
	<polygon fill="#FFFFFF" points="142.332,105.15 137.225,107.648 147.328,88.563 153.107,86.992 	"/>
	<polygon fill="#FFFFFF" points="124.92,126.672 120.01,129.804 123.066,121.517 128.891,118.22 	"/>
	<polygon fill="#FFFFFF" points="132.395,121.897 128.303,124.505 132.816,115.978 137.471,113.341 	"/>
	<polygon fill="#FFFFFF" points="120.758,135.538 116.881,138.271 118.52,133.836 122.951,130.866 	"/>
	<polygon fill="#FFFFFF" points="126.852,131.233 123.484,133.609 126.033,128.792 129.799,126.266 	"/>
	<polygon fill="#FFFFFF" points="117.986,141.009 114.791,143.386 115.809,140.629 119.375,138.046 	"/>
	<polygon fill="#FFFFFF" points="123.115,137.187 120.266,139.31 121.9,136.213 125.039,133.944 	"/>
	<polygon fill="#FFFFFF" points="116.039,145.126 113.324,147.216 114.018,145.335 116.998,143.083 	"/>
	<polygon fill="#FFFFFF" points="120.463,141.72 117.994,143.618 119.135,141.466 121.818,139.438 	"/>
	<polygon fill="#FFFFFF" points="114.576,148.216 112.215,150.074 112.716,148.713 115.279,146.721 	"/>
	<polygon fill="#FFFFFF" points="118.463,145.156 116.287,146.867 117.125,145.282 119.465,143.464 	"/>
	<polygon fill="#FFFFFF" points="113.213,151.156 111.028,152.878 111.494,151.616 113.865,149.771 	"/>
	<polygon fill="#FFFFFF" points="116.811,148.324 114.799,149.906 115.574,148.439 117.74,146.757 	"/>
	<polygon fill="#FFFFFF" points="119.408,105.002 122.473,111.737 129.77,90.801 124.822,83.814 	"/>
	<polygon fill="#FFFFFF" points="115.047,95.359 117.398,100.534 121.738,79.379 118.273,74.492 	"/>
	<polygon fill="#FFFFFF" points="114.803,123.041 116.602,128.58 119.51,120.242 117.113,113.993 	"/>
	<polygon fill="#FFFFFF" points="112.07,114.605 113.568,119.218 115.508,109.767 113.59,104.771 	"/>
	<polygon fill="#FFFFFF" points="112.377,132.532 113.631,137.104 115.188,132.642 113.654,127.53 	"/>
	<polygon fill="#FFFFFF" points="110.411,125.333 111.5,129.308 112.594,123.968 111.293,119.625 	"/>
	<polygon fill="#FFFFFF" points="111.085,138.387 112.04,142.252 113.008,139.478 111.895,135.218 	"/>
	<polygon fill="#FFFFFF" points="109.556,132.174 110.407,135.625 111.111,132.196 110.131,128.449 	"/>
	<polygon fill="#FFFFFF" points="110.071,142.764 110.839,146.105 111.5,144.213 110.63,140.578 	"/>
	<polygon fill="#FFFFFF" points="108.822,137.325 109.519,140.359 110.01,137.973 109.229,134.703 	"/>
	<polygon fill="#FFFFFF" points="109.338,146.248 109.979,149.185 110.457,147.811 109.747,144.647 	"/>
	<polygon fill="#FFFFFF" points="108.284,141.415 108.875,144.118 109.235,142.363 108.584,139.472 	"/>
	<polygon fill="#FFFFFF" points="108.771,149.553 109.354,152.223 109.789,150.976 109.142,148.098 	"/>
	<polygon fill="#FFFFFF" points="107.812,145.159 108.35,147.616 108.676,146.02 108.085,143.391 	"/>
</g>
</svg>
