<?xml version="1.0" encoding="utf-8"?>
<!-- Generator: Adobe Illustrator 16.0.0, SVG Export Plug-In . SVG Version: 6.00 Build 0)  -->
<!DOCTYPE svg PUBLIC "-//W3C//DTD SVG 1.1//EN" "http://www.w3.org/Graphics/SVG/1.1/DTD/svg11.dtd">
<svg version="1.1" id="Layer_1" xmlns="http://www.w3.org/2000/svg" xmlns:xlink="http://www.w3.org/1999/xlink" x="0px" y="0px"
	 width="24px" height="24px" viewBox="0 0 24 24" enable-background="new 0 0 24 24" xml:space="preserve">
<g>
	<polygon fill="#ffffff" points="13.287,19.22 15.374,17.136 16.888,20.054 17.987,19.483 16.53,16.674 19.346,16.674 
		13.287,11.117 	"/>
	<g>
		<defs>
			<rect id="SVGID_1_" x="4.397" y="3.945" width="15.205" height="16.109"/>
		</defs>
		<clipPath id="SVGID_2_">
			<use xlink:href="#SVGID_1_"  overflow="visible"/>
		</clipPath>
		<path clip-path="url(#SVGID_2_)" fill="#ffffff" d="M19.488,12.856c0.014-0.076,0.025-0.152,0.036-0.232
			c0.006-0.04,0.012-0.084,0.017-0.126c0.011-0.073,0.02-0.148,0.026-0.222c0.005-0.059,0.01-0.117,0.014-0.176
			c0.005-0.06,0.01-0.12,0.013-0.182c0.006-0.123,0.009-0.244,0.009-0.367c0-0.121-0.003-0.241-0.009-0.361
			c-0.003-0.075-0.01-0.148-0.016-0.225c-0.003-0.038-0.004-0.078-0.009-0.117c-0.008-0.097-0.02-0.19-0.033-0.287
			c-0.001-0.015-0.003-0.029-0.006-0.045c-0.014-0.101-0.028-0.199-0.045-0.298c-0.002-0.006-0.002-0.013-0.005-0.021l0,0
			c-0.6-3.334-3.368-5.913-6.794-6.22c-0.007,0-0.011,0-0.016,0c-0.104-0.01-0.208-0.019-0.314-0.022
			c-0.119-0.007-0.237-0.01-0.355-0.01c-0.12,0-0.239,0.003-0.355,0.01c-0.106,0.004-0.212,0.013-0.316,0.022
			c-0.005,0-0.01,0-0.016,0c-3.426,0.307-6.196,2.886-6.795,6.22c0,0.009-0.001,0.016-0.003,0.021
			c-0.018,0.099-0.034,0.197-0.046,0.298c-0.003,0.016-0.005,0.03-0.006,0.045c-0.013,0.097-0.026,0.19-0.033,0.287
			c-0.005,0.039-0.006,0.079-0.01,0.117c-0.006,0.076-0.012,0.149-0.015,0.225c-0.006,0.12-0.009,0.24-0.009,0.361
			c0,0.118,0.003,0.238,0.009,0.357c0.003,0.079,0.009,0.158,0.015,0.236c0.004,0.035,0.005,0.071,0.01,0.106
			c0.007,0.098,0.021,0.197,0.033,0.294c0.001,0.011,0.003,0.024,0.004,0.035c0.015,0.104,0.03,0.211,0.051,0.316
			c0,0.001,0,0.003,0,0.004c0.559,3.114,3.016,5.569,6.128,6.128c0.003,0,0.003,0.001,0.003,0.001
			c0.022,0.007,0.046,0.01,0.07,0.013c0.07,0.012,0.141,0.022,0.211,0.032c0.05,0.008,0.098,0.013,0.149,0.019
			c0.065,0.011,0.132,0.018,0.199,0.023c0.064,0.007,0.13,0.011,0.196,0.016c0.053,0.003,0.106,0.007,0.159,0.009
			c0.121,0.006,0.243,0.011,0.366,0.011h0.021v-0.07v-1.701c-0.006,0-0.014,0.003-0.021,0.003c-0.341,0-0.674-0.033-0.998-0.089
			c-0.25-0.765-0.479-1.77-0.622-3.017c0.523,0.035,1.064,0.052,1.62,0.052h0.021v-1.012h-0.021c-0.607,0-1.18-0.021-1.713-0.057
			c-0.036-0.534-0.056-1.104-0.056-1.71c0-0.607,0.02-1.179,0.056-1.713c0.533-0.037,1.105-0.057,1.713-0.057
			c0.604,0,1.174,0.02,1.708,0.056c0.002,0.031,0.005,0.06,0.006,0.091c0.156,0.054,0.304,0.142,0.428,0.257l0.624,0.571
			c-0.009-0.279-0.024-0.554-0.041-0.826c1.247,0.144,2.253,0.373,3.019,0.624c0.057,0.323,0.088,0.655,0.088,0.997
			c0,0.339-0.032,0.671-0.088,0.994c-0.237,0.077-0.498,0.153-0.783,0.226l0.596,0.546c0,0,0,0,0,0.001l1.405,1.289
			c0.237-0.539,0.411-1.11,0.519-1.704c0-0.002,0-0.002,0-0.002C19.483,12.886,19.487,12.872,19.488,12.856 M9.85,6.131
			C9.634,6.945,9.464,7.883,9.356,8.906C8.333,9.014,7.396,9.184,6.581,9.399C7.174,7.911,8.361,6.724,9.85,6.131 M9.85,16.97
			c-1.488-0.593-2.678-1.782-3.27-3.27c0.814,0.217,1.752,0.385,2.776,0.493C9.464,15.218,9.634,16.156,9.85,16.97 M9.271,13.169
			c-1.243-0.142-2.251-0.372-3.017-0.621c-0.055-0.324-0.087-0.657-0.087-0.996c0-0.342,0.032-0.674,0.089-0.997
			c0.764-0.251,1.771-0.48,3.015-0.624c-0.033,0.524-0.051,1.066-0.051,1.621C9.22,12.105,9.237,12.646,9.271,13.169 M12.001,8.77
			c-0.556,0-1.097,0.018-1.62,0.051c0.144-1.245,0.372-2.25,0.622-3.015c0.324-0.057,0.657-0.089,0.998-0.089
			c0.339,0,0.669,0.032,0.992,0.087c0.249,0.766,0.48,1.771,0.623,3.017C13.093,8.787,12.553,8.77,12.001,8.77 M14.642,8.906
			c-0.107-1.023-0.274-1.961-0.491-2.775c1.487,0.593,2.676,1.78,3.268,3.269C16.605,9.184,15.667,9.014,14.642,8.906"/>
	</g>
</g>
</svg>
