<?xml version="1.0" encoding="utf-8"?>
<!-- Generator: Adobe Illustrator 16.0.0, SVG Export Plug-In . SVG Version: 6.00 Build 0)  -->
<!DOCTYPE svg PUBLIC "-//W3C//DTD SVG 1.1//EN" "http://www.w3.org/Graphics/SVG/1.1/DTD/svg11.dtd">
<svg version="1.1" id="Layer_1" xmlns="http://www.w3.org/2000/svg" xmlns:xlink="http://www.w3.org/1999/xlink" x="0px" y="0px"
	 width="110px" height="110px" viewBox="0 0 110 110" enable-background="new 0 0 110 110" xml:space="preserve">
<g>
	<path fill="#FFFFFF" d="M24.276,93.668c1.099-3.121,2.209-6.238,3.3-9.366c1.879-5.415,3.749-10.824,5.601-16.246
		c0.208-0.646,0.507-0.957,1.188-1.076c2.041-0.367,4.071-0.842,6.209-1.287c0.641,1.984,1.28,3.917,1.88,5.874
		c0.061,0.215-0.092,0.523-0.168,0.771c-2.143,6.214-4.292,12.427-6.431,18.643c-0.18,0.53-0.419,0.81-1.011,0.909
		c-3.53,0.619-7.047,1.299-10.567,1.957V93.668z"/>
	<path fill="#FFFFFF" d="M85.718,93.846c-3.53-0.651-7.053-1.338-10.582-1.963c-0.507-0.089-0.735-0.301-0.896-0.792
		c-2.172-6.3-4.357-12.596-6.529-18.901c-0.087-0.268-0.171-0.612-0.087-0.863c0.556-1.853,1.157-3.679,1.778-5.624
		c1.386,0.285,2.738,0.538,4.088,0.842c1.01,0.217,2.247,0.201,2.938,0.833c0.672,0.604,0.789,1.894,1.132,2.895
		c2.6,7.526,5.2,15.056,7.811,22.582c0.09,0.278,0.229,0.541,0.353,0.819v0.173H85.718z"/>
	<path fill="#FFFFFF" d="M54.971,57.641c9.5,0.025,17.287-8.095,17.346-18.097c0.064-10.035-7.679-18.266-17.215-18.308
		c-9.619-0.039-17.429,8.095-17.438,18.171C37.653,49.452,45.403,57.606,54.971,57.641 M84.146,34.022
		c-1.53,1.841-2.991,3.59-4.511,5.409c1.491,1.782,2.961,3.558,4.5,5.405c-2.021,1.171-3.951,2.289-5.98,3.458
		c0.822,2.228,1.631,4.417,2.462,6.694c-2.27,0.376-4.464,0.735-6.657,1.096v7.168c-2.203-0.451-4.361-0.897-6.64-1.369
		c-0.723,2.245-1.453,4.464-2.2,6.79c-1.99-1.252-3.897-2.468-5.853-3.708c-1.431,1.868-2.819,3.689-4.27,5.593
		c-1.459-1.897-2.857-3.725-4.285-5.593c-1.949,1.241-3.852,2.448-5.839,3.716c-0.63-1.938-1.289-3.774-1.81-5.65
		c-0.251-0.912-0.561-1.199-1.49-0.954c-1.592,0.438-3.222,0.708-4.842,1.042c-0.219,0.045-0.438,0.059-0.708,0.095v-7.123
		c-2.161-0.354-4.351-0.719-6.657-1.102c0.818-2.233,1.619-4.4,2.458-6.684c-1.97-1.138-3.928-2.28-5.979-3.472
		c1.52-1.821,2.999-3.601,4.5-5.402c-1.501-1.792-2.961-3.549-4.5-5.397c1.411-0.817,2.759-1.606,4.121-2.39
		c1.867-1.076,1.867-1.076,1.098-3.158c-0.559-1.495-1.098-2.989-1.698-4.609c2.046-0.334,3.997-0.694,5.956-0.956
		c0.662-0.089,0.802-0.343,0.782-0.984c-0.081-1.786-0.092-3.585-0.131-5.378v-0.962c2.258,0.468,4.428,0.92,6.689,1.387
		c0.729-2.245,1.447-4.449,2.209-6.794c1.958,1.253,3.877,2.468,5.839,3.712c1.428-1.865,2.818-3.676,4.276-5.582
		c1.453,1.888,2.841,3.696,4.28,5.588c1.929-1.225,3.819-2.43,5.838-3.718c0.742,2.286,1.473,4.505,2.212,6.788
		c2.229-0.455,4.396-0.905,6.639-1.372c0,0.898,0.006,1.727,0,2.563c-0.021,1.28-0.012,2.551-0.069,3.828
		c-0.03,0.609,0.129,0.839,0.735,0.92c1.96,0.272,3.921,0.625,6.004,0.959c-0.688,1.871-1.351,3.641-2.008,5.417
		c-0.472,1.274-0.472,1.28,0.687,1.946C80.886,32.152,82.477,33.063,84.146,34.022"/>
	<path fill="#FFFFFF" d="M65.21,101.681c-1.061-3.062-2.059-5.934-3.051-8.8c-2.008-5.813-4.01-11.637-6.024-17.436
		c-0.192-0.554-0.159-0.921,0.209-1.378c1.218-1.538,2.387-3.116,3.646-4.777c1.42,0.906,2.822,1.79,4.199,2.713
		c0.189,0.122,0.276,0.448,0.352,0.697c2.26,6.524,4.518,13.05,6.747,19.579c0.112,0.301,0.168,0.779,0.01,0.991
		C69.337,96.043,67.328,98.776,65.21,101.681"/>
	<path fill="#FFFFFF" d="M44.703,101.586c-2.041-2.794-4.028-5.515-5.99-8.253c-0.13-0.186-0.12-0.574-0.041-0.814
		c2.289-6.679,4.601-13.349,6.91-20.009c0.08-0.25,0.231-0.529,0.421-0.654c1.291-0.858,2.599-1.679,3.979-2.563
		c1.347,1.756,2.668,3.479,3.957,5.221c0.103,0.141,0.063,0.457-0.009,0.663c-2.998,8.729-6.02,17.448-9.038,26.169
		C44.874,101.396,44.823,101.436,44.703,101.586"/>
	<path fill="#FFFFFF" d="M61.779,49.745c-1.918-1.061-3.774-2.02-5.564-3.109c-0.882-0.538-1.563-0.526-2.442,0.005
		c-1.787,1.09-3.649,2.044-5.639,3.141c0.356-2.242,0.622-4.319,1.051-6.353c0.259-1.189,0.047-1.977-0.82-2.837
		c-1.471-1.438-2.77-3.066-4.12-4.581c1.79-0.279,3.77-0.661,5.759-0.861c1.132-0.114,1.789-0.538,2.25-1.668
		c0.792-1.939,1.751-3.8,2.71-5.829c0.197,0.361,0.352,0.6,0.472,0.855c0.887,1.874,1.779,3.742,2.638,5.632
		c0.229,0.511,0.49,0.781,1.07,0.859c2.259,0.307,4.506,0.68,6.759,1.032c0.106,0.128,0.218,0.254,0.318,0.379
		c-0.264,0.114-0.592,0.162-0.781,0.354c-1.488,1.486-2.938,3.012-4.416,4.5c-0.352,0.351-0.463,0.668-0.363,1.192
		c0.392,2.139,0.721,4.299,1.071,6.447C61.771,49.14,61.758,49.382,61.779,49.745"/>
</g>
</svg>
