<?xml version="1.0" encoding="utf-8"?>
<!-- Generator: Adobe Illustrator 16.0.0, SVG Export Plug-In . SVG Version: 6.00 Build 0)  -->
<!DOCTYPE svg PUBLIC "-//W3C//DTD SVG 1.1//EN" "http://www.w3.org/Graphics/SVG/1.1/DTD/svg11.dtd">
<svg version="1.1" id="Layer_1" xmlns="http://www.w3.org/2000/svg" xmlns:xlink="http://www.w3.org/1999/xlink" x="0px" y="0px"
	 width="24px" height="24px" viewBox="0 0 24 24" enable-background="new 0 0 24 24" xml:space="preserve">
<path fill="#f15a30" d="M5.483,4.03c1.242,0,2.006,0.811,2.031,1.871c0,1.042-0.789,1.874-2.054,1.874H5.438
	c-1.216,0-2.003-0.832-2.003-1.874C3.435,4.841,4.248,4.03,5.483,4.03 M9.279,9.254h3.625v1.535c0.482-0.74,1.345-1.786,3.269-1.786
	c2.383,0,4.171,1.543,4.171,4.875v6.212h-3.625v-5.794c0-1.457-0.523-2.457-1.833-2.457c-1.001,0-1.6,0.676-1.86,1.32
	c-0.096,0.235-0.121,0.557-0.121,0.877v6.054H9.279C9.279,20.09,9.329,10.269,9.279,9.254 M7.277,20.09H3.648V9.254h3.629V20.09z
	 M1.774,24h20.452C23.207,24,24,23.234,24,22.277V1.722C24,0.771,23.207,0,22.227,0H1.774C0.794,0,0,0.771,0,1.722v20.555
	C0,23.234,0.794,24,1.774,24"/>
</svg>
