<svg xmlns="http://www.w3.org/2000/svg" xmlns:xlink="http://www.w3.org/1999/xlink" width="65" height="57" viewBox="0 0 65 57">
  <defs>
    <style>
      .cls-1 {
        fill: none;
        stroke: #0d83dd;
        stroke-width: 1px;
        fill-rule: evenodd;
      }
    </style>
    <clipPath id="clip-path">
      <rect width="65" height="57"/>
    </clipPath>
  </defs>
  <g clip-path="url(#clip-path)">
    <path id="accomplishment.svg" class="cls-1" d="M22.476,25.827l1.281-.007,0.646-1.1a5.055,5.055,0,0,1,1.22-1.4L31.041,13.3,24.556,1.307A2.575,2.575,0,0,0,21.4.122L11.044,3.959A2.552,2.552,0,0,0,9.769,7.723L21.352,25.968A5.206,5.206,0,0,1,22.476,25.827ZM55.493,5.539a2.561,2.561,0,0,0-1.538-1.58L43.6,0.122a2.573,2.573,0,0,0-3.159,1.185L29.146,22.2a5.161,5.161,0,0,1,2.245.654L32.5,23.487l1.108-.63A5.154,5.154,0,0,1,40.6,24.72l0.644,1.1,1.279,0.006a5.072,5.072,0,0,1,1.126.141L55.229,7.723A2.543,2.543,0,0,0,55.493,5.539ZM47.45,35.04l-2.373-1.377-0.015-2.734a2.563,2.563,0,0,0-2.556-2.543l-2.745-.014L38.378,26.01a2.577,2.577,0,0,0-3.5-.932L32.5,26.434l-2.383-1.357a2.575,2.575,0,0,0-3.494.932L25.237,28.37l-2.745.016a2.565,2.565,0,0,0-2.556,2.543l-0.014,2.734L17.549,35.04a2.551,2.551,0,0,0-.936,3.48l1.362,2.372-1.363,2.372a2.552,2.552,0,0,0,.936,3.479l2.373,1.379,0.014,2.732A2.564,2.564,0,0,0,22.492,53.4l2.745,0.014,1.383,2.362a2.578,2.578,0,0,0,3.5.931L32.5,55.35l2.382,1.357a2.577,2.577,0,0,0,3.495-.931l1.384-2.363,2.747-.015a2.563,2.563,0,0,0,2.555-2.544l0.015-2.733,2.372-1.377a2.551,2.551,0,0,0,.935-3.479l-1.363-2.372,1.363-2.372A2.551,2.551,0,0,0,47.45,35.04Zm-5.17,3.91-4.895,3.544,1.869,5.725a1.21,1.21,0,0,1-1.86,1.346L32.5,46.023l-4.9,3.542a1.216,1.216,0,0,1-1.422,0,1.2,1.2,0,0,1-.439-1.346l1.869-5.725L22.717,38.95a1.2,1.2,0,0,1-.438-1.347,1.211,1.211,0,0,1,1.149-.831h6.051l1.87-5.728a1.212,1.212,0,0,1,2.3,0l1.869,5.728h6.049A1.2,1.2,0,0,1,42.28,38.95Z"/>
  </g>
</svg>
