<svg xmlns="http://www.w3.org/2000/svg" width="65" height="57" viewBox="0 0 65 57">
  <defs>
    <style>
      .cls-1 {
        fill: none;
        stroke: #0d83dd;
        stroke-width: 1px;
        fill-rule: evenodd;
      }
    </style>
  </defs>
  <path id="activity.svg" class="cls-1" d="M17.93,16.225a6.844,6.844,0,1,1-6.837-6.843A6.843,6.843,0,0,1,17.93,16.225Zm29.959,0a6.847,6.847,0,1,0,6.836-6.843A6.842,6.842,0,0,0,47.889,16.225ZM29.126,39.745a4.716,4.716,0,0,1,1.356-3.784c-5.792-1.106-8.168-3.931-10.232-6.485a14.979,14.979,0,0,0-3.229-3.285,0.522,0.522,0,0,1-.117-0.055,6.211,6.211,0,0,0-3.965-1.463h-3.7a6.238,6.238,0,0,0-6.226,6.216V48.149H19.17V37a21.068,21.068,0,0,0,10.814,4.881A4.7,4.7,0,0,1,29.126,39.745ZM56.585,24.672h-3.71a6.161,6.161,0,0,0-3.951,1.463c-0.043.031-.086,0.031-0.117,0.055a14.907,14.907,0,0,0-3.239,3.285c-2.266,2.8-4.835,6-12.021,6.8a2.966,2.966,0,0,0,.327,5.913c0.107,0,.218-0.008.335-0.015,6.088-.677,9.856-2.842,12.449-5.139V48.149H62.805V30.889A6.237,6.237,0,0,0,56.585,24.672Z" transform="translate(-0.406 -0.266)"/>
</svg>
