<svg xmlns="http://www.w3.org/2000/svg" xmlns:xlink="http://www.w3.org/1999/xlink" width="65" height="57" viewBox="0 0 65 57">
  <defs>
    <style>
      .cls-1 {
        fill: none;
        stroke: #0d83dd;
        stroke-width: 1px;
        fill-rule: evenodd;
      }
    </style>
    <clipPath id="clip-path">
      <rect x="-0.25" width="65" height="57"/>
    </clipPath>
  </defs>
  <g clip-path="url(#clip-path)">
    <path id="dreamJob.svg" class="cls-1" d="M28.722,41.815H4.944a6.038,6.038,0,0,1-1.625-.223V53.045A3.942,3.942,0,0,0,7.254,57H58.745a3.942,3.942,0,0,0,3.934-3.95V41.592a6.036,6.036,0,0,1-1.625.223H37.276c0,0.031,0,.063,0,0.094v2.58a2.15,2.15,0,0,1-2.146,2.155H30.866a2.15,2.15,0,0,1-2.146-2.155v-2.58C28.72,41.877,28.721,41.846,28.722,41.815ZM1.01,12.235V35.71a3.951,3.951,0,0,0,2.31,3.6,3.906,3.906,0,0,0,1.625.353h56.11a3.906,3.906,0,0,0,1.625-.353,3.95,3.95,0,0,0,2.31-3.6V12.235a3.943,3.943,0,0,0-3.934-3.951H47.091V4.313A4.306,4.306,0,0,0,42.8,0H23.2a4.306,4.306,0,0,0-4.292,4.31V8.284H4.944A3.943,3.943,0,0,0,1.01,12.235ZM23.2,7.208V4.313H42.8V8.284H23.2V7.208Z" transform="translate(-0.25)"/>
  </g>
</svg>
