<svg xmlns="http://www.w3.org/2000/svg" xmlns:xlink="http://www.w3.org/1999/xlink" width="65" height="57" viewBox="0 0 65 57">
  <defs>
    <style>
      .cls-1 {
        fill: none;
        stroke: #0d83dd;
        stroke-width: 1px;
        fill-rule: evenodd;
      }
    </style>
    <clipPath id="clip-path">
      <rect x="-0.047" width="65" height="57"/>
    </clipPath>
  </defs>
  <g clip-path="url(#clip-path)">
    <path id="idealCompany.svg" class="cls-1" d="M21.655-.123H11.822a2.008,2.008,0,0,0-1.457.6A1.948,1.948,0,0,0,9.75,1.915V54.939a1.943,1.943,0,0,0,.615,1.434,2.008,2.008,0,0,0,1.457.606H25.665a3.469,3.469,0,0,1-.081-0.73V46.963a3.266,3.266,0,0,1,1.032-2.408,3.376,3.376,0,0,1,2.446-1.016H36.02a3.384,3.384,0,0,1,2.447,1.016A3.273,3.273,0,0,1,39.5,46.963v9.286a3.4,3.4,0,0,1-.082.73H53.261a2.013,2.013,0,0,0,1.457-.606,1.948,1.948,0,0,0,.615-1.434V1.915A1.948,1.948,0,0,0,54.719.482a2.013,2.013,0,0,0-1.458-.6H21.655ZM49.767,38.394a1.217,1.217,0,0,1-.884.367H46.369a1.219,1.219,0,0,1-.884-0.367,1.177,1.177,0,0,1-.373-0.87V35.049a1.18,1.18,0,0,1,.373-0.87,1.22,1.22,0,0,1,.884-0.368h2.514a1.219,1.219,0,0,1,.884.368,1.182,1.182,0,0,1,.374.87v2.474A1.177,1.177,0,0,1,49.767,38.394Zm0.374,6.554v2.475a1.175,1.175,0,0,1-.374.869,1.213,1.213,0,0,1-.884.367H46.369a1.215,1.215,0,0,1-.884-0.367,1.176,1.176,0,0,1-.373-0.869V44.947a1.178,1.178,0,0,1,.373-0.869,1.22,1.22,0,0,1,.884-0.368h2.514a1.219,1.219,0,0,1,.884.368A1.181,1.181,0,0,1,50.14,44.947ZM49.767,28.495a1.214,1.214,0,0,1-.884.368H46.369a1.216,1.216,0,0,1-.884-0.368,1.175,1.175,0,0,1-.373-0.87V25.151a1.178,1.178,0,0,1,.373-0.87,1.218,1.218,0,0,1,.884-0.368h2.514a1.217,1.217,0,0,1,.884.368,1.181,1.181,0,0,1,.374.87v2.474A1.176,1.176,0,0,1,49.767,28.495Zm0-9.9a1.214,1.214,0,0,1-.884.368H46.369a1.216,1.216,0,0,1-.884-0.368,1.175,1.175,0,0,1-.373-0.87V15.252a1.18,1.18,0,0,1,.373-0.87,1.219,1.219,0,0,1,.884-0.367h2.514a1.218,1.218,0,0,1,.884.367,1.183,1.183,0,0,1,.374.87v2.474A1.176,1.176,0,0,1,49.767,18.6Zm0-9.9a1.213,1.213,0,0,1-.884.367H46.369A1.215,1.215,0,0,1,45.485,8.7a1.176,1.176,0,0,1-.373-0.87V5.354a1.178,1.178,0,0,1,.373-0.87,1.221,1.221,0,0,1,.884-0.367h2.514a1.22,1.22,0,0,1,.884.367,1.182,1.182,0,0,1,.374.87V7.829A1.177,1.177,0,0,1,49.767,8.7ZM35.055,15.252a1.179,1.179,0,0,1,.373-0.87,1.217,1.217,0,0,1,.883-0.367h2.514a1.221,1.221,0,0,1,.884.367,1.181,1.181,0,0,1,.373.87v2.474a1.174,1.174,0,0,1-.373.87,1.217,1.217,0,0,1-.884.368H36.312a1.213,1.213,0,0,1-.883-0.368,1.174,1.174,0,0,1-.373-0.87V15.252Zm0,9.9a1.177,1.177,0,0,1,.373-0.87,1.216,1.216,0,0,1,.883-0.368h2.514a1.22,1.22,0,0,1,.884.368,1.179,1.179,0,0,1,.373.87v2.474a1.174,1.174,0,0,1-.373.87,1.217,1.217,0,0,1-.884.368H36.312a1.213,1.213,0,0,1-.883-0.368,1.174,1.174,0,0,1-.373-0.87V25.151ZM19.6,38.394a1.218,1.218,0,0,1-.884.367H16.2a1.216,1.216,0,0,1-.883-0.367,1.177,1.177,0,0,1-.374-0.87V35.049a1.18,1.18,0,0,1,.374-0.87,1.218,1.218,0,0,1,.883-0.368h2.514a1.221,1.221,0,0,1,.884.368,1.183,1.183,0,0,1,.373.87v2.474A1.178,1.178,0,0,1,19.6,38.394Zm0.373,6.554v2.475a1.176,1.176,0,0,1-.373.869,1.215,1.215,0,0,1-.884.367H16.2a1.212,1.212,0,0,1-.883-0.367,1.174,1.174,0,0,1-.374-0.869V44.947a1.177,1.177,0,0,1,.374-0.869A1.218,1.218,0,0,1,16.2,43.71h2.514a1.22,1.22,0,0,1,.884.368A1.182,1.182,0,0,1,19.971,44.947ZM19.6,28.495a1.215,1.215,0,0,1-.884.368H16.2a1.213,1.213,0,0,1-.883-0.368,1.175,1.175,0,0,1-.374-0.87V25.151a1.178,1.178,0,0,1,.374-0.87,1.216,1.216,0,0,1,.883-0.368h2.514a1.219,1.219,0,0,1,.884.368,1.181,1.181,0,0,1,.373.87v2.474A1.177,1.177,0,0,1,19.6,28.495Zm0-9.9a1.216,1.216,0,0,1-.884.368H16.2a1.213,1.213,0,0,1-.883-0.368,1.174,1.174,0,0,1-.374-0.87V15.252a1.18,1.18,0,0,1,.374-0.87,1.217,1.217,0,0,1,.883-0.367h2.514a1.22,1.22,0,0,1,.884.367,1.183,1.183,0,0,1,.373.87v2.474A1.177,1.177,0,0,1,19.6,18.6Zm0-9.9a1.215,1.215,0,0,1-.884.367H16.2A1.212,1.212,0,0,1,15.316,8.7a1.176,1.176,0,0,1-.374-0.87V5.354a1.178,1.178,0,0,1,.374-0.87A1.219,1.219,0,0,1,16.2,4.117h2.514a1.222,1.222,0,0,1,.884.367,1.183,1.183,0,0,1,.373.87V7.829A1.178,1.178,0,0,1,19.6,8.7Zm10.43,28.825a1.18,1.18,0,0,1-.373.87,1.222,1.222,0,0,1-.885.367H26.256a1.218,1.218,0,0,1-.884-0.367A1.179,1.179,0,0,1,25,37.524V35.049a1.182,1.182,0,0,1,.373-0.87,1.221,1.221,0,0,1,.884-0.368H28.77a1.225,1.225,0,0,1,.885.368,1.185,1.185,0,0,1,.373.87v2.474Zm0-9.9a1.179,1.179,0,0,1-.373.87,1.219,1.219,0,0,1-.885.368H26.256a1.215,1.215,0,0,1-.884-0.368A1.177,1.177,0,0,1,25,27.625V25.151a1.18,1.18,0,0,1,.373-0.87,1.219,1.219,0,0,1,.884-0.368H28.77a1.223,1.223,0,0,1,.885.368,1.183,1.183,0,0,1,.373.87v2.474Zm0-9.9a1.179,1.179,0,0,1-.373.87,1.219,1.219,0,0,1-.885.368H26.256a1.216,1.216,0,0,1-.884-0.368A1.177,1.177,0,0,1,25,17.727V15.252a1.182,1.182,0,0,1,.373-0.87,1.22,1.22,0,0,1,.884-0.367H28.77a1.223,1.223,0,0,1,.885.367,1.185,1.185,0,0,1,.373.87v2.474Zm8.8,21.034H36.313a1.217,1.217,0,0,1-.884-0.367,1.178,1.178,0,0,1-.373-0.87V35.049a1.181,1.181,0,0,1,.373-0.87,1.22,1.22,0,0,1,.884-0.368h2.515a1.221,1.221,0,0,1,.883.368,1.181,1.181,0,0,1,.373.87v2.474a1.177,1.177,0,0,1-.373.87A1.219,1.219,0,0,1,38.827,38.761ZM35.055,5.346a1.179,1.179,0,0,1,.373-0.87,1.217,1.217,0,0,1,.883-0.367h2.514a1.222,1.222,0,0,1,.884.367,1.181,1.181,0,0,1,.373.87V7.821a1.174,1.174,0,0,1-.373.87,1.217,1.217,0,0,1-.884.368H36.312a1.213,1.213,0,0,1-.883-0.368,1.174,1.174,0,0,1-.373-0.87V5.346ZM30.027,7.821a1.179,1.179,0,0,1-.373.87,1.219,1.219,0,0,1-.885.368H26.256a1.215,1.215,0,0,1-.884-0.368A1.177,1.177,0,0,1,25,7.821V5.346a1.181,1.181,0,0,1,.373-0.87,1.22,1.22,0,0,1,.884-0.367H28.77a1.224,1.224,0,0,1,.885.367,1.185,1.185,0,0,1,.373.87V7.821Z" transform="translate(-0.047)"/>
  </g>
</svg>
