<svg xmlns="http://www.w3.org/2000/svg" xmlns:xlink="http://www.w3.org/1999/xlink" width="65" height="57" viewBox="0 0 65 57">
  <defs>
    <style>
      .cls-1 {
        fill: none;
        stroke: #0d83dd;
        stroke-width: 1px;
        fill-rule: evenodd;
      }
    </style>
    <clipPath id="clip-path">
      <rect x="-0.5" width="65" height="57"/>
    </clipPath>
  </defs>
  <g clip-path="url(#clip-path)">
    <path id="skills.svg" class="cls-1" d="M18.478,23.993a5.021,5.021,0,0,1,4.243,1.453l2.805,2.835,2.653-2.67-3.834-3.862a1.559,1.559,0,0,1,0-2.185,1.52,1.52,0,0,1,2.163,0l3.833,3.874,2.653-2.669-2.817-2.847a5.147,5.147,0,0,1-1.438-4.287A12.143,12.143,0,0,0,25.35,3.524a11.837,11.837,0,0,0-10.2-3.4,0.722,0.722,0,0,0-.4,1.217l3.612,3.65a4.46,4.46,0,0,1,0,6.272L16.14,13.5a4.349,4.349,0,0,1-6.206,0L6.311,9.855a0.711,0.711,0,0,0-1.2.4A12.12,12.12,0,0,0,8.473,20.568,11.859,11.859,0,0,0,18.478,23.993ZM40.941,28.8l-2.653,2.67L54.044,47.391a1.559,1.559,0,0,1,0,2.185,1.519,1.519,0,0,1-2.162,0L36.126,33.655l-2.653,2.669L49.707,52.73a5.223,5.223,0,0,0,7.445-.011,5.369,5.369,0,0,0,.012-7.524Zm6.089-10.63h7l7-14.139L57.539,0.5l-14,7.064v7.075L24.509,33.808,21.084,30.36,7.292,44.3a7.483,7.483,0,0,0,0,10.512,7.3,7.3,0,0,0,10.4,0L31.486,40.872,27.992,37.34Z" transform="translate(-0.5)"/>
  </g>
</svg>
