<svg xmlns="http://www.w3.org/2000/svg" xmlns:xlink="http://www.w3.org/1999/xlink" width="65" height="57" viewBox="0 0 65 57">
  <defs>
    <style>
      .cls-1 {
        fill: none;
        stroke: #0d83dd;
        stroke-width: 1px;
        fill-rule: evenodd;
      }
    </style>
    <clipPath id="clip-path">
      <rect x="-0.5" y="-0.266" width="65" height="57"/>
    </clipPath>
  </defs>
  <g clip-path="url(#clip-path)">
    <path id="socialHandies.svg" class="cls-1" d="M57.963,17.759a5.349,5.349,0,0,0-5.337-5.36,5.289,5.289,0,0,0-4.018,1.84L38.058,8.1a5.342,5.342,0,1,0-10.39-1.726,5.3,5.3,0,0,0,.284,1.714L17.4,14.227a5.346,5.346,0,1,0-5.167,8.755l0.012,12.023a5.355,5.355,0,1,0,5.087,8.823l10.585,6.137a5.337,5.337,0,1,0,10.151,0l10.584-6.137a5.347,5.347,0,1,0,5-8.845V23a5.332,5.332,0,0,0,4.313-5.246h0Zm-20.9,30.4a5.3,5.3,0,0,0-8.125,0L18.4,42.057a5.29,5.29,0,0,0,.319-1.806,5.359,5.359,0,0,0-4.4-5.28L14.306,23.027a5.366,5.366,0,0,0,4.132-7.006l10.55-6.137a5.317,5.317,0,0,0,8.046,0l10.55,6.137A5.365,5.365,0,0,0,51.6,23V34.982a5.354,5.354,0,0,0-4.3,5.257,5.247,5.247,0,0,0,.318,1.806Zm6.965-8.8a1.023,1.023,0,0,0,.8-0.377,1.05,1.05,0,0,0-.137-1.463,40.434,40.434,0,0,0-6.715-4.378h0V29.4a3.227,3.227,0,0,0,.979-2.331v-4.9a5.446,5.446,0,0,0-5.429-5.451H32.481a5.446,5.446,0,0,0-5.429,5.451v4.9a3.273,3.273,0,0,0,.979,2.331v3.737a40.276,40.276,0,0,0-6.691,4.378,1.038,1.038,0,0,0-.137,1.463,1.055,1.055,0,0,0,1.272.377" transform="translate(-0.5 -0.266)"/>
  </g>
</svg>
