<?xml version="1.0" encoding="utf-8"?>
<!-- Generator: Adobe Illustrator 16.0.3, SVG Export Plug-In . SVG Version: 6.00 Build 0)  -->
<!DOCTYPE svg PUBLIC "-//W3C//DTD SVG 1.1//EN" "http://www.w3.org/Graphics/SVG/1.1/DTD/svg11.dtd">
<svg version="1.1" id="Layer_1" xmlns="http://www.w3.org/2000/svg" xmlns:xlink="http://www.w3.org/1999/xlink" x="0px" y="0px"
	 width="42.857px" height="35.027px" viewBox="0 0 42.857 35.027" enable-background="new 0 0 42.857 35.027" xml:space="preserve">
<path fill="none" stroke-width="2px" stroke="#ffffff" stroke-linecap="round" stroke-linejoin="round" d="M30.912,9.738
	c-1.63-1.629-1.717-3.588-1.717-3.588L12.057,23.29l5.304,5.303L34.5,11.454C34.5,11.454,32.542,11.368,30.912,9.738z"/>
<polygon fill="none" stroke-width="2px" stroke="#ffffff" stroke-linecap="round" stroke-linejoin="round" points="10.835,25.907 10.833,25.909 
	9.445,28.811 11.859,31.224 14.763,29.837 14.764,29.836 17.394,28.581 15.333,26.52 14.152,25.338 12.09,23.277 "/>
<path fill="none" stroke-width="2px" stroke="#ffffff" stroke-linecap="round" stroke-linejoin="round" d="M31.055,4.29l-1.8,1.8
	c0,0,0.069,2.061,1.656,3.648c1.588,1.587,3.648,1.655,3.648,1.655l1.799-1.799c1.135-1.134,1.135-2.989,0-4.123L35.178,4.29
	C34.045,3.157,32.19,3.157,31.055,4.29z"/>
<path fill="none" stroke-width="2px" stroke="#ffffff" stroke-linecap="round" stroke-linejoin="round" d="M9.38,28.917l-0.458,1.029
	c-0.781,1.761,0.021,2.563,1.782,1.781l1.028-0.457"/>
<line fill="none" stroke-width="2px" stroke="#ffffff" stroke-linecap="round" stroke-linejoin="round" x1="14.731" y1="25.918" x2="30.912" y2="9.738"/>
</svg>
