<?xml version="1.0" encoding="utf-8"?>
<!-- Generator: Adobe Illustrator 16.0.0, SVG Export Plug-In . SVG Version: 6.00 Build 0)  -->
<!DOCTYPE svg PUBLIC "-//W3C//DTD SVG 1.1//EN" "http://www.w3.org/Graphics/SVG/1.1/DTD/svg11.dtd">
<svg version="1.1" id="Layer_1" xmlns="http://www.w3.org/2000/svg" xmlns:xlink="http://www.w3.org/1999/xlink" x="0px" y="0px"
	 width="835px" height="205px" viewBox="0 0 835 205" enable-background="new 0 0 835 205" xml:space="preserve">
<polygon fill="#cedbe7" points="836.021,205.766 836.021,74.091 835.848,74.091 835.848,70.667 824.158,70.691 823.662,40.04 
	820.365,36.743 820.238,29.283 814.219,17.678 811.975,1.234 809.969,17.678 804.604,29.083 804.479,37.351 801.584,40.129 
	801.584,72.519 786.848,72.519 786.871,77.408 779.908,77.532 779.768,74.883 771.893,74.883 771.893,78.498 765.662,78.498 
	765.662,56.253 757.393,56.253 757.393,46.804 754.682,46.804 741.568,47.278 738.617,47.278 738.617,72.792 726.922,72.792 
	726.922,69.373 717.82,69.373 717.82,47.393 715.926,47.393 715.926,37.941 700.096,37.941 700.096,46.096 688.756,46.096 
	680.355,58.03 680.355,67.475 677.059,67.475 677.059,48.5 653.434,48.5 653.434,30.656 649.332,28.446 641.293,28.446 
	634.404,30.776 634.404,52 623.18,52 623.18,56.848 619.162,56.848 619.162,48.021 609.014,48.021 606.326,43.684 600.35,43.684 
	599.633,43.533 598.771,43.533 598.184,69.003 596.842,69.373 596.957,91.272 594.516,91.272 594.441,76.818 588.293,76.818 
	588.293,56.65 584.832,56.65 584.832,50.428 562.039,50.428 562.039,56.499 558.951,56.654 558.75,73.275 556.717,73.275 
	556.717,67.422 539.24,67.422 539.271,81.469 533.215,81.48 533.52,54.826 517.797,54.845 517.633,47.003 510.945,47.047 
	510.945,51.89 508.473,51.89 508.473,81.102 504.918,81.102 504.918,64.061 492.752,64.061 492.752,42.492 460.93,42.492 
	460.93,65.947 453.029,65.947 453.055,68.94 449.311,69.003 449.271,88.847 431.635,88.847 431.578,67.831 425.645,68.155 
	425.645,51.14 421.721,51.095 421.707,47.671 415.243,47.671 415.271,53.161 410.675,53.182 410.675,60.593 401.387,64.841 
	401.387,90.68 401.39,91.272 398.018,91.272 394.892,81.426 394.892,52.691 392.499,51.031 386.86,51.031 383.168,52.248 
	383.168,82.176 379.045,82.176 379.045,72.477 374.27,72.477 374.27,87.486 371.885,87.486 368.421,90.451 365.486,90.451 
	364.312,91.272 363.642,91.272 363.642,88.098 360.818,88.098 360.818,82.938 358.866,82.938 358.866,78.855 342.594,78.855 
	342.594,85.676 342.594,91.272 331.853,91.272 331.853,72.255 325.886,68.089 315.474,68.089 315.474,81.426 314.617,81.426 
	314.617,81.508 295.111,81.508 295.111,48.224 295.079,48.224 295.079,45.193 278.794,45.193 278.794,48.07 278.741,48.07 
	278.741,67.721 272.286,67.721 272.286,67.78 270.992,67.78 267.515,63.983 267.515,57.317 265.996,57.317 265.996,63.681 
	260.792,69.295 260.792,78.855 258.83,78.855 258.83,68.989 257.268,68.089 257.268,51.683 255.912,50.729 255.912,47.775 
	253.625,46.189 245.828,46.189 244.521,47.238 244.521,50.885 243.221,50.885 243.221,55.343 241.265,54.21 235.294,54.21 
	229.761,58.075 229.761,65.058 227.818,65.058 227.818,65.657 226.081,64.444 223.799,64.444 223.799,54.968 220.865,52.925 
	214.364,52.925 210.884,53.826 210.884,63.539 209.374,63.539 209.374,57.014 207.355,57.014 207.355,54.479 204.606,52.545 
	199.718,52.545 196.344,54.892 196.344,57.472 193.536,57.472 193.536,60.656 186.158,60.656 186.158,46.343 185.283,45.892 
	185.283,38.612 183.435,37.694 183.435,34.742 181.599,33.455 181.599,27.695 177.688,24.203 177.688,16.926 176.605,16.926 
	176.605,24.203 172.922,27.695 172.922,33.223 171.719,33.223 169.883,34.518 169.883,37.845 168.58,38.154 168.58,45.422 
	163.804,41.04 163.804,35.876 161.419,35.876 161.202,41.187 155.339,50.289 154.69,50.289 153.607,55.438 153.607,44.132 
	152.322,44.132 150.14,51.402 150.14,60.803 146.238,53.981 144.282,53.981 138.904,61.106 138.904,58.826 134.808,58.826 
	134.808,66.182 125.838,66.182 125.838,54.439 120.045,54.439 120.045,50.563 107.805,50.563 107.805,46.432 103.167,43.191 
	92.187,43.191 85.017,45.545 85.017,50.499 77.229,50.499 77.229,52.032 77,52.032 77,33.162 67.717,33.162 67.717,61.691 
	65.514,61.106 62.47,61.106 62.47,61.865 59.439,61.865 58.578,61.263 55.317,61.263 49.892,61.263 49.892,62.928 43.164,62.928 
	43.164,63.535 41.855,63.535 41.855,58.235 41.558,57.865 41.558,53.509 38.389,53.509 38.389,47.914 37.751,47.914 37.751,45.545 
	36.864,45.545 36.864,41.856 35.783,41.856 35.783,45.545 13.485,45.545 13.44,44.632 -1.022,44.632 -1.022,205.766 "/>
</svg>
