<?xml version="1.0" encoding="utf-8"?>
    <!-- Generator: Adobe Illustrator 16.0.0, SVG Export Plug-In . SVG Version: 6.00 Build 0)  -->
    <!DOCTYPE svg PUBLIC "-//W3C//DTD SVG 1.1//EN" "http://www.w3.org/Graphics/SVG/1.1/DTD/svg11.dtd">
    <svg version="1.1" id="Layer_1" xmlns="http://www.w3.org/2000/svg" xmlns:xlink="http://www.w3.org/1999/xlink" x="0px" y="0px" width="45px" height="45.001px" viewBox="0 0 45 45.001" enable-background="new 0 0 45 45.001" xml:space="preserve">
        <g>
            <g>
                <path fill="#6097ac" d="M22.5,41.627c-10.546,0-19.126-8.578-19.126-19.126c0-10.546,8.58-19.125,19.126-19.125
			s19.126,8.579,19.126,19.125C41.626,33.049,33.046,41.627,22.5,41.627z M22.5,4.809c-9.755,0-17.693,7.937-17.693,17.692
			c0,9.756,7.938,17.693,17.693,17.693c9.756,0,17.693-7.938,17.693-17.693C40.193,12.746,32.256,4.809,22.5,4.809z" />
            </g>
            <g>
                <path fill="#6097ac" d="M22.5,45.001C10.093,45.001,0,34.907,0,22.502C0,10.094,10.093,0,22.5,0C34.906,0,45,10.094,45,22.502
			C45,34.907,34.906,45.001,22.5,45.001z M22.5,1.687c-11.475,0-20.813,9.338-20.813,20.815c0,11.477,9.338,20.813,20.813,20.813
			c11.476,0,20.813-9.336,20.813-20.813C43.313,11.025,33.976,1.687,22.5,1.687z" />
            </g>
            <g>
                <path fill="#6097ac" d="M22.917,30.369c-0.014,0-0.031-0.002-0.045-0.002c-1.005-0.041-1.208-1.352-1.284-1.847l-1.828-11.783
			l-1.445,5.701c-0.291,1.151-0.796,1.739-1.503,1.745c-0.68-0.049-1.224-0.573-1.54-1.723l-0.211-0.785l-0.274,0.849
			c-0.579,1.813-2.707,3.231-4.842,3.231H7.569c-0.467,0-0.843-0.376-0.843-0.843c0-0.465,0.376-0.844,0.843-0.844h2.377
			c1.372,0,2.885-0.962,3.235-2.061l0.292-0.904c0.444-1.375,1.116-1.67,1.614-1.67c0.008,0,0.018,0,0.028,0.001
			c0.498,0.011,1.173,0.321,1.558,1.732l0.115,0.425l1.672-6.602c0.125-0.487,0.498-1.813,1.466-1.731
			c1.011,0.048,1.212,1.355,1.288,1.848l1.803,11.617l1.019-4.312c0.279-1.176,0.78-1.784,1.495-1.809
			c0.659-0.077,1.218,0.51,1.554,1.586c0.317,1.024,1.787,1.918,3.148,1.918c0.005,0,0.009,0,0.013,0l6.961-0.022h0.002
			c0.465,0,0.842,0.376,0.844,0.839c0.002,0.467-0.375,0.848-0.842,0.848l-6.961,0.022c-0.004,0-0.01,0-0.017,0
			c-1.976,0-3.914-1.169-4.618-2.727l-1.313,5.55C24.189,29.102,23.888,30.367,22.917,30.369z" />
            </g>
        </g>
        <g>
        </g>
        <g>
        </g>
        <g>
        </g>
        <g>
        </g>
        <g>
        </g>
        <g>
        </g>
    </svg>
