<?xml version="1.0" encoding="utf-8"?>
<!-- Generator: Adobe Illustrator 16.0.0, SVG Export Plug-In . SVG Version: 6.00 Build 0)  -->
<!DOCTYPE svg PUBLIC "-//W3C//DTD SVG 1.1//EN" "http://www.w3.org/Graphics/SVG/1.1/DTD/svg11.dtd">
<svg version="1.1" id="Layer_1" xmlns="http://www.w3.org/2000/svg" xmlns:xlink="http://www.w3.org/1999/xlink" x="0px" y="0px"
	 width="110px" height="110px" viewBox="0 0 110 110" enable-background="new 0 0 110 110" xml:space="preserve">
<g>
	<polygon fill="#8697a1" points="54.78,5.013 54.807,5.005 57.184,9.142 58.688,9.142 58.688,2.65 57.184,2.65 57.184,6.779 
		57.157,6.787 54.78,2.65 53.27,2.65 53.27,9.142 54.78,9.142 	"/>
	<path fill="#8697a1" d="M56.334,103.39c-0.479-0.173-0.805-0.315-0.979-0.431c-0.172-0.112-0.26-0.267-0.26-0.457
		c0-0.195,0.086-0.36,0.26-0.494c0.171-0.135,0.41-0.2,0.713-0.2c0.309,0,0.55,0.081,0.726,0.242
		c0.176,0.164,0.264,0.372,0.264,0.632h1.462l0.01-0.027c0.015-0.582-0.208-1.059-0.667-1.429c-0.459-0.369-1.049-0.554-1.767-0.554
		c-0.727,0-1.324,0.166-1.796,0.504c-0.471,0.334-0.706,0.775-0.706,1.318c0,0.56,0.196,0.987,0.591,1.281
		c0.396,0.297,1.005,0.572,1.825,0.831c0.392,0.141,0.665,0.272,0.815,0.397c0.152,0.124,0.227,0.301,0.227,0.53
		c0,0.203-0.074,0.365-0.229,0.489c-0.153,0.126-0.385,0.189-0.697,0.189c-0.409,0-0.717-0.081-0.92-0.242
		c-0.201-0.16-0.303-0.427-0.303-0.802h-1.467l-0.009,0.026c-0.014,0.694,0.247,1.229,0.785,1.598
		c0.537,0.37,1.176,0.557,1.913,0.557c0.734,0,1.323-0.16,1.768-0.484c0.445-0.322,0.666-0.77,0.666-1.338
		c0-0.563-0.186-1.005-0.559-1.325C57.626,103.88,57.07,103.61,56.334,103.39"/>
	<polygon fill="#8697a1" points="107.1,52.426 107.1,51.267 102.578,51.267 102.578,57.757 107.09,57.757 107.09,56.599 
		104.091,56.599 104.091,54.98 106.637,54.98 106.637,53.821 104.091,53.821 104.091,52.426 	"/>
	<polygon fill="#8697a1" points="8.611,55.523 8.585,55.523 7.435,51.267 6.388,51.267 5.241,55.523 5.215,55.523 4.362,51.267 
		2.9,51.267 4.394,57.757 5.813,57.757 6.896,53.755 6.922,53.755 8.014,57.757 9.432,57.757 10.92,51.267 9.464,51.267 	"/>
	<path fill="#8697a1" d="M55.981,95.57c-22.367,0-40.563-18.197-40.563-40.563c0-22.367,18.196-40.563,40.563-40.563
		c22.366,0,40.563,18.195,40.563,40.563C96.545,77.373,78.348,95.57,55.981,95.57 M55.981,13.114
		c-23.102,0-41.894,18.792-41.894,41.893c0,23.1,18.792,41.894,41.894,41.894c23.099,0,41.893-18.794,41.893-41.894
		C97.874,31.906,79.08,13.114,55.981,13.114"/>
	<path fill="#8697a1" d="M55.981,92.909c-20.9,0-37.903-17.002-37.903-37.902c0-20.899,17.003-37.902,37.903-37.902
		c20.899,0,37.901,17.003,37.901,37.902C93.883,75.907,76.881,92.909,55.981,92.909 M55.981,15.774
		c-21.634,0-39.233,17.601-39.233,39.232c0,21.633,17.6,39.233,39.233,39.233S95.214,76.64,95.214,55.007
		C95.214,33.375,77.615,15.774,55.981,15.774"/>
	<path fill="#8697a1" d="M53.23,24.245c0.02,0,0.038,0,0.06-0.003c0.364-0.032,0.636-0.355,0.604-0.722l-0.372-4.245
		c-0.03-0.366-0.339-0.635-0.72-0.605c-0.366,0.032-0.638,0.355-0.604,0.721l0.371,4.247C52.599,23.982,52.889,24.245,53.23,24.245"
		/>
	<path fill="#8697a1" d="M50.501,24.604c0.038,0,0.078-0.003,0.117-0.011c0.36-0.063,0.603-0.409,0.538-0.77l-0.74-4.198
		c-0.063-0.362-0.416-0.604-0.77-0.539c-0.362,0.063-0.604,0.408-0.539,0.77l0.741,4.197C49.904,24.375,50.186,24.604,50.501,24.604
		"/>
	<path fill="#8697a1" d="M47.172,24.705c0.08,0.297,0.351,0.494,0.645,0.494c0.056,0,0.113-0.008,0.17-0.022
		c0.356-0.097,0.567-0.459,0.472-0.814l-1.104-4.118c-0.095-0.355-0.46-0.565-0.813-0.47c-0.356,0.095-0.567,0.461-0.472,0.813
		L47.172,24.705z"/>
	<path fill="#8697a1" d="M44.564,25.589c0.099,0.27,0.354,0.438,0.626,0.438c0.075,0,0.152-0.015,0.228-0.04
		c0.346-0.126,0.523-0.509,0.397-0.852l-1.458-4.005c-0.126-0.346-0.502-0.523-0.853-0.397c-0.346,0.124-0.523,0.507-0.397,0.85
		L44.564,25.589z"/>
	<path fill="#8697a1" d="M42.044,26.695c0.114,0.242,0.352,0.385,0.604,0.385c0.094,0,0.188-0.02,0.279-0.063
		c0.333-0.156,0.478-0.551,0.322-0.884l-1.801-3.862c-0.155-0.333-0.551-0.474-0.883-0.32c-0.333,0.154-0.478,0.549-0.322,0.882
		L42.044,26.695z"/>
	<path fill="#8697a1" d="M39.629,28.018c0.123,0.214,0.347,0.334,0.575,0.334c0.113,0,0.228-0.03,0.333-0.09
		c0.318-0.185,0.428-0.591,0.245-0.909l-2.129-3.691c-0.185-0.317-0.592-0.428-0.909-0.243c-0.318,0.184-0.427,0.592-0.245,0.909
		L39.629,28.018z"/>
	<path fill="#8697a1" d="M37.34,29.546c0.129,0.185,0.335,0.283,0.544,0.283c0.134,0,0.266-0.039,0.382-0.12
		c0.3-0.21,0.374-0.625,0.163-0.926l-2.443-3.491c-0.209-0.302-0.625-0.375-0.927-0.164c-0.299,0.21-0.375,0.626-0.162,0.926
		L37.34,29.546z"/>
	<path fill="#8697a1" d="M35.191,31.266c0.131,0.158,0.319,0.239,0.511,0.239c0.15,0,0.302-0.053,0.427-0.155
		c0.281-0.236,0.317-0.655,0.081-0.937l-2.738-3.266c-0.235-0.282-0.656-0.318-0.936-0.083c-0.283,0.237-0.319,0.656-0.081,0.937
		L35.191,31.266z"/>
	<path fill="#8697a1" d="M33.202,33.17c0.129,0.13,0.299,0.194,0.47,0.194s0.341-0.064,0.47-0.194c0.261-0.26,0.261-0.682,0-0.94
		l-3.012-3.014c-0.26-0.261-0.681-0.261-0.939,0c-0.26,0.258-0.26,0.68,0,0.94L33.202,33.17z"/>
	<path fill="#8697a1" d="M31.385,35.238c0.125,0.104,0.276,0.154,0.427,0.154c0.19,0,0.378-0.08,0.51-0.237
		c0.237-0.28,0.2-0.7-0.082-0.936l-3.263-2.74c-0.282-0.237-0.702-0.2-0.936,0.081c-0.236,0.283-0.201,0.7,0.081,0.938
		L31.385,35.238z"/>
	<path fill="#8697a1" d="M29.755,37.456c0.116,0.081,0.248,0.12,0.383,0.12c0.208,0,0.414-0.099,0.544-0.283
		c0.211-0.3,0.138-0.716-0.164-0.926l-3.488-2.444c-0.3-0.21-0.715-0.139-0.926,0.162c-0.212,0.301-0.138,0.717,0.163,0.927
		L29.755,37.456z"/>
	<path fill="#8697a1" d="M24.638,37.677l3.688,2.133c0.104,0.059,0.219,0.089,0.332,0.089c0.229,0,0.452-0.118,0.576-0.333
		c0.184-0.316,0.075-0.725-0.244-0.907l-3.688-2.133c-0.313-0.182-0.724-0.075-0.908,0.242
		C24.211,37.086,24.319,37.492,24.638,37.677"/>
	<path fill="#8697a1" d="M23.245,40.475l3.861,1.803c0.092,0.042,0.188,0.063,0.282,0.063c0.249,0,0.488-0.144,0.603-0.384
		c0.155-0.334,0.012-0.729-0.321-0.883l-3.861-1.804c-0.333-0.154-0.729-0.014-0.885,0.323
		C22.77,39.924,22.912,40.319,23.245,40.475"/>
	<path fill="#8697a1" d="M22.104,43.383l4.003,1.459c0.075,0.025,0.152,0.041,0.228,0.041c0.271,0,0.526-0.168,0.625-0.438
		c0.126-0.346-0.053-0.728-0.398-0.854l-4.002-1.456c-0.343-0.128-0.727,0.053-0.853,0.396
		C21.581,42.876,21.759,43.257,22.104,43.383"/>
	<path fill="#8697a1" d="M21.22,46.38l4.115,1.105c0.059,0.015,0.115,0.022,0.173,0.022c0.294,0,0.563-0.196,0.643-0.494
		c0.095-0.354-0.115-0.718-0.47-0.814l-4.115-1.104c-0.359-0.096-0.719,0.115-0.815,0.471C20.655,45.921,20.865,46.285,21.22,46.38"
		/>
	<path fill="#8697a1" d="M20.601,49.442l4.195,0.741c0.039,0.008,0.078,0.012,0.117,0.012c0.315,0,0.597-0.228,0.653-0.551
		c0.063-0.362-0.177-0.706-0.539-0.771l-4.194-0.741c-0.358-0.065-0.708,0.177-0.771,0.54C19.999,49.033,20.238,49.38,20.601,49.442
		"/>
	<path fill="#8697a1" d="M20.25,52.548l4.244,0.373c0.02,0.001,0.041,0.003,0.06,0.003c0.341,0,0.631-0.261,0.662-0.607
		c0.032-0.367-0.238-0.688-0.604-0.72l-4.245-0.375c-0.355-0.032-0.69,0.239-0.721,0.605C19.614,52.191,19.883,52.515,20.25,52.548"
		/>
	<path fill="#8697a1" d="M20.365,58.789l4.246-0.369c0.366-0.031,0.639-0.354,0.604-0.721c-0.03-0.365-0.359-0.634-0.719-0.604
		l-4.245,0.368c-0.367,0.032-0.64,0.354-0.607,0.721c0.031,0.346,0.321,0.607,0.662,0.607C20.327,58.792,20.346,58.79,20.365,58.789
		"/>
	<path fill="#8697a1" d="M25.029,61.141c0.361-0.063,0.603-0.408,0.539-0.77c-0.063-0.361-0.424-0.6-0.769-0.54l-4.2,0.738
		c-0.361,0.064-0.602,0.408-0.537,0.771c0.055,0.322,0.336,0.549,0.652,0.549c0.038,0,0.079-0.003,0.117-0.01L25.029,61.141z"/>
	<path fill="#8697a1" d="M26.153,63.002c-0.096-0.354-0.452-0.568-0.814-0.473l-4.117,1.102c-0.355,0.096-0.566,0.46-0.473,0.814
		c0.082,0.298,0.35,0.493,0.644,0.493c0.056,0,0.114-0.006,0.171-0.024l4.118-1.099C26.036,63.721,26.248,63.356,26.153,63.002"/>
	<path fill="#8697a1" d="M26.962,65.57c-0.124-0.346-0.508-0.522-0.853-0.397l-4.006,1.456c-0.343,0.124-0.521,0.507-0.396,0.851
		c0.097,0.27,0.354,0.438,0.623,0.438c0.076,0,0.152-0.012,0.228-0.04l4.006-1.453C26.91,66.298,27.088,65.916,26.962,65.57"/>
	<path fill="#8697a1" d="M27.993,68.06c-0.155-0.333-0.55-0.477-0.883-0.322l-3.864,1.799c-0.332,0.154-0.478,0.552-0.321,0.883
		c0.112,0.243,0.353,0.386,0.602,0.386c0.096,0,0.189-0.021,0.281-0.063l3.863-1.799C28.004,68.787,28.15,68.393,27.993,68.06"/>
	<path fill="#8697a1" d="M29.239,70.449c-0.185-0.319-0.591-0.429-0.909-0.244l-3.692,2.13c-0.318,0.182-0.427,0.589-0.244,0.907
		c0.122,0.213,0.347,0.333,0.576,0.333c0.113,0,0.228-0.028,0.333-0.089l3.692-2.13C29.313,71.174,29.422,70.768,29.239,70.449"/>
	<path fill="#8697a1" d="M30.688,72.722c-0.212-0.303-0.629-0.373-0.927-0.165L26.267,75c-0.301,0.212-0.375,0.624-0.164,0.927
		c0.131,0.185,0.336,0.282,0.546,0.282c0.132,0,0.265-0.037,0.381-0.12l3.494-2.441C30.824,73.438,30.897,73.021,30.688,72.722"/>
	<path fill="#8697a1" d="M32.327,74.859c-0.237-0.282-0.656-0.319-0.938-0.084l-3.268,2.738c-0.282,0.236-0.317,0.654-0.082,0.938
		c0.132,0.156,0.319,0.235,0.509,0.235c0.151,0,0.304-0.049,0.428-0.154l3.269-2.737C32.526,75.562,32.563,75.14,32.327,74.859"/>
	<path fill="#8697a1" d="M34.147,76.845c-0.26-0.261-0.681-0.259-0.94-0.001l-3.018,3.012c-0.26,0.26-0.26,0.681,0,0.94
		c0.131,0.131,0.301,0.196,0.47,0.196c0.171,0,0.341-0.065,0.472-0.194l3.017-3.013C34.407,77.526,34.407,77.104,34.147,76.845"/>
	<path fill="#8697a1" d="M36.133,78.664c-0.28-0.235-0.701-0.2-0.937,0.081l-2.743,3.263c-0.236,0.283-0.2,0.702,0.083,0.939
		c0.124,0.104,0.275,0.154,0.427,0.154c0.188,0,0.378-0.08,0.509-0.235l2.743-3.265C36.451,79.32,36.416,78.901,36.133,78.664"/>
	<path fill="#8697a1" d="M38.271,80.304c-0.298-0.21-0.716-0.14-0.927,0.164l-2.448,3.49c-0.212,0.3-0.139,0.715,0.163,0.925
		c0.115,0.081,0.248,0.12,0.381,0.12c0.21,0,0.416-0.099,0.545-0.283l2.448-3.489C38.646,80.93,38.572,80.516,38.271,80.304"/>
	<path fill="#8697a1" d="M40.543,81.751c-0.313-0.185-0.724-0.076-0.907,0.243l-2.136,3.69c-0.185,0.317-0.075,0.725,0.242,0.908
		c0.105,0.061,0.219,0.089,0.332,0.089c0.229,0,0.453-0.117,0.576-0.331l2.135-3.688C40.97,82.343,40.86,81.936,40.543,81.751"/>
	<path fill="#8697a1" d="M42.934,82.995c-0.331-0.153-0.728-0.013-0.884,0.32l-1.807,3.862c-0.157,0.333-0.013,0.729,0.32,0.884
		c0.091,0.044,0.188,0.063,0.281,0.063c0.249,0,0.49-0.142,0.604-0.385l1.806-3.86C43.41,83.547,43.268,83.15,42.934,82.995"/>
	<path fill="#8697a1" d="M45.424,84.025c-0.344-0.126-0.728,0.053-0.854,0.396l-1.464,4.005c-0.126,0.346,0.053,0.728,0.396,0.854
		c0.076,0.029,0.154,0.041,0.229,0.041c0.271,0,0.526-0.167,0.625-0.437l1.464-4.004C45.946,84.534,45.768,84.151,45.424,84.025"/>
	<path fill="#8697a1" d="M47.993,84.835c-0.351-0.093-0.721,0.116-0.814,0.47l-1.108,4.117c-0.097,0.354,0.113,0.721,0.468,0.816
		c0.057,0.015,0.115,0.022,0.173,0.022c0.293,0,0.562-0.196,0.642-0.493l1.109-4.116C48.559,85.296,48.348,84.932,47.993,84.835"/>
	<path fill="#8697a1" d="M50.625,85.419c-0.365-0.067-0.708,0.176-0.771,0.537l-0.748,4.199c-0.064,0.36,0.177,0.707,0.537,0.77
		c0.042,0.008,0.081,0.011,0.119,0.011c0.316,0,0.596-0.225,0.653-0.549l0.747-4.197C51.227,85.828,50.985,85.483,50.625,85.419"/>
	<path fill="#8697a1" d="M53.295,85.77c-0.347-0.029-0.687,0.237-0.721,0.604l-0.378,4.246c-0.033,0.366,0.236,0.688,0.604,0.721
		c0.019,0.003,0.038,0.003,0.06,0.003c0.339,0,0.63-0.261,0.66-0.606l0.378-4.246C53.931,86.125,53.662,85.803,53.295,85.77"/>
	<path fill="#8697a1" d="M58.679,85.769c-0.366,0.031-0.636,0.354-0.604,0.721l0.365,4.247c0.029,0.345,0.32,0.607,0.66,0.607
		c0.021,0,0.038-0.002,0.059-0.003c0.367-0.03,0.636-0.353,0.605-0.719l-0.364-4.248C59.365,86.008,59.024,85.725,58.679,85.769"/>
	<path fill="#8697a1" d="M61.352,85.416c-0.363,0.064-0.604,0.408-0.541,0.77l0.734,4.199c0.055,0.324,0.336,0.551,0.652,0.551
		c0.039,0,0.076-0.003,0.115-0.009c0.363-0.064,0.605-0.408,0.541-0.77l-0.734-4.2C62.057,85.593,61.707,85.353,61.352,85.416"/>
	<path fill="#8697a1" d="M64.795,85.304c-0.094-0.353-0.453-0.569-0.815-0.472c-0.354,0.095-0.567,0.459-0.472,0.814l1.098,4.121
		c0.079,0.297,0.349,0.493,0.643,0.493c0.057,0,0.113-0.008,0.171-0.024c0.354-0.093,0.567-0.457,0.474-0.813L64.795,85.304z"/>
	<path fill="#8697a1" d="M67.4,84.42c-0.125-0.344-0.508-0.521-0.852-0.399c-0.345,0.126-0.525,0.507-0.396,0.853l1.451,4.009
		c0.098,0.271,0.353,0.439,0.625,0.439c0.074,0,0.152-0.013,0.226-0.04c0.346-0.126,0.524-0.507,0.399-0.853L67.4,84.42z"/>
	<path fill="#8697a1" d="M69.92,83.314c-0.153-0.336-0.549-0.478-0.883-0.324c-0.334,0.156-0.477,0.551-0.322,0.884l1.797,3.866
		c0.111,0.243,0.352,0.386,0.602,0.386c0.096,0,0.191-0.02,0.281-0.062c0.332-0.157,0.477-0.552,0.321-0.885L69.92,83.314z"/>
	<path fill="#8697a1" d="M72.334,81.991c-0.185-0.319-0.594-0.428-0.907-0.244c-0.317,0.183-0.429,0.589-0.245,0.907l2.125,3.696
		c0.125,0.213,0.348,0.333,0.578,0.333c0.111,0,0.227-0.029,0.33-0.089c0.319-0.183,0.429-0.591,0.246-0.907L72.334,81.991z"/>
	<path fill="#8697a1" d="M74.625,80.463c-0.214-0.302-0.629-0.372-0.926-0.163c-0.303,0.21-0.375,0.624-0.165,0.925l2.44,3.497
		c0.129,0.185,0.336,0.283,0.545,0.283c0.133,0,0.265-0.039,0.381-0.118c0.301-0.212,0.375-0.626,0.165-0.928L74.625,80.463z"/>
	<path fill="#8697a1" d="M76.773,78.742c-0.24-0.283-0.656-0.319-0.938-0.084s-0.319,0.656-0.084,0.938l2.734,3.269
		c0.135,0.157,0.322,0.24,0.512,0.24c0.15,0,0.303-0.051,0.428-0.156c0.279-0.235,0.318-0.655,0.082-0.936L76.773,78.742z"/>
	<path fill="#8697a1" d="M78.764,76.839c-0.261-0.261-0.685-0.26-0.941-0.001c-0.261,0.261-0.261,0.681-0.002,0.94l3.008,3.02
		c0.131,0.13,0.304,0.194,0.473,0.194c0.17,0,0.34-0.064,0.469-0.194c0.261-0.259,0.261-0.679,0.002-0.939L78.764,76.839z"/>
	<path fill="#8697a1" d="M80.578,74.771c-0.281-0.235-0.698-0.201-0.938,0.081c-0.235,0.28-0.2,0.7,0.081,0.936l3.261,2.745
		c0.124,0.106,0.276,0.158,0.428,0.158c0.191,0,0.379-0.081,0.511-0.237c0.236-0.28,0.199-0.7-0.082-0.938L80.578,74.771z"/>
	<path fill="#8697a1" d="M82.207,72.552c-0.298-0.21-0.714-0.138-0.926,0.162c-0.211,0.301-0.139,0.716,0.162,0.928l3.486,2.449
		c0.117,0.082,0.251,0.12,0.383,0.12c0.209,0,0.415-0.098,0.544-0.281c0.211-0.301,0.14-0.715-0.161-0.928L82.207,72.552z"/>
	<path fill="#8697a1" d="M87.324,72.336L83.637,70.2c-0.316-0.185-0.725-0.078-0.909,0.243c-0.185,0.316-0.075,0.723,0.242,0.907
		l3.687,2.136c0.106,0.062,0.219,0.09,0.335,0.09c0.229,0,0.452-0.118,0.574-0.331C87.75,72.929,87.641,72.521,87.324,72.336"/>
	<path fill="#8697a1" d="M88.717,69.539l-3.861-1.807c-0.33-0.155-0.729-0.013-0.885,0.32s-0.012,0.729,0.321,0.885l3.86,1.806
		c0.09,0.044,0.188,0.063,0.281,0.063c0.25,0,0.49-0.142,0.604-0.385C89.191,70.091,89.049,69.694,88.717,69.539"/>
	<path fill="#8697a1" d="M89.858,66.631l-4.003-1.465c-0.344-0.124-0.727,0.053-0.854,0.396c-0.125,0.347,0.053,0.729,0.396,0.854
		l4.002,1.461c0.076,0.029,0.154,0.042,0.229,0.042c0.273,0,0.527-0.168,0.626-0.437C90.381,67.139,90.203,66.757,89.858,66.631"/>
	<path fill="#8697a1" d="M90.742,63.634l-4.115-1.11c-0.352-0.093-0.719,0.115-0.814,0.471c-0.096,0.354,0.114,0.719,0.469,0.816
		l4.115,1.106c0.057,0.017,0.115,0.023,0.174,0.023c0.293,0,0.562-0.195,0.641-0.492C91.307,64.094,91.097,63.728,90.742,63.634"/>
	<path fill="#8697a1" d="M91.363,60.57l-4.197-0.744c-0.373-0.063-0.705,0.175-0.771,0.537c-0.064,0.363,0.176,0.707,0.537,0.771
		l4.197,0.745c0.041,0.008,0.078,0.011,0.118,0.011c0.315,0,0.597-0.227,0.653-0.549C91.965,60.98,91.724,60.635,91.363,60.57"/>
	<path fill="#8697a1" d="M91.713,57.466l-4.246-0.378c-0.352-0.031-0.689,0.238-0.722,0.604c-0.032,0.367,0.237,0.689,0.604,0.722
		l4.246,0.378c0.02,0.001,0.039,0.001,0.06,0.001c0.34,0,0.63-0.26,0.661-0.604C92.348,57.821,92.078,57.499,91.713,57.466"/>
	<path fill="#8697a1" d="M91.791,54.343l-1.813-0.003l-25.816-3.573l9.373-12.38c0.201-0.268,0.175-0.638-0.061-0.873
		c-0.232-0.235-0.604-0.263-0.87-0.061l-12.383,9.372l-3.576-25.832v-1.798c0-0.367-0.296-0.664-0.665-0.664
		c-0.367,0-0.665,0.297-0.665,0.664v1.815l-3.572,25.814l-12.382-9.372c-0.266-0.202-0.639-0.175-0.872,0.061
		c-0.235,0.235-0.261,0.605-0.06,0.873l9.372,12.38l-25.825,3.575h-1.806c-0.366,0-0.665,0.295-0.665,0.664
		c0,0.367,0.299,0.666,0.665,0.666h1.809l25.822,3.573L38.43,71.628c-0.201,0.266-0.176,0.638,0.06,0.872
		c0.233,0.233,0.606,0.262,0.872,0.059l12.382-9.37l3.574,25.824l-0.003,1.802c0,0.365,0.297,0.666,0.664,0.666
		c0.368,0,0.666-0.296,0.666-0.663l0.003-1.807l3.574-25.822l12.383,9.37c0.118,0.093,0.259,0.136,0.4,0.136
		c0.171,0,0.341-0.064,0.47-0.194c0.235-0.234,0.262-0.606,0.061-0.872l-9.373-12.383l25.834-3.575l1.792,0.003h0.001
		c0.368,0,0.666-0.298,0.666-0.666C92.455,54.64,92.158,54.343,91.791,54.343"/>
	<path fill="#8697a1" d="M87.35,51.591c-0.367,0.029-0.636,0.353-0.605,0.718c0.029,0.347,0.32,0.607,0.66,0.607
		c0.021,0,0.04,0,0.059-0.003l4.248-0.364c0.365-0.031,0.637-0.354,0.605-0.72s-0.361-0.648-0.721-0.604L87.35,51.591z"/>
	<path fill="#8697a1" d="M86.932,48.869c-0.361,0.063-0.603,0.408-0.539,0.77c0.056,0.324,0.336,0.549,0.653,0.549
		c0.038,0,0.077-0.003,0.116-0.009l4.198-0.733c0.362-0.063,0.604-0.409,0.541-0.77c-0.063-0.362-0.419-0.602-0.77-0.541
		L86.932,48.869z"/>
	<path fill="#8697a1" d="M85.808,47.008c0.081,0.299,0.349,0.494,0.642,0.494c0.058,0,0.116-0.007,0.173-0.021l4.119-1.098
		c0.354-0.095,0.567-0.459,0.474-0.814c-0.096-0.354-0.457-0.567-0.816-0.47l-4.119,1.097
		C85.925,46.288,85.713,46.654,85.808,47.008"/>
	<path fill="#8697a1" d="M84.998,44.44c0.098,0.27,0.354,0.437,0.626,0.437c0.075,0,0.151-0.013,0.226-0.038l4.008-1.453
		c0.346-0.126,0.524-0.507,0.398-0.852c-0.125-0.346-0.512-0.52-0.851-0.397l-4.008,1.45C85.053,43.713,84.873,44.094,84.998,44.44"
		/>
	<path fill="#8697a1" d="M83.967,41.95c0.112,0.243,0.352,0.386,0.603,0.386c0.095,0,0.19-0.02,0.281-0.062l3.866-1.797
		c0.333-0.154,0.477-0.552,0.322-0.884c-0.153-0.334-0.551-0.476-0.883-0.324l-3.866,1.797
		C83.957,41.223,83.813,41.619,83.967,41.95"/>
	<path fill="#8697a1" d="M82.722,39.561c0.123,0.215,0.347,0.335,0.575,0.335c0.115,0,0.229-0.03,0.332-0.09l3.697-2.126
		c0.318-0.183,0.429-0.589,0.244-0.907c-0.184-0.319-0.593-0.429-0.908-0.246l-3.694,2.127
		C82.649,38.836,82.539,39.241,82.722,39.561"/>
	<path fill="#8697a1" d="M81.273,37.288c0.129,0.185,0.336,0.285,0.545,0.285c0.133,0,0.266-0.039,0.381-0.12l3.498-2.438
		c0.301-0.21,0.376-0.626,0.165-0.927c-0.213-0.302-0.628-0.372-0.927-0.164l-3.498,2.439
		C81.137,36.573,81.063,36.988,81.273,37.288"/>
	<path fill="#8697a1" d="M79.633,35.152c0.133,0.156,0.321,0.238,0.512,0.238c0.148,0,0.303-0.051,0.426-0.154l3.271-2.737
		c0.281-0.234,0.318-0.654,0.084-0.936c-0.24-0.284-0.659-0.32-0.938-0.083l-3.271,2.734C79.436,34.45,79.397,34.872,79.633,35.152"
		/>
	<path fill="#8697a1" d="M77.813,33.167c0.131,0.13,0.301,0.194,0.471,0.194c0.171,0,0.34-0.064,0.469-0.193l3.021-3.011
		c0.262-0.259,0.262-0.681,0.002-0.941c-0.259-0.26-0.68-0.26-0.939,0l-3.021,3.011C77.555,32.485,77.555,32.905,77.813,33.167"/>
	<path fill="#8697a1" d="M75.826,31.347c0.124,0.104,0.276,0.156,0.428,0.156c0.191,0,0.377-0.081,0.511-0.235l2.746-3.264
		c0.236-0.28,0.2-0.699-0.08-0.937c-0.281-0.238-0.7-0.2-0.938,0.08l-2.746,3.262C75.51,30.691,75.545,31.11,75.826,31.347"/>
	<path fill="#8697a1" d="M73.689,29.708c0.115,0.081,0.249,0.121,0.383,0.121c0.209,0,0.413-0.101,0.543-0.282l2.452-3.49
		c0.21-0.302,0.14-0.715-0.161-0.927c-0.299-0.212-0.715-0.14-0.926,0.16l-2.453,3.492C73.316,29.081,73.389,29.498,73.689,29.708"
		/>
	<path fill="#8697a1" d="M71.416,28.26c0.106,0.062,0.221,0.091,0.334,0.091c0.229,0,0.453-0.119,0.575-0.33l2.14-3.691
		c0.185-0.318,0.076-0.725-0.242-0.909c-0.316-0.185-0.725-0.076-0.908,0.241l-2.14,3.69C70.991,27.669,71.1,28.077,71.416,28.26"/>
	<path fill="#8697a1" d="M69.026,27.017c0.091,0.044,0.188,0.063,0.282,0.063c0.25,0,0.489-0.142,0.603-0.383l1.812-3.862
		c0.155-0.333,0.01-0.729-0.321-0.885c-0.329-0.154-0.729-0.014-0.885,0.319l-1.812,3.862
		C68.551,26.466,68.693,26.862,69.026,27.017"/>
	<path fill="#8697a1" d="M66.537,25.986c0.075,0.028,0.151,0.04,0.229,0.04c0.271,0,0.525-0.165,0.625-0.437l1.467-4.005
		c0.126-0.346-0.051-0.727-0.396-0.853c-0.339-0.128-0.725,0.051-0.852,0.396l-1.469,4.005
		C66.015,25.479,66.191,25.861,66.537,25.986"/>
	<path fill="#8697a1" d="M63.967,25.178c0.059,0.015,0.116,0.022,0.174,0.022c0.292,0,0.562-0.195,0.641-0.492l1.113-4.118
		c0.096-0.355-0.113-0.72-0.467-0.816c-0.361-0.095-0.721,0.115-0.816,0.47l-1.112,4.119C63.402,24.716,63.611,25.08,63.967,25.178"
		/>
	<path fill="#8697a1" d="M61.336,24.595c0.039,0.007,0.08,0.01,0.119,0.01c0.313,0,0.595-0.225,0.652-0.547l0.75-4.201
		c0.064-0.361-0.176-0.707-0.537-0.771c-0.359-0.064-0.706,0.176-0.771,0.538l-0.751,4.2C60.734,24.185,60.975,24.53,61.336,24.595"
		/>
	<path fill="#8697a1" d="M58.664,24.245c0.021,0.001,0.041,0.003,0.063,0.003c0.34,0,0.629-0.26,0.66-0.606l0.383-4.25
		c0.032-0.366-0.238-0.689-0.604-0.722c-0.373-0.033-0.689,0.235-0.723,0.603l-0.381,4.249
		C58.029,23.888,58.299,24.21,58.664,24.245"/>
</g>
</svg>
