<?xml version="1.0" encoding="utf-8"?>
<!-- Generator: Adobe Illustrator 16.0.0, SVG Export Plug-In . SVG Version: 6.00 Build 0)  -->
<!DOCTYPE svg PUBLIC "-//W3C//DTD SVG 1.1//EN" "http://www.w3.org/Graphics/SVG/1.1/DTD/svg11.dtd">
<svg version="1.1" id="Layer_1" xmlns="http://www.w3.org/2000/svg" xmlns:xlink="http://www.w3.org/1999/xlink" x="0px" y="0px"
	 width="24px" height="24px" viewBox="0 0 24 24" enable-background="new 0 0 24 24" xml:space="preserve">
<path fill="#f37053" d="M3.522,15.083c0.224-0.149,0.453-0.295,0.675-0.446c0.733-0.495,1.462-0.992,2.194-1.49
	c0.037-0.025,0.081-0.051,0.134-0.084c0.054,0.089,0.104,0.179,0.159,0.263c0.348,0.559,0.726,1.091,1.234,1.512
	c0.258,0.213,0.54,0.377,0.877,0.416c0.26,0.033,0.325-0.002,0.441-0.231c0.801-1.609,1.707-3.158,2.664-4.674
	c0.964-1.529,1.977-3.028,3.138-4.412c0.508-0.608,1.041-1.188,1.671-1.67c0.569-0.437,1.223-0.633,1.918-0.716
	c0.058-0.006,0.112-0.02,0.17-0.028h0.492c0.055,0.009,0.11,0.021,0.168,0.033c0.409,0.069,0.821,0.137,1.02,0.587v0.175
	c-0.092,0.299-0.324,0.472-0.546,0.662c-0.888,0.76-1.659,1.63-2.382,2.55c-1.401,1.771-2.614,3.673-3.73,5.641
	c-1.184,2.085-2.259,4.226-3.124,6.47c-0.094,0.241-0.176,0.486-0.259,0.731c-0.025,0.075-0.06,0.108-0.144,0.108
	c-0.888-0.003-1.777-0.001-2.665-0.005c-0.044,0-0.108-0.031-0.123-0.065c-0.48-0.968-1.138-1.813-1.796-2.655
	c-0.678-0.86-1.388-1.699-2.082-2.548c-0.029-0.036-0.071-0.062-0.104-0.092V15.083z"/>
</svg>
