<?xml version="1.0" encoding="utf-8"?>
<!-- Generator: Adobe Illustrator 16.0.3, SVG Export Plug-In . SVG Version: 6.00 Build 0)  -->
<!DOCTYPE svg PUBLIC "-//W3C//DTD SVG 1.1//EN" "http://www.w3.org/Graphics/SVG/1.1/DTD/svg11.dtd">
<svg version="1.1" id="Layer_1" xmlns="http://www.w3.org/2000/svg" xmlns:xlink="http://www.w3.org/1999/xlink" x="0px" y="0px"
	 width="33.813px" height="21.813px" viewBox="0 0 33.813 21.813" enable-background="new 0 0 33.813 21.813" xml:space="preserve">
<g>
	<path fill="#FFFFFF" d="M32.279,11.861h-9.323c-0.521,0-0.944-0.424-0.944-0.944c0-0.522,0.423-0.944,0.944-0.944h9.323
		c0.521,0,0.945,0.422,0.945,0.944C33.225,11.438,32.801,11.861,32.279,11.861L32.279,11.861z"/>
	<path fill="#FFFFFF" d="M22.957,7.746c-0.302,0-0.598-0.144-0.781-0.412c-0.294-0.431-0.183-1.018,0.247-1.312l8.073-5.52
		c0.431-0.294,1.019-0.184,1.313,0.247c0.295,0.431,0.185,1.018-0.246,1.313l-8.073,5.52C23.326,7.692,23.141,7.746,22.957,7.746
		L22.957,7.746z"/>
	<path fill="#FFFFFF" d="M31.028,21.496c-0.184,0-0.369-0.053-0.532-0.164l-8.073-5.52c-0.43-0.295-0.541-0.881-0.247-1.313
		c0.296-0.432,0.884-0.539,1.313-0.246l8.073,5.52c0.431,0.295,0.541,0.881,0.246,1.313C31.625,21.354,31.33,21.496,31.028,21.496
		L31.028,21.496z"/>
	<path fill="#FFFFFF" d="M9.046,16.311v2.352c0,0.627-0.511,1.137-1.139,1.137c-0.625,0-1.135-0.51-1.135-1.137v-2.951l-1.26-0.33
		v3.281c0,1.322,1.074,2.396,2.395,2.396c1.322,0,2.397-1.074,2.397-2.396v-2.021L9.046,16.311z"/>
	<path fill="#FFFFFF" d="M19.124,19.063c-0.054,0-0.107-0.006-0.16-0.02L3.484,14.971c-0.334,0.434-0.854,0.703-1.423,0.703
		c-0.993,0-1.802-0.809-1.802-1.803V7.976c0-0.995,0.809-1.804,1.802-1.804c0.563,0,1.081,0.264,1.416,0.693l15.486-4.073
		c0.19-0.049,0.39-0.008,0.545,0.111c0.154,0.12,0.245,0.303,0.245,0.499v15.032c0,0.195-0.091,0.379-0.245,0.498
		C19.397,19.018,19.262,19.063,19.124,19.063L19.124,19.063z M3.17,13.607c0.054,0,0.107,0.008,0.161,0.021l15.163,3.988V4.218
		L3.327,8.207C3.008,8.289,2.679,8.114,2.572,7.801c-0.076-0.222-0.28-0.37-0.511-0.37c-0.299,0-0.542,0.244-0.542,0.544v5.896
		c0,0.299,0.243,0.541,0.542,0.541c0.231,0,0.437-0.148,0.512-0.373C2.66,13.775,2.905,13.607,3.17,13.607L3.17,13.607z"/>
</g>
</svg>
