<?xml version="1.0" encoding="utf-8"?>
<!-- Generator: Adobe Illustrator 16.0.0, SVG Export Plug-In . SVG Version: 6.00 Build 0)  -->
<!DOCTYPE svg PUBLIC "-//W3C//DTD SVG 1.1//EN" "http://www.w3.org/Graphics/SVG/1.1/DTD/svg11.dtd">
<svg version="1.1" id="Layer_1" xmlns="http://www.w3.org/2000/svg" xmlns:xlink="http://www.w3.org/1999/xlink" x="0px" y="0px"
	 width="110px" height="110px" viewBox="0 0 110 110" enable-background="new 0 0 110 110" xml:space="preserve">
<g>
	<g>
		<path fill="#005554" d="M73.461,93.211H36.544c-2.417,0-4.371-1.957-4.371-4.37c0-2.414,1.955-4.372,4.371-4.372h36.917
			c2.415,0,4.371,1.958,4.371,4.372C77.832,91.254,75.876,93.211,73.461,93.211z"/>
	</g>
	<g>
		<path fill="#005554" d="M55.133,88.499c-2.416,0-4.37-1.958-4.37-4.371V21.16c0-2.413,1.954-4.371,4.37-4.371
			s4.372,1.958,4.372,4.371v62.968C59.505,86.544,57.549,88.499,55.133,88.499z"/>
	</g>
	<g>
		<g>
			<path fill="#005554" d="M55.002,35.497c3.67,0,6.648-2.977,6.648-6.645c0-3.674-2.979-6.648-6.648-6.648
				c-3.671,0-6.646,2.978-6.646,6.648C48.356,32.521,51.331,35.497,55.002,35.497"/>
		</g>
		<g>
			<path fill="#005554" d="M74.855,35.103c-8.905,0-17.072-3.185-17.595-3.387c-1.491-0.596-2.221-2.285-1.631-3.782
				c0.593-1.497,2.285-2.234,3.782-1.64c0.165,0.065,16.779,6.512,26.049,0.291c1.334-0.902,3.147-0.545,4.043,0.796
				c0.899,1.335,0.541,3.145-0.796,4.042C84.588,34.191,79.613,35.103,74.855,35.103z"/>
		</g>
		<g>
			<path fill="#005554" d="M35.151,35.103c-4.761,0-9.735-0.914-13.856-3.68c-1.335-0.895-1.692-2.704-0.796-4.039
				c0.895-1.337,2.707-1.696,4.042-0.799c9.273,6.224,25.884-0.226,26.052-0.288c1.499-0.596,3.192,0.142,3.781,1.639
				c0.591,1.497-0.138,3.188-1.632,3.782C52.223,31.918,44.051,35.103,35.151,35.103z"/>
		</g>
	</g>
	<g>
		<path fill="#005554" d="M77.154,71.563c-0.148,0-0.292-0.018-0.438-0.058c-0.977-0.239-1.574-1.228-1.332-2.202l10.034-40.686
			c0.239-0.976,1.225-1.58,2.202-1.332c0.979,0.239,1.577,1.228,1.332,2.203L78.921,70.174
			C78.714,71.006,77.972,71.563,77.154,71.563z"/>
	</g>
	<g>
		<path fill="#005554" d="M97.412,71.563c-0.82,0-1.561-0.555-1.765-1.39L85.612,29.486c-0.241-0.976,0.355-1.964,1.335-2.203
			c0.976-0.248,1.966,0.356,2.203,1.332l10.034,40.688c0.241,0.976-0.354,1.963-1.334,2.202
			C97.703,71.546,97.561,71.563,97.412,71.563z"/>
	</g>
	<g>
		<g>
			<path fill="#005554" d="M87.497,78.544c6.63,0,12.003-3.409,12.003-7.612c0-4.206-5.373-7.615-12.003-7.615
				c-6.628,0-12.002,3.409-12.002,7.615C75.495,75.134,80.869,78.544,87.497,78.544"/>
		</g>
	</g>
	<g>
		<path fill="#005554" d="M32.85,71.563c-0.818,0-1.563-0.555-1.767-1.39L21.05,29.486c-0.241-0.976,0.356-1.96,1.332-2.2
			c0.979-0.248,1.961,0.356,2.202,1.332l10.033,40.688c0.242,0.976-0.354,1.963-1.332,2.202
			C33.145,71.546,32.995,71.563,32.85,71.563z"/>
	</g>
	<g>
		<path fill="#005554" d="M12.589,71.563c-0.143,0-0.29-0.018-0.437-0.058c-0.977-0.239-1.574-1.228-1.334-2.202l10.037-40.686
			c0.242-0.976,1.229-1.58,2.203-1.332c0.976,0.239,1.573,1.228,1.334,2.203L14.359,70.174
			C14.151,71.006,13.409,71.563,12.589,71.563z"/>
	</g>
	<g>
		<g>
			<path fill="#005554" d="M22.504,78.544c-6.629,0-12.004-3.409-12.004-7.612c0-4.206,5.375-7.615,12.004-7.615
				c6.63,0,12.002,3.409,12.002,7.615C34.506,75.134,29.134,78.544,22.504,78.544"/>
		</g>
	</g>
</g>
</svg>
