<?xml version="1.0" encoding="utf-8"?>
<!-- Generator: Adobe Illustrator 16.0.0, SVG Export Plug-In . SVG Version: 6.00 Build 0)  -->
<!DOCTYPE svg PUBLIC "-//W3C//DTD SVG 1.1//EN" "http://www.w3.org/Graphics/SVG/1.1/DTD/svg11.dtd">
<svg version="1.1" id="Layer_1" xmlns="http://www.w3.org/2000/svg" xmlns:xlink="http://www.w3.org/1999/xlink" x="0px" y="0px"
	 width="110px" height="110px" viewBox="0 0 110 110" enable-background="new 0 0 110 110" xml:space="preserve">
<g>
	<g>
		<path fill="#231F20" d="M55,96.656c-22.967,0-41.652-18.682-41.652-41.654c0-22.967,18.686-41.65,41.652-41.65
			s41.652,18.683,41.652,41.65C96.652,77.975,77.967,96.656,55,96.656z M55,16.474c-21.244,0-38.531,17.285-38.531,38.529
			c0,21.246,17.287,38.531,38.531,38.531c21.246,0,38.532-17.285,38.532-38.531C93.532,33.758,76.246,16.474,55,16.474z"/>
	</g>
	<g>
		<path fill="#231F20" d="M55,104C27.98,104,6,82.02,6,55.003C6,27.981,27.98,6,55,6c27.018,0,49,21.982,49,49.004
			C104,82.02,82.018,104,55,104z M55,9.674c-24.99,0-45.326,20.335-45.326,45.33C9.674,80,30.01,100.33,55,100.33
			c24.993,0,45.325-20.33,45.325-45.326C100.325,30.009,79.993,9.674,55,9.674z"/>
	</g>
	<g>
		<path fill="#231F20" d="M55.908,72.139c-0.031,0-0.067-0.006-0.098-0.006c-2.188-0.088-2.631-2.944-2.797-4.022L49.032,42.45
			l-3.146,12.416c-0.634,2.505-1.733,3.785-3.273,3.8c-1.481-0.107-2.666-1.248-3.354-3.752l-0.459-1.71l-0.597,1.849
			c-1.261,3.948-5.895,7.036-10.545,7.036h-5.174c-1.017,0-1.835-0.817-1.835-1.834c0-1.012,0.819-1.84,1.835-1.84h5.176
			c2.988,0,6.284-2.095,7.046-4.489l0.636-1.968c0.967-2.995,2.43-3.637,3.515-3.637c0.018,0,0.04,0,0.062,0.002
			c1.083,0.022,2.554,0.699,3.392,3.771l0.251,0.925l3.641-14.376c0.272-1.062,1.084-3.949,3.192-3.771
			c2.202,0.105,2.64,2.951,2.805,4.025l3.928,25.3l2.22-9.391c0.604-2.562,1.698-3.886,3.256-3.94
			c1.434-0.168,2.651,1.11,3.383,3.454c0.69,2.229,3.893,4.178,6.854,4.178c0.013,0,0.021,0,0.029,0l15.159-0.047h0.005
			c1.012,0,1.833,0.815,1.837,1.823c0.005,1.019-0.816,1.849-1.833,1.849l-15.159,0.049c-0.009,0-0.021,0-0.038,0
			c-4.303,0-8.524-2.547-10.056-5.939l-2.86,12.087C58.68,69.377,58.023,72.133,55.908,72.139z"/>
	</g>
</g>
</svg>
