<?xml version="1.0" encoding="utf-8"?>
<!-- Generator: Adobe Illustrator 16.0.0, SVG Export Plug-In . SVG Version: 6.00 Build 0)  -->
<!DOCTYPE svg PUBLIC "-//W3C//DTD SVG 1.1//EN" "http://www.w3.org/Graphics/SVG/1.1/DTD/svg11.dtd">
<svg version="1.1" id="Layer_1" xmlns="http://www.w3.org/2000/svg" xmlns:xlink="http://www.w3.org/1999/xlink" x="0px" y="0px"
	 width="110px" height="110px" viewBox="0 0 110 110" enable-background="new 0 0 110 110" xml:space="preserve">
<g>
	<g>
		<path fill="#F15931" d="M73.447,93.215H36.54c-2.406,0-4.359-1.976-4.359-4.397c0-2.384,1.953-4.358,4.359-4.358h36.908
			c2.418,0,4.396,1.976,4.396,4.358C77.843,91.24,75.865,93.215,73.447,93.215z"/>
	</g>
	<g>
		<path fill="#F15931" d="M55.131,88.475c-2.422,0-4.378-1.936-4.378-4.361V21.146c0-2.402,1.956-4.36,4.378-4.36
			c2.407,0,4.384,1.958,4.384,4.36v62.968C59.516,86.541,57.538,88.475,55.131,88.475z"/>
	</g>
	<g>
		<g>
			<path fill="#F15931" d="M55.001,35.484c3.66,0,6.667-2.968,6.667-6.646c0-3.663-3.007-6.649-6.667-6.649
				c-3.662,0-6.647,2.988-6.647,6.649C48.354,32.516,51.339,35.484,55.001,35.484"/>
		</g>
		<g>
			<path fill="#F15931" d="M74.84,35.091c-8.889,0-17.058-3.179-17.579-3.389c-1.483-0.58-2.218-2.273-1.626-3.781
				c0.586-1.489,2.298-2.228,3.789-1.645c0.165,0.077,16.778,6.514,26.021,0.297c1.361-0.908,3.176-0.534,4.061,0.79
				c0.89,1.34,0.53,3.158-0.787,4.042C84.572,34.179,79.604,35.091,74.84,35.091z"/>
		</g>
		<g>
			<path fill="#F15931" d="M35.146,35.091c-4.75,0-9.736-0.913-13.857-3.687c-1.322-0.882-1.693-2.7-0.792-4.02
				c0.902-1.344,2.703-1.716,4.042-0.812c9.268,6.219,25.895-0.221,26.063-0.275c1.488-0.601,3.184,0.136,3.78,1.624
				c0.579,1.508-0.151,3.201-1.64,3.782C52.221,31.913,44.05,35.091,35.146,35.091z"/>
		</g>
	</g>
	<g>
		<path fill="#F15931" d="M77.16,71.571c-0.165,0-0.281-0.05-0.436-0.067c-0.973-0.252-1.571-1.224-1.322-2.191L85.42,28.613
			c0.25-0.988,1.22-1.574,2.19-1.34c1.005,0.25,1.571,1.243,1.354,2.21L78.91,70.18C78.724,70.99,77.961,71.571,77.16,71.571z"/>
	</g>
	<g>
		<path fill="#F15931" d="M97.414,71.571c-0.805,0-1.563-0.58-1.756-1.392L85.602,29.48c-0.245-0.987,0.357-1.962,1.361-2.21
			c0.973-0.233,1.939,0.353,2.192,1.34l10.019,40.7c0.244,0.969-0.354,1.939-1.323,2.191C97.692,71.521,97.57,71.571,97.414,71.571z
			"/>
	</g>
	<g>
		<g>
			<path fill="#F15931" d="M87.503,78.541c6.614,0,11.997-3.404,11.997-7.633c0-4.188-5.383-7.592-11.997-7.592
				c-6.622,0-11.997,3.404-11.997,7.592C75.506,75.137,80.881,78.541,87.503,78.541"/>
		</g>
	</g>
	<g>
		<path fill="#F15931" d="M32.846,71.571c-0.822,0-1.563-0.58-1.757-1.392L21.058,29.48c-0.254-0.987,0.351-1.958,1.317-2.208
			c0.988-0.234,1.978,0.353,2.207,1.34l10.037,40.699c0.25,0.972-0.35,1.938-1.338,2.192C33.143,71.521,33.001,71.571,32.846,71.571
			z"/>
	</g>
	<g>
		<path fill="#F15931" d="M12.587,71.571c-0.135,0-0.295-0.05-0.436-0.067c-0.967-0.252-1.568-1.224-1.339-2.191l10.038-40.698
			c0.251-0.988,1.241-1.574,2.208-1.34c0.968,0.25,1.567,1.243,1.339,2.21L14.365,70.18C14.151,70.99,13.411,71.571,12.587,71.571z"
			/>
	</g>
	<g>
		<g>
			<path fill="#F15931" d="M22.499,78.541c-6.619,0-11.999-3.404-11.999-7.633c0-4.188,5.38-7.592,11.999-7.592
				c6.643,0,12,3.404,12,7.592C34.499,75.137,29.141,78.541,22.499,78.541"/>
		</g>
	</g>
</g>
</svg>
