<?xml version="1.0" encoding="utf-8"?>
<!-- Generator: Adobe Illustrator 16.0.0, SVG Export Plug-In . SVG Version: 6.00 Build 0)  -->
<!DOCTYPE svg PUBLIC "-//W3C//DTD SVG 1.1//EN" "http://www.w3.org/Graphics/SVG/1.1/DTD/svg11.dtd">
<svg version="1.1" id="Layer_1" xmlns="http://www.w3.org/2000/svg" xmlns:xlink="http://www.w3.org/1999/xlink" x="0px" y="0px"
	 width="110px" height="110px" viewBox="0 0 110 110" enable-background="new 0 0 110 110" xml:space="preserve">
<g>
	<g>
		<path fill="#00929E" d="M55,96.643c-22.968,0-41.641-18.671-41.641-41.641c0-22.968,18.673-41.64,41.641-41.64
			s41.641,18.672,41.641,41.64C96.641,77.972,77.968,96.643,55,96.643z M55,16.478c-21.245,0-38.525,17.279-38.525,38.524
			c0,21.247,17.28,38.551,38.525,38.551c21.246,0,38.552-17.307,38.552-38.551C93.552,33.756,76.246,16.478,55,16.478z"/>
	</g>
	<g>
		<path fill="#00929E" d="M55,104C27.971,104,6,82.002,6,55.001C6,27.972,27.971,6,55,6c27.002,0,49,21.972,49,49.002
			C104,82.002,82.002,104,55,104z M55,9.681c-24.984,0-45.32,20.336-45.32,45.322S30.016,100.348,55,100.348
			c24.984,0,45.346-20.359,45.346-45.345S79.984,9.681,55,9.681z"/>
	</g>
	<g>
		<path fill="#00929E" d="M55.887,72.135c-0.018,0-0.035-0.002-0.093-0.002c-2.177-0.094-2.613-2.957-2.793-4.021l-3.976-25.654
			L45.898,54.86c-0.653,2.522-1.753,3.783-3.289,3.79c-1.482-0.102-2.673-1.246-3.352-3.742l-0.47-1.717l-0.583,1.859
			c-1.252,3.959-5.89,7.036-10.536,7.036h-5.197c-1.01,0-1.826-0.789-1.826-1.826c0-1.033,0.816-1.827,1.826-1.827h5.198
			c2.977,0,6.275-2.101,7.04-4.494l0.628-1.991c0.961-2.979,2.436-3.637,3.529-3.637c0.008,0,0.018,0,0.054,0.001
			c1.093,0.037,2.544,0.709,3.395,3.776l0.245,0.942l3.639-14.391c0.28-1.057,1.093-3.936,3.2-3.776
			c2.202,0.126,2.636,2.959,2.789,4.022l3.953,25.307l2.209-9.384c0.588-2.574,1.711-3.88,3.254-3.931
			c1.436-0.181,2.668,1.105,3.365,3.449c0.731,2.213,3.909,4.195,6.874,4.195c0.007,0,0.011,0,0.015,0l15.189-0.073h0.002
			c0.982,0,1.825,0.842,1.827,1.821c0.002,1.037-0.841,1.832-1.825,1.832l-15.189,0.073c-0.004,0-0.01,0-0.019,0
			c-4.305,0-8.521-2.566-10.052-5.937l-2.867,12.073C58.656,69.367,58.045,72.133,55.887,72.135z"/>
	</g>
</g>
</svg>
