<?xml version="1.0" encoding="utf-8"?>
<!-- Generator: Adobe Illustrator 16.0.0, SVG Export Plug-In . SVG Version: 6.00 Build 0)  -->
<!DOCTYPE svg PUBLIC "-//W3C//DTD SVG 1.1//EN" "http://www.w3.org/Graphics/SVG/1.1/DTD/svg11.dtd">
<svg version="1.1" id="Layer_1" xmlns="http://www.w3.org/2000/svg" xmlns:xlink="http://www.w3.org/1999/xlink" x="0px" y="0px"
	 width="110px" height="110px" viewBox="0 0 110 110" enable-background="new 0 0 110 110" xml:space="preserve">
<g>
	<g>
		<path fill="#ED1847" d="M73.454,93.213H36.542c-2.411,0-4.365-1.967-4.365-4.383c0-2.4,1.954-4.367,4.365-4.367h36.912
			c2.417,0,4.387,1.967,4.387,4.367C77.841,91.247,75.871,93.213,73.454,93.213z"/>
	</g>
	<g>
		<path fill="#ED1847" d="M55.132,88.487c-2.419,0-4.375-1.947-4.375-4.367V21.152c0-2.407,1.956-4.365,4.375-4.365
			c2.411,0,4.377,1.958,4.377,4.365V84.12C59.51,86.542,57.543,88.487,55.132,88.487z"/>
	</g>
	<g>
		<g>
			<path fill="#ED1847" d="M55.002,35.491c3.664,0,6.658-2.973,6.658-6.646c0-3.668-2.994-6.648-6.658-6.648
				c-3.667,0-6.647,2.983-6.647,6.648C48.354,32.519,51.335,35.491,55.002,35.491"/>
		</g>
		<g>
			<path fill="#ED1847" d="M74.847,35.097c-8.896,0-17.063-3.181-17.585-3.388c-1.489-0.587-2.22-2.279-1.626-3.782
				c0.587-1.493,2.289-2.229,3.783-1.642c0.165,0.069,16.777,6.512,26.033,0.293c1.349-0.906,3.166-0.539,4.053,0.793
				c0.894,1.337,0.535,3.15-0.792,4.042C84.579,34.185,79.607,35.097,74.847,35.097z"/>
		</g>
		<g>
			<path fill="#ED1847" d="M35.147,35.097c-4.754,0-9.734-0.914-13.855-3.683c-1.328-0.888-1.694-2.703-0.793-4.029
				c0.897-1.34,2.705-1.706,4.042-0.806c9.27,6.22,25.89-0.224,26.057-0.281c1.494-0.598,3.188,0.138,3.781,1.631
				c0.585,1.503-0.146,3.195-1.636,3.782C52.222,31.916,44.051,35.097,35.147,35.097z"/>
		</g>
	</g>
	<g>
		<path fill="#ED1847" d="M77.157,71.569c-0.156,0-0.285-0.035-0.438-0.064c-0.973-0.246-1.572-1.223-1.326-2.195l10.025-40.692
			c0.245-0.981,1.221-1.577,2.194-1.336c0.994,0.246,1.574,1.234,1.345,2.207L78.915,70.178
			C78.718,70.999,77.963,71.569,77.157,71.569z"/>
	</g>
	<g>
		<path fill="#ED1847" d="M97.412,71.569c-0.812,0-1.562-0.568-1.76-1.392L85.606,29.484c-0.244-0.981,0.356-1.964,1.35-2.207
			c0.973-0.24,1.952,0.354,2.196,1.336l10.026,40.695c0.243,0.974-0.356,1.949-1.328,2.195
			C97.696,71.534,97.564,71.569,97.412,71.569z"/>
	</g>
	<g>
		<g>
			<path fill="#ED1847" d="M87.5,78.542c6.623,0,12-3.406,12-7.623c0-4.195-5.377-7.602-12-7.602c-6.624,0-12,3.405-12,7.602
				C75.5,75.135,80.876,78.542,87.5,78.542"/>
		</g>
	</g>
	<g>
		<path fill="#ED1847" d="M32.847,71.569c-0.82,0-1.563-0.568-1.76-1.392L21.054,29.484c-0.248-0.981,0.354-1.958,1.325-2.205
			c0.982-0.24,1.97,0.354,2.205,1.336L34.619,69.31c0.247,0.974-0.354,1.949-1.335,2.195C33.143,71.534,32.999,71.569,32.847,71.569
			z"/>
	</g>
	<g>
		<path fill="#ED1847" d="M12.589,71.569c-0.139,0-0.293-0.035-0.438-0.064c-0.971-0.246-1.57-1.223-1.337-2.195l10.037-40.692
			c0.247-0.981,1.236-1.577,2.206-1.336c0.972,0.246,1.571,1.234,1.337,2.207L14.361,70.178
			C14.15,70.999,13.41,71.569,12.589,71.569z"/>
	</g>
	<g>
		<g>
			<path fill="#ED1847" d="M22.501,78.542c-6.624,0-12.001-3.406-12.001-7.623c0-4.195,5.377-7.602,12.001-7.602
				c6.636,0,12.001,3.405,12.001,7.602C34.502,75.135,29.137,78.542,22.501,78.542"/>
		</g>
	</g>
</g>
</svg>
