<?xml version="1.0" encoding="utf-8"?>
<!-- Generator: Adobe Illustrator 16.0.0, SVG Export Plug-In . SVG Version: 6.00 Build 0)  -->
<!DOCTYPE svg PUBLIC "-//W3C//DTD SVG 1.1//EN" "http://www.w3.org/Graphics/SVG/1.1/DTD/svg11.dtd">
<svg version="1.1" id="Layer_1" xmlns="http://www.w3.org/2000/svg" xmlns:xlink="http://www.w3.org/1999/xlink" x="0px" y="0px"
	 width="110px" height="110px" viewBox="0 0 110 110" enable-background="new 0 0 110 110" xml:space="preserve">
<g>
	<path fill="#FFFFFF" d="M56.858,65.771h-3.704v1.021c0,8.983,0.019,17.997,0,27.02c-0.001,2.18-1.218,3.645-3.243,3.929
		c-1.875,0.244-3.753-1.203-3.973-3.076c-0.054-0.314-0.054-0.674-0.054-1.021c0-18.664-0.001-37.33,0.026-56.021
		c0-0.851-0.246-1.363-0.972-1.847c-6.479-4.354-12.925-8.75-19.374-13.125c-1.504-1.023-1.938-2.379-1.24-3.718
		c0.826-1.625,2.525-2.034,4.122-0.974c2.794,1.858,5.571,3.751,8.358,5.628c3.744,2.505,7.476,5.006,11.198,7.546
		c0.784,0.536,1.548,0.915,2.515,0.763c0.633-0.094,0.905,0.273,1.299,0.706c1.6,1.777,1.055,3.832,0.911,5.833
		c-0.299,4.362-0.63,8.723-0.97,13.084c-0.059,0.697,0.145,1.177,0.639,1.652c0.754,0.675,1.424,1.455,2.201,2.25
		c0.983-0.996,1.906-1.879,2.764-2.815c0.132-0.152,0.18-0.462,0.17-0.699c-0.354-4.963-0.6-9.933-1.141-14.879
		c-0.229-2.008,0.421-3.462,1.692-4.796c0.189-0.217,0.659-0.361,0.969-0.315c1.271,0.134,2.252-0.299,3.318-1.017
		c6.369-4.336,12.786-8.632,19.193-12.94c0.944-0.654,1.948-0.808,2.966-0.216c0.982,0.564,1.531,1.427,1.466,2.596
		c-0.073,1.057-0.722,1.75-1.565,2.323c-5.403,3.666-10.839,7.355-16.236,11.026c-1.134,0.755-2.224,1.541-3.33,2.251
		c-0.544,0.342-0.771,0.713-0.771,1.372c0.047,12.241,0.039,24.481,0.039,36.757c0,6.666,0.008,13.334-0.007,20.041
		c-0.032,1.819-1.204,3.229-2.949,3.574c-1.694,0.312-3.396-0.542-4.014-2.145c-0.235-0.58-0.297-1.282-0.297-1.913
		c-0.008-8.945-0.006-17.857-0.006-26.77v-1.083h-0.001V65.771z"/>
	<path fill="#FFFFFF" d="M54.996,27.877c-4.326-0.005-7.841-3.49-7.864-7.8c-0.003-4.285,3.531-7.826,7.836-7.844
		c4.332-0.024,7.904,3.524,7.9,7.855C62.859,24.388,59.305,27.887,54.996,27.877"/>
</g>
</svg>
