<?xml version="1.0" encoding="utf-8"?>
<!-- Generator: Adobe Illustrator 16.0.0, SVG Export Plug-In . SVG Version: 6.00 Build 0)  -->
<!DOCTYPE svg PUBLIC "-//W3C//DTD SVG 1.1//EN" "http://www.w3.org/Graphics/SVG/1.1/DTD/svg11.dtd">
<svg version="1.1" id="Layer_1" xmlns="http://www.w3.org/2000/svg" xmlns:xlink="http://www.w3.org/1999/xlink" x="0px" y="0px"
	 width="24px" height="24px" viewBox="0 0 24 24" enable-background="new 0 0 24 24" xml:space="preserve">
<path display="none" fill="none" stroke="#D71920" stroke-width="1.5359" stroke-linecap="round" stroke-linejoin="round" stroke-miterlimit="22.926" d="
	M14.434,8.817l2.948-3.848c0.168-0.221,0.125-0.541-0.094-0.707l-1.337-1.024c-0.22-0.167-0.538-0.126-0.708,0.094L12.296,7.18
	c-0.168,0.22-0.129,0.539,0.094,0.706l1.335,1.023C13.947,9.079,14.265,9.035,14.434,8.817z M6.512,19.152l2.948-3.846
	c0.167-0.221,0.128-0.539-0.095-0.705l-1.336-1.023c-0.218-0.17-0.538-0.128-0.707,0.09l-2.947,3.848
	c-0.168,0.223-0.127,0.541,0.095,0.709l1.336,1.021C6.024,19.416,6.343,19.375,6.512,19.152z M6.837,19.725
	c0.04,0.068,0.258,0.254,1.047,0.836c1.544,1.141,5.206-1.012,8.395-5.172s4.271-8.248,2.811-9.45
	c-0.785-0.648-1.003-0.793-1.074-0.802 M14.954,9.132c0.939,0.914,0.658,2.969-0.684,4.718c-1.339,1.75-3.253,2.559-4.379,1.889"/>
<path display="none" fill="none" stroke="#D71920" stroke-width="1.5359" stroke-linecap="round" stroke-linejoin="round" stroke-miterlimit="22.926" d="
	M2.842,9.989l6.806,5.155 M21.157,9.989l-6.807,5.155 M2.646,21.141L12,13.482l9.354,7.658 M21.354,21.141H2.646V9.713L12,2.859
	l9.354,6.854V21.141z"/>
<g display="none">
	<defs>
		<rect id="SVGID_1_" x="1.376" y="3.946" width="21.249" height="16.107"/>
	</defs>
	<clipPath id="SVGID_2_" display="inline">
		<use xlink:href="#SVGID_1_"  overflow="visible"/>
	</clipPath>
	<path display="inline" clip-path="url(#SVGID_2_)" fill="#3d2c28" d="M22.625,10.705c-0.748,0.129-1.833-0.006-2.408-0.243
		c1.195-0.099,2.006-0.642,2.314-1.38c-0.429,0.268-1.768,0.556-2.504,0.279c-0.035-0.174-0.076-0.339-0.117-0.489
		c-0.559-2.066-2.486-3.731-4.503-3.527c0.161-0.066,0.327-0.129,0.493-0.187c0.219-0.078,1.525-0.291,1.318-0.75
		c-0.174-0.404-1.763,0.307-2.064,0.396c0.396-0.147,1.051-0.402,1.122-0.858c-0.608,0.081-1.204,0.372-1.661,0.786
		c0.164-0.177,0.291-0.396,0.316-0.63c-1.618,1.035-2.562,3.117-3.326,5.142c-0.6-0.585-1.132-1.044-1.609-1.296
		c-1.338-0.72-2.94-1.47-5.452-2.402c-0.077,0.83,0.412,1.938,1.819,2.676C6.057,8.18,5.5,8.27,5.055,8.374
		c0.182,0.957,0.773,1.74,2.379,2.121c-0.732,0.048-1.113,0.216-1.454,0.576c0.333,0.66,1.15,1.446,2.615,1.284
		c-1.633,0.702-0.666,2.005,0.664,1.812c-2.265,2.34-5.836,2.166-7.883,0.213c5.348,7.297,16.979,4.314,18.712-2.718
		C21.389,11.674,22.149,11.212,22.625,10.705"/>
</g>
<g>
	<defs>
		<rect id="SVGID_3_" x="4.229" y="4.181" width="15.54" height="15.639"/>
	</defs>
	<clipPath id="SVGID_4_">
		<use xlink:href="#SVGID_3_"  overflow="visible"/>
	</clipPath>
	<path clip-path="url(#SVGID_4_)" fill="#3d2c28" d="M7.781,6.809c0.803,0,1.297,0.528,1.315,1.218c0,0.679-0.512,1.225-1.331,1.225
		H7.75c-0.787,0-1.296-0.546-1.296-1.225C6.454,7.337,6.981,6.809,7.781,6.809 M10.238,10.214h2.347v0.999
		c0.312-0.48,0.87-1.164,2.116-1.164c1.545,0,2.701,1.008,2.701,3.177v4.049h-2.348v-3.775c0-0.951-0.34-1.6-1.188-1.6
		c-0.646,0-1.034,0.438-1.204,0.857c-0.062,0.152-0.078,0.363-0.078,0.574v3.943h-2.347C10.238,17.274,10.271,10.874,10.238,10.214
		 M8.942,17.274h-2.35v-7.061h2.35V17.274z M5.379,19.821h13.242c0.635,0,1.148-0.5,1.148-1.121V5.303
		c0-0.618-0.514-1.119-1.148-1.119H5.379c-0.635,0-1.149,0.501-1.149,1.119V18.7C4.23,19.321,4.745,19.821,5.379,19.821"/>
</g>
</svg>
