<?xml version="1.0" encoding="utf-8"?>
<!-- Generator: Adobe Illustrator 16.0.3, SVG Export Plug-In . SVG Version: 6.00 Build 0)  -->
<!DOCTYPE svg PUBLIC "-//W3C//DTD SVG 1.1//EN" "http://www.w3.org/Graphics/SVG/1.1/DTD/svg11.dtd">
<svg version="1.1" id="Layer_1" xmlns="http://www.w3.org/2000/svg" xmlns:xlink="http://www.w3.org/1999/xlink" x="0px" y="0px"
	 width="30px" height="33.569px" viewBox="0 0 30 33.569" enable-background="new 0 0 30 33.569" xml:space="preserve">
<g>
	<g>
		<path fill="none" stroke="#FFFFFF" stroke-linecap="round" stroke-linejoin="round" stroke-miterlimit="10" d="M21.715,18.381
			c0.936-1.284,1.545-2.61,1.545-4.226c0-4.565-3.701-7.777-8.266-7.777S6.729,9.59,6.729,14.155c0,1.616,0.608,2.942,1.545,4.226
			c0.968,1.327,2.042,2.636,2.431,4.269c0.391,1.641,0.081,3.368,0.543,4.994l7.804-2.73c0.024-0.762,0.056-1.521,0.232-2.264
			C19.672,21.017,20.747,19.708,21.715,18.381z"/>
	</g>
</g>
<line fill="none" stroke="#FFFFFF" stroke-linecap="round" stroke-linejoin="round" stroke-miterlimit="10" x1="11.595" y1="29.24" x2="19.12" y2="26.607"/>
<line fill="none" stroke="#FFFFFF" stroke-linecap="round" stroke-linejoin="round" stroke-miterlimit="10" x1="12.292" y1="30.695" x2="18.421" y2="28.55"/>
<path fill="none" stroke="#FFFFFF" stroke-linecap="round" stroke-linejoin="round" stroke-miterlimit="10" d="M13.628,31.743v0.38
	c0,0,0.198,0.946,1.829,0.946s1.828-0.946,1.828-0.946v-1.697"/>
<line fill="none" stroke="#FFFFFF" stroke-linecap="round" stroke-linejoin="round" stroke-miterlimit="10" x1="15" y1="4.393" x2="15" y2="0.5"/>
<line fill="none" stroke="#FFFFFF" stroke-linecap="round" stroke-linejoin="round" stroke-miterlimit="10" x1="7.531" y1="7.422" x2="4.779" y2="4.67"/>
<line fill="none" stroke="#FFFFFF" stroke-linecap="round" stroke-linejoin="round" stroke-miterlimit="10" x1="4.392" y1="14.846" x2="0.5" y2="14.846"/>
<line fill="none" stroke="#FFFFFF" stroke-linecap="round" stroke-linejoin="round" stroke-miterlimit="10" x1="7.422" y1="22.316" x2="4.67" y2="25.068"/>
<line fill="none" stroke="#FFFFFF" stroke-linecap="round" stroke-linejoin="round" stroke-miterlimit="10" x1="22.469" y1="7.422" x2="25.222" y2="4.67"/>
<line fill="none" stroke="#FFFFFF" stroke-linecap="round" stroke-linejoin="round" stroke-miterlimit="10" x1="25.609" y1="14.846" x2="29.5" y2="14.846"/>
<line fill="none" stroke="#FFFFFF" stroke-linecap="round" stroke-linejoin="round" stroke-miterlimit="10" x1="22.579" y1="22.316" x2="25.331" y2="25.068"/>
</svg>
