<?xml version="1.0" encoding="utf-8"?>
<!-- Generator: Adobe Illustrator 16.0.0, SVG Export Plug-In . SVG Version: 6.00 Build 0)  -->
<!DOCTYPE svg PUBLIC "-//W3C//DTD SVG 1.1//EN" "http://www.w3.org/Graphics/SVG/1.1/DTD/svg11.dtd">
<svg version="1.1" id="Layer_1" xmlns="http://www.w3.org/2000/svg" xmlns:xlink="http://www.w3.org/1999/xlink" x="0px" y="0px"
	 width="24px" height="24px" viewBox="0 0 24 24" enable-background="new 0 0 24 24" xml:space="preserve">
<path fill="#ed1b47" d="M24,11.358c-0.848,0.146-2.068-0.005-2.721-0.275c1.352-0.113,2.266-0.726,2.613-1.557
	c-0.482,0.301-1.994,0.626-2.828,0.314c-0.039-0.196-0.086-0.38-0.133-0.55c-0.632-2.335-2.808-4.215-5.084-3.988
	c0.182-0.074,0.366-0.144,0.555-0.207c0.252-0.09,1.725-0.331,1.492-0.848C17.695,3.789,15.9,4.59,15.561,4.696
	c0.446-0.168,1.188-0.457,1.268-0.972c-0.686,0.092-1.357,0.419-1.875,0.889c0.188-0.2,0.33-0.447,0.357-0.713
	c-1.828,1.169-2.894,3.522-3.757,5.808c-0.677-0.658-1.278-1.177-1.818-1.461c-1.511-0.814-3.32-1.659-6.156-2.715
	c-0.087,0.938,0.465,2.19,2.054,3.02C5.286,8.504,4.658,8.608,4.155,8.728c0.205,1.077,0.873,1.965,2.688,2.394
	c-0.828,0.056-1.258,0.244-1.645,0.648c0.376,0.75,1.301,1.632,2.956,1.453C6.308,14.018,7.4,15.486,8.901,15.27
	C6.344,17.912,2.313,17.718,0,15.509c6.042,8.24,19.178,4.873,21.137-3.068C22.604,12.454,23.462,11.933,24,11.358"/>
</svg>
