<?xml version="1.0" encoding="utf-8"?>
<!-- Generator: Adobe Illustrator 16.0.0, SVG Export Plug-In . SVG Version: 6.00 Build 0)  -->
<!DOCTYPE svg PUBLIC "-//W3C//DTD SVG 1.1//EN" "http://www.w3.org/Graphics/SVG/1.1/DTD/svg11.dtd">
<svg version="1.1" id="Layer_1" xmlns="http://www.w3.org/2000/svg" xmlns:xlink="http://www.w3.org/1999/xlink" x="0px" y="0px"
	 width="85px" height="80px" viewBox="0 0 85 80" enable-background="new 0 0 85 80" xml:space="preserve">
<g>
	<rect x="5.207" y="13.866" fill="#dcddde" width="24.83" height="38.102"/>
	<path fill="#00aab5" d="M28.352,23.423h-8.469v-7.822h8.469V23.423z M28.352,35.147h-8.469v-7.826h8.469V35.147z M28.352,46.868
		h-8.469v-7.826h8.469V46.868z M15.638,23.423H7.169v-7.822h8.469V23.423z M15.638,35.147H7.169v-7.826h8.469V35.147z
		 M15.638,46.868H7.169v-7.826h8.469V46.868z M2.926,54.708h29.666V11.675H2.926V54.708z"/>
	<polygon fill="#ed1846" points="61.601,39.741 59.53,9.808 53.432,9.808 51.363,39.741 49.378,39.741 49.378,38.677 47.84,33.532 
		37.174,36.722 36.222,33.532 25.556,36.722 24.605,33.532 13.775,36.769 13.775,39.741 13.775,41.003 13.775,51.042 13.775,62.345 
		23.947,62.345 34.119,62.345 44.291,62.345 54.463,62.345 64.634,62.345 64.634,51.042 64.634,39.741 	"/>
	<rect x="48.321" y="50.903" fill="#4fbe95" width="33.753" height="19.289"/>
	<rect x="53.946" y="44.466" fill="#00aab5" width="5.624" height="6.438"/>
	<rect x="59.572" y="44.466" fill="#00aab5" width="5.626" height="6.438"/>
	<rect x="65.197" y="44.466" fill="#00aab5" width="5.625" height="6.438"/>
	<rect x="70.825" y="44.466" fill="#00aab5" width="5.624" height="6.438"/>
	<rect x="76.448" y="44.466" fill="#00aab5" width="5.625" height="6.438"/>
	<g>
		<path fill="#00aab5" d="M59.572,50.903c0-1.553-1.26-2.813-2.813-2.813c-1.555,0-2.812,1.26-2.812,2.813s1.257,2.813,2.812,2.813
			C58.312,53.716,59.572,52.456,59.572,50.903"/>
	</g>
	<rect x="48.321" y="44.466" fill="#00aab5" width="5.626" height="6.438"/>
	<g>
		<path fill="#00aab5" d="M53.946,50.903c0-1.553-1.259-2.813-2.814-2.813c-1.553,0-2.813,1.26-2.813,2.813s1.26,2.813,2.813,2.813
			C52.687,53.716,53.946,52.456,53.946,50.903"/>
		<path fill="#00aab5" d="M65.197,50.903c0-1.553-1.26-2.813-2.813-2.813c-1.554,0-2.814,1.26-2.814,2.813s1.261,2.813,2.814,2.813
			C63.937,53.716,65.197,52.456,65.197,50.903"/>
		<path fill="#00aab5" d="M70.823,50.903c0-1.553-1.26-2.813-2.813-2.813c-1.553,0-2.813,1.26-2.813,2.813
			c0,1.555,1.26,2.814,2.813,2.814C69.563,53.718,70.823,52.458,70.823,50.903"/>
		<path fill="#00aab5" d="M76.448,50.903c0-1.553-1.259-2.813-2.813-2.813s-2.813,1.26-2.813,2.813s1.259,2.813,2.813,2.813
			S76.448,52.456,76.448,50.903"/>
		<path fill="#00aab5" d="M82.074,50.903c0-1.553-1.26-2.813-2.813-2.813c-1.554,0-2.813,1.26-2.813,2.813s1.259,2.813,2.813,2.813
			C80.814,53.716,82.074,52.456,82.074,50.903"/>
		<path fill="#dcddde" d="M65.197,58.784c0-0.768,0.628-1.395,1.395-1.395h11.281c0.767,0,1.395,0.627,1.395,1.395v3.529
			c0,0.766-0.628,1.395-1.395,1.395H66.591c-0.767,0-1.395-0.629-1.395-1.395V58.784z"/>
	</g>
	<rect x="52.539" y="60.548" fill="#dcddde" width="8.44" height="9.645"/>
</g>
</svg>
