<?xml version="1.0" encoding="utf-8"?>
<!-- Generator: Adobe Illustrator 16.0.0, SVG Export Plug-In . SVG Version: 6.00 Build 0)  -->
<!DOCTYPE svg PUBLIC "-//W3C//DTD SVG 1.1//EN" "http://www.w3.org/Graphics/SVG/1.1/DTD/svg11.dtd">
<svg version="1.1" id="Layer_1" xmlns="http://www.w3.org/2000/svg" xmlns:xlink="http://www.w3.org/1999/xlink" x="0px" y="0px"
	 width="24px" height="24px" viewBox="0 0 24 24" enable-background="new 0 0 24 24" xml:space="preserve">
<path fill="#ed1b47" d="M22.226,0H1.776C0.797,0,0,0.769,0,1.72V22.28C0,23.234,0.797,24,1.776,24H11.88l0.015-8.576H9.667
	c-0.29,0-0.524-0.234-0.525-0.523L9.13,12.135c-0.001-0.291,0.234-0.528,0.525-0.528h2.225v-2.67c0-3.1,1.894-4.788,4.659-4.788
	h2.27c0.29,0,0.525,0.235,0.525,0.526v2.331c0,0.291-0.235,0.526-0.525,0.526h-1.393c-1.504,0-1.795,0.714-1.795,1.764v2.313h3.305
	c0.313,0,0.56,0.275,0.521,0.587l-0.325,2.764c-0.031,0.265-0.257,0.464-0.522,0.464h-2.962L15.621,24h6.605
	C23.208,24,24,23.234,24,22.279V1.72C24,0.769,23.208,0,22.226,0z"/>
</svg>
