<?xml version="1.0" encoding="utf-8"?>
<!-- Generator: Adobe Illustrator 16.0.0, SVG Export Plug-In . SVG Version: 6.00 Build 0)  -->
<!DOCTYPE svg PUBLIC "-//W3C//DTD SVG 1.1//EN" "http://www.w3.org/Graphics/SVG/1.1/DTD/svg11.dtd">
<svg version="1.1" id="Layer_1" xmlns="http://www.w3.org/2000/svg" xmlns:xlink="http://www.w3.org/1999/xlink" x="0px" y="0px"
	 width="110px" height="110px" viewBox="0 0 110 110" enable-background="new 0 0 110 110" xml:space="preserve">
<path fill="#FFFFFF" d="M55.029,86.377c17.313,0.018,31.55-14.171,31.533-31.41c-0.018-17.173-14.069-31.226-31.347-31.355
	c-17.219-0.14-31.558,14.026-31.668,31.292C23.437,72.063,37.743,86.36,55.029,86.377 M29.585,17.472
	c5.455-2.311,10.767-4.569,16.155-6.84c1.469,2.377,2.787,4.662,4.273,6.822c0.389,0.57,1.309,0.934,2.044,1.09
	c5.218,1.114,8.58-1.021,10.319-5.976c0.245-0.675,0.743-1.25,1.267-2.077c5.354,2.153,10.676,4.298,16.197,6.52
	c-0.6,2.623-1.148,5.156-1.748,7.688c-0.059,0.274-0.244,0.554-0.271,0.827c-0.126,1.427,5.718,6.401,7.128,6.038
	c2.482-0.65,4.966-1.313,7.658-2.021c2.281,5.308,4.535,10.598,6.893,16.107c-2.264,1.402-4.535,2.683-6.672,4.193
	c-0.676,0.485-1.148,1.523-1.344,2.373c-1.08,5.004,0.964,8.275,5.811,9.896c2.172,0.734,2.289,2.011,1.344,4.028
	c-1.808,3.918-3.328,7.955-4.865,11.975c-0.488,1.292-1.021,1.724-2.405,1.292c-1.748-0.54-3.599-0.76-5.347-1.325
	c-1.512-0.489-2.644-0.354-3.58,1.048c-0.389,0.6-0.887,1.225-1.494,1.596c-2.813,1.664-2.754,3.986-1.782,6.68
	c0.558,1.563,0.879,3.228,1.386,5.102c-5.354,2.279-10.641,4.519-16.139,6.874c-1.326-2.161-2.711-4.205-3.885-6.351
	c-0.734-1.386-1.639-1.941-3.158-1.604c-0.271,0.067-0.591,0.094-0.878,0.034c-4.164-0.954-6.545,0.979-7.998,4.679
	c-0.447,1.14-1.258,2.128-1.993,3.369c-5.388-2.18-10.725-4.323-16.214-6.536c0.591-2.567,1.14-4.966,1.698-7.372
	c0.084-0.354,0.253-0.692,0.287-1.048c0.144-1.672-5.599-6.485-7.229-6.063c-1.225,0.305-2.415,0.658-3.614,0.979
	c-1.216,0.295-2.416,0.582-3.927,0.938c-2.28-5.295-4.543-10.633-6.866-16.088c2.289-1.4,4.476-2.728,6.629-4.096
	c0.524-0.338,1.301-0.849,1.317-1.305c0.118-2.415,0.093-4.826-0.008-7.237c-0.025-0.41-0.718-0.84-1.191-1.136
	c-2.238-1.364-4.509-2.698-6.882-4.104c2.078-5.146,4.07-10.163,6.156-15.125c0.194-0.452,1.267-0.832,1.858-0.747
	c2.069,0.384,4.104,1.119,6.19,1.427c0.819,0.123,1.824-0.404,2.618-0.836c0.549-0.295,0.844-1.056,1.385-1.393
	c3.15-1.972,3.386-4.628,2.094-7.799C30.244,20.635,30.032,19.164,29.585,17.472"/>
<path fill="#FFFFFF" d="M54.716,60.499v3.656c0,4.755,0.017,9.525-0.008,14.271c-0.009,2.735-1.343,4.29-3.615,4.323
	c-2.423,0.033-3.783-1.47-3.783-4.341c-0.017-5.944,0-11.873,0-18.021c-3.04-0.727-3.192-3.058-3.133-5.632
	c0.118-3.951,0.075-7.912,0.008-11.865c-0.025-1.833,0.346-3.407,2.255-4.083c2.313-0.823,4.636-0.042,5.835,1.791
	c0.152,0.232,0.337,0.46,0.599,0.823c0.364-0.443,0.71-0.798,0.972-1.195c0.296-0.414,0.507-0.883,0.743-1.322
	c-4.484-2.128-5.86-4.172-5.075-7.516c0.6-2.601,3.04-4.282,5.971-4.134c2.788,0.131,4.838,2.103,5.227,5.016
	c0.405,2.964-1.241,5.059-5.32,6.544c0.515,0.859,1.004,1.679,1.772,2.979c0.979-3.175,3.133-3.416,5.582-3.133
	c1.917,0.229,3.007,1.229,3.023,3.108c0.075,5.05,0.108,10.108-0.052,15.159c-0.024,0.976-0.836,2.377-1.654,2.77
	c-1.352,0.616-1.368,1.453-1.368,2.584c0.034,5.405,0.024,10.835,0.018,16.257c-0.018,2.778-1.25,4.214-3.623,4.214
	c-2.313,0-3.623-1.436-3.648-4.238c-0.042-5.202-0.008-10.404-0.008-15.589v-2.365C55.188,60.541,54.944,60.517,54.716,60.499"/>
</svg>
