<svg xmlns="http://www.w3.org/2000/svg" xmlns:xlink="http://www.w3.org/1999/xlink" width="65" height="57" viewBox="0 0 65 57">
  <defs>
    <style>
      .cls-1 {
        fill: none;
        stroke: #0d83dd;
        stroke-width: 1px;
        fill-rule: evenodd;
      }
    </style>
    <clipPath id="clip-path">
      <rect width="65" height="57"/>
    </clipPath>
  </defs>
  <g clip-path="url(#clip-path)">
    <path id="contactInfo.svg" class="cls-1" d="M50.553,50.127v3.432a3.412,3.412,0,0,1-3.39,3.433h-33.9a6.823,6.823,0,0,1-6.78-6.865V6.933A6.824,6.824,0,0,1,13.262.067h33.9A3.411,3.411,0,0,1,50.552,3.5V6.933h0V50.127h0Zm7.99-43.194V53.559c0,1.9-2.729,3.433-4.6,3.433H53.025a6.881,6.881,0,0,0,.917-3.433V3.5A6.88,6.88,0,0,0,53.025.067h0.917c1.872,0,4.6,1.537,4.6,3.433V6.933ZM28.517,29.239c6.256,0,7.75-5.166,7.75-9.5a7.751,7.751,0,1,0-15.5,0C20.765,24.073,22.821,29.239,28.517,29.239ZM29.6,30.33H27.437c-4.249,0-10.619,3.941-10.619,8.8s-1.441,8.806,2.807,8.806H37.41c4.247,0,2.807-3.943,2.807-8.806S33.845,30.33,29.6,30.33Z" transform="translate(0)"/>
  </g>
</svg>
