<svg xmlns="http://www.w3.org/2000/svg" xmlns:xlink="http://www.w3.org/1999/xlink" width="65" height="57" viewBox="0 0 65 57">
  <defs>
    <style>
      .cls-1 {
        fill: none;
        stroke: #0d83dd;
        stroke-width: 1px;
        fill-rule: evenodd;
      }
    </style>
    <clipPath id="clip-path">
      <rect x="-0.5" width="65" height="57"/>
    </clipPath>
  </defs>
  <g clip-path="url(#clip-path)">
    <path id="culture.svg" class="cls-1" d="M43.331,22.523V19.585a2.093,2.093,0,0,0-.748-1.612,33.332,33.332,0,0,0-6.046-3.918,0.208,0.208,0,0,1-.111-0.173V9.742a1.947,1.947,0,0,0,.859-1.612V3.841A3.852,3.852,0,0,0,33.459-.027H32.552a3.852,3.852,0,0,0-3.826,3.868V8.13a1.947,1.947,0,0,0,.859,1.612v4.141a0.185,0.185,0,0,1-.111.173,33.776,33.776,0,0,0-6.046,3.918,2.074,2.074,0,0,0-.748,1.612v2.938H43.331ZM62.216,52.475a33.3,33.3,0,0,0-6.046-3.918,0.209,0.209,0,0,1-.111-0.173V44.244a1.946,1.946,0,0,0,.858-1.612v-4.29a3.852,3.852,0,0,0-3.826-3.868H52.185a3.852,3.852,0,0,0-3.826,3.868v4.29a1.947,1.947,0,0,0,.858,1.612v4.141a0.186,0.186,0,0,1-.11.173,33.755,33.755,0,0,0-6.046,3.918,2.074,2.074,0,0,0-.748,1.612v2.938H62.964V54.087A2.074,2.074,0,0,0,62.216,52.475Zm-39.279,0a33.3,33.3,0,0,0-6.046-3.918,0.208,0.208,0,0,1-.11-0.173V44.244a1.947,1.947,0,0,0,.858-1.612v-4.29a3.852,3.852,0,0,0-3.826-3.868H12.906a3.852,3.852,0,0,0-3.826,3.868v4.29a1.947,1.947,0,0,0,.858,1.612v4.141a0.186,0.186,0,0,1-.11.173,33.746,33.746,0,0,0-6.046,3.918,2.074,2.074,0,0,0-.748,1.612v2.938H23.685V54.087A2.074,2.074,0,0,0,22.937,52.475Zm21.05-16.388h-1.55a9.853,9.853,0,0,0-1.5-3.644l1.093-1.105a1.043,1.043,0,0,0,0-1.451l-1.109-1.121a1.016,1.016,0,0,0-1.435,0l-1.093,1.1a9.641,9.641,0,0,0-3.6-1.517V26.788a1.022,1.022,0,0,0-1.011-1.022H32.211A1.022,1.022,0,0,0,31.2,26.788v1.549a9.448,9.448,0,0,0-3.621,1.517L26.5,28.767a1.016,1.016,0,0,0-1.435,0l-1.109,1.121a1.043,1.043,0,0,0,0,1.451l1.076,1.089A9.657,9.657,0,0,0,23.518,36.1h-1.5a1.022,1.022,0,0,0-1.011,1.022v1.583a1.022,1.022,0,0,0,1.011,1.022h1.5a9.843,9.843,0,0,0,1.517,3.694L23.991,44.5a1.043,1.043,0,0,0,0,1.451l1.11,1.121a1.016,1.016,0,0,0,1.435,0L27.58,46a9.329,9.329,0,0,0,3.653,1.517v1.517a1.022,1.022,0,0,0,1.011,1.022H33.81a1.021,1.021,0,0,0,1.011-1.022V47.514a9.55,9.55,0,0,0,3.637-1.533l1.076,1.088a1.016,1.016,0,0,0,1.436,0l1.109-1.121a1.043,1.043,0,0,0,0-1.451L41,43.409a9.646,9.646,0,0,0,1.484-3.661H44.02a1.021,1.021,0,0,0,1.011-1.022V37.142A1.056,1.056,0,0,0,43.987,36.088Zm-8.059,4.8a4.1,4.1,0,0,1-5.849,0,4.21,4.21,0,0,1,0-5.913,4.1,4.1,0,0,1,5.849,0A4.222,4.222,0,0,1,35.928,40.885Z" transform="translate(-0.5)"/>
  </g>
</svg>
