<?xml version="1.0" encoding="utf-8"?>
<!-- Generator: Adobe Illustrator 16.0.3, SVG Export Plug-In . SVG Version: 6.00 Build 0)  -->
<!DOCTYPE svg PUBLIC "-//W3C//DTD SVG 1.1//EN" "http://www.w3.org/Graphics/SVG/1.1/DTD/svg11.dtd">
<svg version="1.1" id="Layer_1" xmlns="http://www.w3.org/2000/svg" xmlns:xlink="http://www.w3.org/1999/xlink" x="0px" y="0px"
	 width="264px" height="171.25px" viewBox="0 0 264 171.25" enable-background="new 0 0 264 171.25" xml:space="preserve">
<path fill="#096a69" d="M98.433,7.356c-8.889,0-16.344,6.183-18.339,14.469c2.349,4.32,3.685,9.269,3.685,14.523
	c0,0.572-0.019,1.141-0.05,1.705c3.464,4.302,8.765,7.065,14.705,7.065c10.411,0,18.881-8.47,18.881-18.881
	S108.844,7.356,98.433,7.356z"/>
<path fill="#307985" d="M137.193,12.281c-14.314,0-25.958,11.645-25.958,25.958s11.645,25.958,25.958,25.958
	c14.313,0,25.957-11.645,25.957-25.958S151.506,12.281,137.193,12.281z"/>
<path fill="#84a2a4" d="M190.354,60.887c16.498,0,29.872-13.374,29.872-29.872S206.852,1.143,190.354,1.143
	s-29.872,13.374-29.872,29.872S173.855,60.887,190.354,60.887"/>
<path fill="#ECECED" d="M53.273,12.062c-13.393,0-24.288,10.895-24.288,24.287S39.88,60.636,53.273,60.636
	s24.288-10.895,24.288-24.287S66.666,12.062,53.273,12.062z"/>
<!-- <line fill="none" stroke="#005554" stroke-width="3" stroke-linecap="round" stroke-linejoin="round" x1="47.141" y1="48.993" x2="59.809" y2="48.993"/>
<line fill="none" stroke="#005554" stroke-width="3" stroke-linecap="round" stroke-linejoin="round" x1="53.52" y1="47.377" x2="53.52" y2="25.769"/>
<path fill="#005554" d="M53.475,30.688c1.26,0,2.281-1.021,2.281-2.28c0-1.261-1.021-2.281-2.281-2.281
	c-1.26,0-2.281,1.021-2.281,2.281C51.194,29.668,52.215,30.688,53.475,30.688"/>
<path fill="none" stroke="#005554" stroke-width="2" stroke-linecap="round" stroke-linejoin="round" d="M54.62,28.461
	c0,0,6.198,2.46,9.865,0"/>
<path fill="none" stroke="#005554" stroke-width="2" stroke-linecap="round" stroke-linejoin="round" d="M52.33,28.461
	c0,0-6.198,2.46-9.865,0"/>
<line fill="none" stroke="#005554" stroke-width="1.25" stroke-linecap="round" stroke-linejoin="round" x1="64.519" y1="28.478" x2="61.076" y2="42.439"/>
<line fill="none" stroke="#005554" stroke-width="1.25" stroke-linecap="round" stroke-linejoin="round" x1="64.586" y1="28.478" x2="68.029" y2="42.439"/>
<path fill="#005554" d="M64.626,45.461c2.275,0,4.119-1.17,4.119-2.613s-1.844-2.613-4.119-2.613s-4.119,1.17-4.119,2.613
	S62.352,45.461,64.626,45.461"/>
<line fill="none" stroke="#005554" stroke-width="1.25" stroke-linecap="round" stroke-linejoin="round" x1="42.431" y1="28.478" x2="45.874" y2="42.439"/>
<line fill="none" stroke="#005554" stroke-width="1.25" stroke-linecap="round" stroke-linejoin="round" x1="42.364" y1="28.478" x2="38.921" y2="42.439"/>
<path fill="#005554" d="M42.323,45.461c-2.275,0-4.119-1.17-4.119-2.613s1.844-2.613,4.119-2.613c2.275,0,4.119,1.17,4.119,2.613
	S44.598,45.461,42.323,45.461"/> -->
<path fill="#edeeee" d="M251.917,79.743c-1.13-2.191-2.444-4.271-3.968-6.184c0.012-0.312,0.047-0.616,0.047-0.93
	c0-13.55-10.984-24.533-24.534-24.533c-1.505,0-2.974,0.146-4.4,0.41c-5.913,9.668-16.569,16.135-28.708,16.135
	c-10.723,0-20.281-5.05-26.442-12.89c-4.946,9.746-15.06,16.445-26.718,16.445c-13.464,0-24.875-8.93-28.638-21.176
	c-0.01-0.033-0.041-0.165-0.076-0.317c-3.077,1.542-6.544,2.415-10.213,2.415c-5.861,0-11.213-2.218-15.266-5.854
	c-0.28,1.077-0.651,2.45-0.911,3.076c-4.147,11.927-15.495,20.514-28.816,20.514c-10.771,0-20.25-5.617-25.679-14.07
	C13.435,56.69,3.032,69.654,3.032,85.055c0,5.372,1.272,10.446,3.522,14.946c-3.005,5.42-4.721,11.652-4.721,18.29
	c0,16.224,10.224,30.054,24.578,35.411c7.058,6.442,16.449,10.373,26.758,10.373c6.183,0,12.034-1.414,17.251-3.934
	c8.698,6.313,19.393,10.04,30.964,10.04c10.39,0,20.07-3.012,28.24-8.194c7.011,3.4,14.86,5.337,23.175,5.337
	c11.336,0,21.838-3.553,30.473-9.591c7.601,4.185,16.31,6.601,25.6,6.601c29.411,0,53.253-23.843,53.253-53.253
	C262.124,99.363,258.33,88.537,251.917,79.743z"/>
</svg>
