<?xml version="1.0" encoding="utf-8"?>
<!-- Generator: Adobe Illustrator 16.0.3, SVG Export Plug-In . SVG Version: 6.00 Build 0)  -->
<!DOCTYPE svg PUBLIC "-//W3C//DTD SVG 1.1//EN" "http://www.w3.org/Graphics/SVG/1.1/DTD/svg11.dtd">
<svg version="1.1" id="Layer_2" xmlns="http://www.w3.org/2000/svg" xmlns:xlink="http://www.w3.org/1999/xlink" x="0px" y="0px"
	 width="63px" height="69.123px" viewBox="0 0 63 69.123" enable-background="new 0 0 63 69.123" xml:space="preserve">
<g>
	<g opacity="0.2">
		<path d="M62.139,25.35c0-4.58-3.713-8.292-8.293-8.292c-0.168,0-0.331,0.015-0.495,0.025c-1.274-3.857-4.901-6.642-9.185-6.642
			c-2.785,0-5.285,1.179-7.052,3.058c-1.367-2.076-3.714-3.451-6.386-3.451c-3.246,0-6.004,2.03-7.116,4.884
			c-0.628-0.246-1.306-0.393-2.022-0.393c-2.896,0-5.248,2.214-5.527,5.038c-0.017,0-0.035-0.003-0.053-0.003
			c-5.65,0-10.229,4.579-10.229,10.228c0,5.336,4.088,9.713,9.301,10.182c0.195,4.252,3.696,7.643,7.996,7.643
			c1.865,0,3.578-0.644,4.941-1.712c1.773,1.418,4.019,2.271,6.466,2.271c2.639,0,5.041-0.995,6.869-2.618
			c1.678,1.316,3.785,2.107,6.081,2.107c5.443,0,9.857-4.414,9.857-9.859c0-1.63-0.402-3.161-1.102-4.516
			C59.627,32.289,62.139,29.114,62.139,25.35z"/>
		<circle cx="41.483" cy="54.475" r="3.464"/>
		<circle cx="35.612" cy="61.704" r="2.9"/>
		<circle cx="28.819" cy="66.085" r="1.87"/>
	</g>
	<g>
		<path fill="#E5E6E7" stroke="#475B6C" stroke-width="3" d="M58.737,19.964c0-4.58-3.713-8.292-8.293-8.292
			c-0.168,0-0.331,0.015-0.495,0.025c-1.274-3.857-4.901-6.642-9.185-6.642c-2.785,0-5.285,1.179-7.052,3.058
			c-1.367-2.076-3.714-3.451-6.386-3.451c-3.247,0-6.004,2.03-7.116,4.884c-0.628-0.246-1.306-0.393-2.023-0.393
			c-2.896,0-5.248,2.214-5.527,5.038c-0.016,0-0.035-0.003-0.053-0.003c-5.65,0-10.229,4.579-10.229,10.228
			c0,5.336,4.088,9.713,9.301,10.182c0.195,4.252,3.696,7.643,7.996,7.643c1.866,0,3.578-0.644,4.942-1.712
			c1.773,1.418,4.019,2.271,6.466,2.271c2.639,0,5.041-0.995,6.869-2.618c1.678,1.316,3.785,2.107,6.081,2.107
			c5.443,0,9.857-4.414,9.857-9.859c0-1.63-0.402-3.161-1.102-4.516C56.226,26.903,58.737,23.729,58.737,19.964z"/>
		<circle fill="#D71920" cx="38.082" cy="49.089" r="3.464"/>
		<circle fill="#D71920" cx="32.211" cy="56.318" r="2.9"/>
		<circle fill="#D71920" cx="25.417" cy="60.699" r="1.87"/>
	</g>
</g>
</svg>
