<?xml version="1.0" encoding="utf-8"?>
<!-- Generator: Adobe Illustrator 16.0.0, SVG Export Plug-In . SVG Version: 6.00 Build 0)  -->
<!DOCTYPE svg PUBLIC "-//W3C//DTD SVG 1.1//EN" "http://www.w3.org/Graphics/SVG/1.1/DTD/svg11.dtd">
<svg version="1.1" id="Layer_1" xmlns="http://www.w3.org/2000/svg" xmlns:xlink="http://www.w3.org/1999/xlink" x="0px" y="0px"
	 width="30.542px" height="26.225px" viewBox="0 0 30.542 26.225" enable-background="new 0 0 30.542 26.225" xml:space="preserve">
<g>
	<g>
		<path fill="#005554" d="M21.605,26.225H8.937c-0.829,0-1.5-0.672-1.5-1.5s0.671-1.5,1.5-1.5h12.668c0.829,0,1.5,0.672,1.5,1.5
			S22.434,26.225,21.605,26.225z"/>
	</g>
	<g>
		<path fill="#005554" d="M15.316,24.608c-0.829,0-1.5-0.672-1.5-1.5V1.5c0-0.828,0.671-1.5,1.5-1.5s1.5,0.672,1.5,1.5v21.608
			C16.816,23.937,16.145,24.608,15.316,24.608z"/>
	</g>
	<g>
		<g>
			<path fill="#005554" d="M15.271,6.42c1.26,0,2.281-1.021,2.281-2.28c0-1.261-1.021-2.281-2.281-2.281
				c-1.26,0-2.281,1.021-2.281,2.281C12.99,5.399,14.011,6.42,15.271,6.42"/>
		</g>
		<g>
			<path fill="#005554" d="M22.083,6.284c-3.055,0-5.858-1.092-6.036-1.162c-0.513-0.204-0.763-0.784-0.56-1.298
				c0.203-0.513,0.784-0.766,1.297-0.562c0.058,0.022,5.758,2.234,8.939,0.1c0.458-0.31,1.08-0.187,1.388,0.273
				c0.308,0.458,0.185,1.079-0.273,1.387C25.423,5.972,23.717,6.284,22.083,6.284z"/>
		</g>
		<g>
			<path fill="#005554" d="M8.459,6.284c-1.634,0-3.341-0.313-4.755-1.262C3.246,4.715,3.123,4.094,3.431,3.636
				C3.738,3.177,4.36,3.054,4.818,3.362C8,5.497,13.7,3.284,13.758,3.263c0.514-0.204,1.095,0.049,1.297,0.562
				c0.203,0.514-0.047,1.094-0.56,1.298C14.317,5.192,11.513,6.284,8.459,6.284z"/>
		</g>
	</g>
	<g>
		<path fill="#005554" d="M22.872,18.796c-0.05,0-0.1-0.006-0.15-0.019c-0.335-0.082-0.54-0.421-0.457-0.756L25.708,4.06
			c0.083-0.335,0.421-0.542,0.757-0.457c0.335,0.082,0.54,0.421,0.457,0.756L23.479,18.32
			C23.408,18.605,23.153,18.796,22.872,18.796z"/>
	</g>
	<g>
		<path fill="#005554" d="M29.824,18.796c-0.281,0-0.536-0.19-0.606-0.476L25.775,4.358c-0.083-0.335,0.122-0.674,0.458-0.756
			c0.335-0.085,0.674,0.122,0.756,0.457l3.443,13.962c0.083,0.335-0.122,0.674-0.458,0.756
			C29.924,18.79,29.874,18.796,29.824,18.796z"/>
	</g>
	<g>
		<g>
			<path fill="#005554" d="M26.422,21.192c2.275,0,4.119-1.17,4.119-2.613s-1.844-2.613-4.119-2.613s-4.119,1.17-4.119,2.613
				S24.147,21.192,26.422,21.192"/>
		</g>
	</g>
	<g>
		<path fill="#005554" d="M7.669,18.796c-0.281,0-0.536-0.19-0.606-0.476L3.62,4.358C3.537,4.023,3.742,3.685,4.077,3.603
			C4.413,3.518,4.75,3.725,4.833,4.06l3.443,13.962c0.083,0.335-0.122,0.674-0.457,0.756C7.77,18.79,7.719,18.796,7.669,18.796z"/>
	</g>
	<g>
		<path fill="#005554" d="M0.717,18.796c-0.049,0-0.1-0.006-0.15-0.019c-0.335-0.082-0.54-0.421-0.458-0.756L3.553,4.06
			c0.083-0.335,0.422-0.542,0.756-0.457c0.335,0.082,0.54,0.421,0.458,0.756L1.324,18.32C1.253,18.605,0.998,18.796,0.717,18.796z"
			/>
	</g>
	<g>
		<g>
			<path fill="#005554" d="M4.119,21.192C1.844,21.192,0,20.022,0,18.579s1.844-2.613,4.119-2.613c2.275,0,4.119,1.17,4.119,2.613
				S6.394,21.192,4.119,21.192"/>
		</g>
	</g>
</g>
<g>
</g>
<g>
</g>
<g>
</g>
<g>
</g>
<g>
</g>
<g>
</g>
</svg>
